<svg><defs><font horiz-adv-x="240"><font-face font-family="AvenirNextLTProItalic" font-weight="400" font-style="italic" panose-1="2 11 5 4 2 2 2 2 2 4" ascent="756" descent="-244" x-height="468" cap-height="708" bbox="-260 -250 1029 946" underline-thickness="50" underline-position="-50" slope="-12" unicode-range="U+000D-FB02"/><glyph glyph-name="IJ" unicode="IJ" horiz-adv-x="735" d="M236 708l-125-708h-71l125 708h71zm7-588l63 20q7-42 34.5-69t72.5-27q37 0 63.5 13t42.5 38.5 24.5 51 14.5 62.5l88 499h71l-89-504q-7-43-18-75t-33-69-62.5-57.5-97.5-20.5q-75 0-120.5 39.5t-53.5 98.5z"/><glyph glyph-name="ij" unicode="ij" horiz-adv-x="517" d="M187 468l-83-468h-67l83 468h67zm40 181q0-20-14-34t-33-14-32.5 12.5-13.5 32.5q0 21 14.5 35t33.5 14 32-12.5 13-33.5zm-74-882l14 57q18-6 42-6 39 0 55 24t26 76l97 550h67l-99-561q-12-68-43-107.5t-103-39.5q-34 0-56 7zm340 882q0-20-14-34t-33-14-32.5 12.5-13.5 32.5q0 21 14.5 35t33.5 14 32-12.5 13-33.5z"/><glyph glyph-name="napostrophe" unicode=""n" horiz-adv-x="577" d="M115 468h65q-7-63-11-80h2q27 43 70 67.5t90 24.5q75 0 118-38.5t43-104.5q0-20-5-50l-51-287h-67l46 259q6 32 6 59 0 106-104 106-58 0-107-47.5t-65-136.5l-42-240h-67l64 365q10 50 15 103zm126 240l-115-185h-57l101 185h71z"/><glyph glyph-name="fi" unicode="fi" horiz-adv-x="544" d="M317 468l-11-56h-110l-72-412h-67l72 412h-99l11 56h97l22 127q13 77 56.5 125t118.5 48q30 0 55-7l-16-59q-21 6-47 6-45 0-68-31.5t-33-88.5l-21-120h112zm164 0l-83-468h-67l83 468h67zm40 181q0-20-14-34t-33-14-32.5 12.5-13.5 32.5q0 21 14.5 35t33.5 14 32-12.5 13-33.5z"/><glyph glyph-name="fl" unicode="fl" horiz-adv-x="544" d="M531 756l-133-756h-68l133 756h68zm-214-288l-11-56h-110l-72-412h-67l72 412h-99l11 56h97l22 127q13 77 56.5 125t118.5 48q30 0 55-7l-16-59q-21 6-47 6-45 0-68-31.5t-33-88.5l-21-120h112z"/><glyph glyph-name=".notdef" horiz-adv-x="512" d="M222 117h56v67h-56v-67zm3 117h46q0 52 6 72 6 19 43 52 37 34 50 60t13 60q0 59-35 95t-89 36q-56 0-92-34t-43-103l50-8q11 95 82 95 31 0 53.5-24.5t22.5-60.5q0-20-9.5-37t-40.5-46q-31-31-46-59-13-25-13-81zm237-184h-412v617h412v-617zm50 668h-512v-718h512v718z"/><glyph glyph-name=".null" horiz-adv-x="500"/><glyph glyph-name=".null" horiz-adv-x="500"/><glyph glyph-name="nonmarkingreturn" horiz-adv-x="333"/><glyph glyph-name="CR" horiz-adv-x="0"/><glyph glyph-name="space" horiz-adv-x="250"/><glyph glyph-name="exclam" unicode="!" horiz-adv-x="278" d="M246 708l-91-516h-72l91 516h72zm-93-659q0-22-16-38.5t-38-16.5-37.5 14.5-15.5 37.5q0 24 16.5 40t38.5 16 37-14.5 15-38.5z"/><glyph glyph-name="quotedbl" unicode=""" horiz-adv-x="400" d="M116 473l42 235h60l-42-235h-60zm145 0l42 235h60l-42-235h-60z"/><glyph glyph-name="numbersign" unicode="#" horiz-adv-x="556" d="M53 0l68 214h-102l10 60h110l51 162h-108l10 60h117l67 212h61l-67-212h133l67 212h61l-67-212h90l-10-60h-99l-51-162h95l-10-60h-103l-68-214h-61l68 214h-133l-68-214h-61zm198 436l-51-162h133l51 162h-133z"/><glyph glyph-name="dollar" unicode="$" horiz-adv-x="580" d="M251-13l-12-71h-42l13 72q-61 4-113 30.5t-80 72.5l62 39q19-33 56.5-56t84.5-26l50 285q-74 27-118.5 68t-44.5 110q0 87 61.5 146t170.5 64l12 71h42l-13-72q110-6 168-83l-60-42q-16 26-48 44.5t-70 19.5l-48-274q34-13 59.5-27.5t51.5-35.5 39.5-51 13.5-67q0-36-12.5-71t-38.5-67.5-73.5-54-110.5-24.5zm12 61q65 3 108 44.5t43 102.5q0 78-105 124zm19 352l46 260q-61-3-105.5-39.5t-44.5-101.5q0-45 26-71.5t78-47.5z"/><glyph glyph-name="percent" unicode="%" horiz-adv-x="833" d="M211 373q-67 0-110 40t-43 103q0 85 56 144.5t140 59.5q67 0 109.5-39.5t42.5-102.5q0-86-55.5-145.5t-139.5-59.5zm134 200q0 42-25.5 68.5t-69.5 26.5q-55 0-92-43t-37-103q0-41 25.5-67.5t68.5-26.5q56 0 93 42.5t37 102.5zm255-583q-67 0-110 40t-43 103q0 85 56 144.5t140 59.5q67 0 109.5-39.5t42.5-102.5q0-86-55.5-145.5t-139.5-59.5zm134 200q0 42-25.5 68.5t-69.5 26.5q-55 0-92-43t-37-103q0-41 25.5-67.5t68.5-26.5q56 0 93 42.5t37 102.5zm2 522l-581-743-45 27 582 743z"/><glyph glyph-name="ampersand" unicode="&" horiz-adv-x="704" d="M511 576q0-120-189-199l133-168 125 174h83l-168-221 130-162h-91l-81 105q-101-117-226-117-92 0-147.5 45.5t-55.5 130.5q0 144 204 231-55 68-55 148t49.5 131.5 127.5 51.5q72 0 116.5-40t44.5-110zm-98-424l-153 196q-74-31-117-73.5t-43-108.5q0-54 37.5-86t93.5-32q52 0 95 25t87 79zm28 419q0 44-24.5 70.5t-66.5 26.5q-49 0-80-34t-31-86q0-69 52-127 71 31 110.5 66t39.5 84z"/><glyph glyph-name="quotesingle" unicode="'" horiz-adv-x="255" d="M116 473l42 235h60l-42-235h-60z"/><glyph glyph-name="parenleft" unicode="(" horiz-adv-x="300" d="M83 167q0-173 69-297l-52-28q-39 61-61 147.5t-22 177.5q0 158 65.5 306.5t171.5 261.5l46-33q-97-107-157-249t-60-286z"/><glyph glyph-name="parenright" unicode=")" horiz-adv-x="300" d="M211 409q0 173-69 297l52 28q39-61 61-147.5t22-177.5q0-158-65.5-306.5t-171.5-261.5l-46 33q97 107 157 249t60 286z"/><glyph glyph-name="asterisk" unicode="*" horiz-adv-x="444" d="M280 708v-145l144 45 18-50-146-45 93-127-42-32-95 130-95-130-42 32 93 127-146 45 18 50 144-45v145h56z"/><glyph glyph-name="plus" unicode="+" horiz-adv-x="666" d="M363 558v-225h225v-60h-225v-225h-60v225h-225v60h225v225h60z"/><glyph glyph-name="comma" unicode="," horiz-adv-x="260" d="M146 95l-123-235h-57l109 235h71z"/><glyph glyph-name="hyphen" unicode="-" horiz-adv-x="320" d="M266 271l-10-57h-224l10 57h224z"/><glyph glyph-name="period" unicode="." horiz-adv-x="260" d="M131 49q0-22-16-38.5t-38-16.5-37.5 14.5-15.5 37.5q0 24 16.5 40t38.5 16 37-14.5 15-38.5z"/><glyph glyph-name="slash" unicode="/" horiz-adv-x="370" d="M435 706l-429-724-55 19 431 725z"/><glyph glyph-name="zero" unicode="0" horiz-adv-x="580" d="M358 726q94 0 139.5-67t45.5-174q0-81-17.5-165t-52-162-95.5-127-139-49q-96 0-140.5 66t-44.5 173q0 83 17.5 167t51.5 162 95.5 127 139.5 49zm-5-60q-64 0-117-65.5t-81.5-166-28.5-207.5q0-82 28-133t90-51q64 0 116.5 65t81 164.5 28.5 206.5q0 83-27.5 135t-89.5 52z"/><glyph glyph-name="one" unicode="1" horiz-adv-x="580" d="M429 708l-125-708h-70l109 621-149-111-35 52 206 146h64z"/><glyph glyph-name="two" unicode="2" horiz-adv-x="580" d="M465 63l-11-63h-453l13 75 339 293q59 50 85.5 89.5t26.5 93.5q0 52-37 83t-91 31q-62 0-103-34.5t-57-89.5l-68 14q24 76 84 123.5t147 47.5q82 0 139.5-44.5t57.5-124.5q0-42-8.5-73.5t-31-61-42.5-49-62-55.5l-299-255h371z"/><glyph glyph-name="three" unicode="3" horiz-adv-x="580" d="M220 341l11 60h31q91 0 141 39.5t50 116.5q0 51-34 79.5t-86 28.5q-100 0-147-87l-58 33q75 115 208 115 80 0 134.5-44.5t54.5-124.5q0-65-39-115t-116-71v-2q50-12 83-53t33-96q0-104-68.5-171t-180.5-67q-78 0-136.5 39t-78.5 106l71 25q9-50 51.5-79t98.5-29q75 0 122 46t47 123q0 64-43 96t-118 32h-31z"/><glyph glyph-name="four" unicode="4" horiz-adv-x="580" d="M506 708l-84-474h105l-11-63h-105l-30-171h-69l30 171h-324l12 73 380 464h96zm-153-474l70 393h-2l-320-393h252z"/><glyph glyph-name="five" unicode="5" horiz-adv-x="580" d="M528 708l-11-63h-278l-44-220q44 16 91 16 92 0 149.5-54.5t57.5-136.5q0-114-69-191t-199-77q-74 0-127.5 35.5t-74.5 93.5l66 29q13-43 51-69.5t86-26.5q91 0 141.5 54t50.5 138q0 67-41.5 108t-110.5 41q-86 0-153-40l72 363h343z"/><glyph glyph-name="six" unicode="6" horiz-adv-x="580" d="M475 708l-258-309 2-2q41 26 94 26 84 0 138-52t54-136q0-112-72.5-182.5t-185.5-70.5q-92 0-150.5 58t-58.5 144q0 91 100 215l250 309h87zm-365-526q0-59 38-100t101-41q82 0 133.5 54t51.5 134q0 58-36 98t-98 40q-81 0-135.5-53t-54.5-132z"/><glyph glyph-name="seven" unicode="7" horiz-adv-x="580" d="M569 708l-12-66-402-642h-84l413 645h-346l11 63h420z"/><glyph glyph-name="eight" unicode="8" horiz-adv-x="580" d="M387 373q50-14 81.5-54t31.5-95q0-114-75.5-178t-179.5-64q-88 0-147 49t-59 135q0 81 51.5 137t125.5 74v2q-42 17-66.5 52.5t-24.5 80.5q0 90 63 152t157 62q83 0 134.5-44.5t51.5-122.5q0-67-40.5-115.5t-103.5-68.5v-2zm-193 144q0-47 31-80t83-33q66 0 109.5 47t43.5 97q0 57-32.5 87.5t-88.5 30.5q-62 0-104-45t-42-104zm-82-347q0-57 36.5-92t97.5-35q84 0 133 50t49 127q0 53-37 89t-95 36q-78 0-131-50.5t-53-124.5z"/><glyph glyph-name="nine" unicode="9" horiz-adv-x="580" d="M129 0l258 309-2 2q-41-26-94-26-84 0-138 52t-54 136q0 112 72.5 182.5t185.5 70.5q92 0 150.5-58t58.5-144q0-91-100-215l-250-309h-87zm366 526q0 59-38.5 100t-101.5 41q-82 0-133.5-54t-51.5-134q0-58 36-97.5t98-39.5q81 0 136 52.5t55 131.5z"/><glyph glyph-name="colon" unicode=":" horiz-adv-x="300" d="M157 49q0-22-16-38.5t-38-16.5-37.5 14.5-15.5 37.5q0 24 16.5 40t38.5 16 37-14.5 15-38.5zm58 372q0-22-16-38.5t-38-16.5-37.5 14.5-15.5 37.5q0 24 16.5 40t38.5 16 37-14.5 15-38.5z"/><glyph glyph-name="semicolon" unicode=";" horiz-adv-x="300" d="M162 95l-123-235h-60l109 235h74zm53 326q0-22-16-38.5t-38-16.5-37.5 14.5-15.5 37.5q0 24 16.5 40t38.5 16 37-14.5 15-38.5z"/><glyph glyph-name="less" unicode="<" horiz-adv-x="666" d="M588 564v-60l-429-201 429-201v-60l-510 238v46z"/><glyph glyph-name="equal" unicode="=" horiz-adv-x="666" d="M78 408h510v-60h-510v60zm0-150h510v-60h-510v60z"/><glyph glyph-name="greater" unicode=">" horiz-adv-x="666" d="M78 504v60l510-238v-46l-510-238v60l429 201z"/><glyph glyph-name="question" unicode="?" horiz-adv-x="482" d="M260 232l-6-40h-68l10 60q9 52 34 87t66 66l33 25q43 33 63.5 61t20.5 68q0 45-29 72t-75 27q-61 0-98-32.5t-49-84.5l-65 12q18 76 77 121.5t134 45.5q78 0 127.5-40.5t49.5-118.5q0-59-30.5-100.5t-88.5-82.5q-53-38-75.5-66.5t-30.5-79.5zm2-183q0-22-16-38.5t-38-16.5-37.5 14.5-15.5 37.5q0 24 16.5 40t38.5 16 37-14.5 15-38.5z"/><glyph glyph-name="at" unicode="@" horiz-adv-x="800" d="M444 489q-59 0-104.5-57t-45.5-139q0-75 65-75 63 0 108 63t45 136q0 72-68 72zm229-344l29-46q-135-117-322-117-156 0-248 86.5t-92 221.5q0 182 123.5 309t311.5 127q135 0 222-74t87-203q0-73-22.5-137t-72.5-108-119-44q-43 0-67.5 22t-16.5 52h-4q-19-28-54.5-51t-77.5-23q-64 0-96.5 35t-32.5 94q0 38 14.5 81.5t41 84 72.5 67.5 102 27q38 0 66-17.5t34-42.5h4l18 45h62l-73-186q-25-64-25-88 0-44 48-44 58 0 96.5 70t38.5 151q0 106-68.5 167.5t-180.5 61.5q-153 0-256.5-109t-103.5-268q0-113 75.5-181t200.5-68q159 0 286 105z"/><glyph glyph-name="A" unicode="A" horiz-adv-x="695" d="M147 186l-116-186h-82l456 708h70l147-708h-75l-38 186h-362zm277 442l-236-376h310z"/><glyph glyph-name="B" unicode="B" horiz-adv-x="620" d="M40 0l125 708h204q84 0 145-38t61-117q0-69-42-116t-114-65v-2q59-9 95.5-49.5t36.5-101.5q0-105-82.5-162t-219.5-57h-209zm185 647l-44-249h145q68 0 121 34t53 106q0 55-41 82t-109 27h-125zm-54-308l-49-278h134q96 0 159 39t63 122q0 55-42 86t-118 31h-147z"/><glyph glyph-name="C" unicode="C" horiz-adv-x="720" d="M606 150l53-38q-103-130-283-130-142 0-230 84t-88 220q0 184 123.5 312t299.5 128q78 0 143-30.5t95-82.5l-65-43q-18 39-64 66.5t-111 27.5q-98 0-178.5-53.5t-123.5-138-43-179.5q0-108 65.5-178.5t180.5-70.5q137 0 226 106z"/><glyph glyph-name="D" unicode="D" horiz-adv-x="757" d="M40 0l125 708h214q62 0 119-17t105-51 77-93 29-135q0-185-122-298.5t-310-113.5h-237zm185 645l-103-582h160q110 0 192 50t120.5 126 38.5 165q0 106-68 173.5t-202 67.5h-138z"/><glyph glyph-name="E" unicode="E" horiz-adv-x="580" d="M171 338l-49-275h380l-11-63h-451l125 708h425l-11-63h-354l-43-246h338l-11-61h-338z"/><glyph glyph-name="F" unicode="F" horiz-adv-x="550" d="M171 337l-60-337h-71l125 708h417l-11-63h-346l-44-247h321l-10-61h-321z"/><glyph glyph-name="G" unicode="G" horiz-adv-x="770" d="M380 44q122 0 201 48l38 217h-167l11 61h237l-56-319q-120-69-268-69-142 0-230 84t-88 220q0 184 123.5 312t299.5 128q78 0 143-30.5t95-82.5l-65-43q-18 39-64 66.5t-111 27.5q-98 0-178.5-53.5t-123.5-138-43-179.5q0-108 65.5-178.5t180.5-70.5z"/><glyph glyph-name="H" unicode="H" horiz-adv-x="708" d="M40 0l125 708h71l-55-308h377l55 308h71l-125-708h-71l59 336h-377l-59-336h-71z"/><glyph glyph-name="I" unicode="I" horiz-adv-x="260" d="M236 708l-125-708h-71l125 708h71z"/><glyph glyph-name="J" unicode="J" horiz-adv-x="482" d="M-10 120l63 20q7-42 34.5-69t72.5-27q37 0 63.5 13t42.5 38.5 24.5 51 14.5 62.5l88 499h71l-89-504q-7-43-18-75t-33-69-62.5-57.5-97.5-20.5q-75 0-120.5 39.5t-53.5 98.5z"/><glyph glyph-name="K" unicode="K" horiz-adv-x="585" d="M236 708l-56-318h1l360 318h104l-387-328 296-380h-93l-283 377h-1l-66-377h-71l125 708h71z"/><glyph glyph-name="L" unicode="L" horiz-adv-x="510" d="M236 708l-115-645h331l-10-63h-402l125 708h71z"/><glyph glyph-name="M" unicode="M" horiz-adv-x="886" d="M273 708l134-586h1l343 586h109l-125-708h-71l108 612h-2l-364-612h-38l-148 612h-2l-108-612h-70l125 708h108z"/><glyph glyph-name="N" unicode="N" horiz-adv-x="750" d="M255 708l291-607h2l107 607h71l-125-708h-89l-290 615h-2l-108-615h-71l125 708h89z"/><glyph glyph-name="O" unicode="O" horiz-adv-x="834" d="M373-18q-139 0-227 84t-88 220q0 184 119.5 312t293.5 128q139 0 227-83.5t88-218.5q0-184-118-313t-295-129zm337 435q0 107-64.5 177t-177.5 70q-97 0-175-54t-118.5-138.5-40.5-179.5q0-107 64-177.5t178-70.5q144 0 239 111.5t95 261.5z"/><glyph glyph-name="P" unicode="P" horiz-adv-x="580" d="M40 0l125 708h189q103 0 160.5-45t57.5-125q0-101-73.5-155t-195.5-54h-134l-58-329h-71zm185 647l-46-259h130q90 0 140.5 36.5t50.5 105.5q0 117-152 117h-123z"/><glyph glyph-name="Q" unicode="Q" horiz-adv-x="836" d="M709 411q0 111-65 182t-179 71q-97 0-174-53t-117-134.5-40-172.5q0-114 69.5-178.5t190.5-64.5q125 0 220 104t95 246zm76 13q0-124-60.5-219.5t-154.5-139.5l-1-2h207l-11-63h-375q-144 0-237 75.5t-93 218.5q0 181 117 306.5t291 125.5q139 0 228-83.5t89-218.5z"/><glyph glyph-name="R" unicode="R" horiz-adv-x="599" d="M169 331l-58-331h-71l125 708h191q98 0 158.5-43t60.5-126q0-93-57-142.5t-151-59.5l156-337h-81l-148 331h-125zm56 316l-45-256h126q197 0 197 140 0 57-41.5 86.5t-116.5 29.5h-120z"/><glyph glyph-name="S" unicode="S" horiz-adv-x="564" d="M552 642l-61-44q-45 66-139 66-69 0-121.5-37t-52.5-105q0-50 32.5-78t96.5-52q38-15 64.5-28t55.5-35 44-53 15-69q0-39-13.5-76t-41.5-72-80-56-121-21q-67 0-127 27.5t-90 77.5l64 41q21-37 62-60.5t94-23.5q75 0 126.5 41.5t51.5 108.5q0 55-37.5 84.5t-110.5 56.5-116 67.5-43 110.5q0 93 67.5 153t184.5 60q69 0 120.5-23t75.5-61z"/><glyph glyph-name="T" unicode="T" horiz-adv-x="547" d="M364 645l-114-645h-71l114 645h-237l11 63h546l-11-63h-238z"/><glyph glyph-name="U" unicode="U" horiz-adv-x="710" d="M311-18q-119 0-176.5 63t-57.5 152q0 36 6 67l78 444h71l-77-436q-6-32-6-61 0-74 39.5-120.5t126.5-46.5q187 0 227 228l77 436h71l-78-444q-7-39-19-75t-35.5-75-55.5-67-81.5-46.5-109.5-18.5z"/><glyph glyph-name="V" unicode="V" horiz-adv-x="600" d="M153 708l92-615h2l360 615h79l-421-708h-74l-114 708h76z"/><glyph glyph-name="W" unicode="W" horiz-adv-x="960" d="M161 708l57-609h2l295 609h86l59-609h2l291 609h76l-345-708h-84l-57 610h-2l-299-610h-84l-73 708h76z"/><glyph glyph-name="X" unicode="X" horiz-adv-x="618" d="M187 708l136-286 251 286h94l-309-344 182-364h-86l-149 313-273-313h-98l335 372-169 336h86z"/><glyph glyph-name="Y" unicode="Y" horiz-adv-x="557" d="M301 305l-54-305h-71l54 305-180 403h84l141-344 283 344h89z"/><glyph glyph-name="Z" unicode="Z" horiz-adv-x="572" d="M608 708l-11-60-518-585h419l-11-63h-512l11 60 519 585h-398l11 63h490z"/><glyph glyph-name="bracketleft" unicode="[" horiz-adv-x="300" d="M295 732l-9-54h-96l-138-780h96l-10-54h-162l157 888h162z"/><glyph glyph-name="backslash" unicode="\" horiz-adv-x="370" d="M307-18l-302 724 57 20 303-725z"/><glyph glyph-name="bracketright" unicode="]" horiz-adv-x="300" d="M-2-156l10 54h96l138 780h-96l9 54h162l-157-888h-162z"/><glyph glyph-name="asciicircum" unicode="^" horiz-adv-x="666" d="M80 275l229 433h48l229-433h-62l-191 361-191-361h-62z"/><glyph glyph-name="underscore" unicode="_" horiz-adv-x="500" d="M0-125v50h500v-50h-500z"/><glyph glyph-name="grave" unicode="`" d="M155 564l-132 144h88l100-144h-56z"/><glyph glyph-name="a" unicode="a" horiz-adv-x="534" d="M383 287q5 29 5 44 0 93-110 93-81 0-146-56l-30 45q34 30 84 48.5t99 18.5q72 0 119-34t47-101q0-24-4-50l-34-190q-11-66-11-105h-60q0 38 6 76h-2q-40-46-81-65.5t-100-19.5q-56 0-99 29.5t-43 91.5q0 43 21.5 75.5t55 51 83 30 96.5 15 104 3.5zm-9-51h-16q-265 0-265-116 0-75 96-75 70 0 118 43.5t60 108.5z"/><glyph glyph-name="b" unicode="b" horiz-adv-x="628" d="M122 79h-2l-14-79h-67l134 756h67l-65-364h2q24 37 71 62.5t101 25.5q95 0 153-56t58-146q0-121-79-205.5t-196-84.5q-52 0-97.5 24t-65.5 67zm368 195q0 65-39 107.5t-108 42.5q-87 0-147.5-67t-60.5-161q0-67 41.5-109t109.5-42q91 0 147.5 66t56.5 163z"/><glyph glyph-name="c" unicode="c" horiz-adv-x="500" d="M485 401l-59-39q-12 28-41.5 45t-67.5 17q-89 0-148-67t-59-162q0-66 40.5-108t110.5-42q82 0 138 61l43-37q-79-81-186-81-99 0-158 55t-59 146q0 123 78 207t202 84q54 0 99-20t67-59z"/><glyph glyph-name="d" unicode="d" horiz-adv-x="622" d="M34 190q0 121 79 205.5t196 84.5q52 0 96.5-24t66.5-67h2l65 367h67l-134-756h-67l14 77h-2q-24-38-71-63.5t-101-25.5q-95 0-153 56t-58 146zm70 5q0-65 39-107.5t108-42.5q87 0 147.5 67t60.5 161q0 67-41.5 109t-109.5 42q-91 0-147.5-66t-56.5-163z"/><glyph glyph-name="e" unicode="e" horiz-adv-x="566" d="M491 216h-387q-2-16-2-22 0-65 43.5-107t107.5-42q101 0 162 82l42-40q-82-99-210-99-93 0-153 55t-60 151q0 115 79 200.5t192 85.5q93 0 144-50t51-133q0-46-9-81zm-378 50h318q2 20 2 35 0 56-34 89.5t-96 33.5q-71 0-122.5-45.5t-67.5-112.5z"/><glyph glyph-name="f" unicode="f" horiz-adv-x="295" d="M317 468l-11-56h-110l-72-412h-67l72 412h-99l11 56h97l22 127q13 77 56.5 125t118.5 48q30 0 55-7l-16-59q-21 6-47 6-45 0-68-31.5t-33-88.5l-21-120h112z"/><glyph glyph-name="g" unicode="g" horiz-adv-x="627" d="M-4-146l45 48q25-37 71.5-60t98.5-23q170 0 205 185l17 89h-2q-66-93-178-93-94 0-151 58t-57 147q0 115 78 195t195 80q53 0 98-24.5t64-68.5h2l15 81h66l-82-464q-6-36-15-65t-28.5-64.5-47-59-74-39.5-105.5-16q-68 0-124.5 25t-90.5 69zm118 350q0-63 40-105.5t110-42.5q89 0 146.5 64t57.5 154q0 64-41.5 107t-109.5 43q-90 0-146.5-60.5t-56.5-159.5z"/><glyph glyph-name="h" unicode="h" horiz-adv-x="577" d="M332 480q75 0 117.5-38.5t42.5-104.5q0-20-5-50l-51-287h-67l46 259q6 32 6 59 0 106-106 106-58 0-106-47.5t-64-136.5l-42-240h-67l133 756h67l-64-365h2q27 41 69 65t89 24z"/><glyph glyph-name="i" unicode="i" horiz-adv-x="250" d="M187 468l-83-468h-67l83 468h67zm40 181q0-20-14-34t-33-14-32.5 12.5-13.5 32.5q0 21 14.5 35t33.5 14 32-12.5 13-33.5z"/><glyph glyph-name="j" unicode="j" horiz-adv-x="251" d="M-113-233l14 57q18-6 42-6 39 0 55 24t26 76l97 550h67l-99-561q-12-68-43-107.5t-103-39.5q-34 0-56 7zm340 882q0-20-14-34t-33-14-32.5 12.5-13.5 32.5q0 21 14.5 35t33.5 14 32-12.5 13-33.5z"/><glyph glyph-name="k" unicode="k" horiz-adv-x="487" d="M238 756l-88-499h3l239 211h93l-257-217 214-251h-88l-203 246h-3l-42-246h-68l133 756h67z"/><glyph glyph-name="l" unicode="l" horiz-adv-x="252" d="M239 756l-133-756h-68l133 756h68z"/><glyph glyph-name="m" unicode="m" horiz-adv-x="874" d="M628 480q75 0 118-38.5t43-104.5q0-20-5-50l-51-287h-67l46 259q6 31 6 59 0 106-104 106-124 0-154-175l-44-249h-67l49 272q6 33 6 61 0 91-93 91-54 0-102.5-48t-63.5-136l-42-240h-67l64 365q10 50 15 103h64q-7-63-11-80h2q61 92 162 92 111 0 131-99 57 99 165 99z"/><glyph glyph-name="n" unicode="n" horiz-adv-x="577" d="M115 468h65q-7-63-11-80h2q27 43 70 67.5t90 24.5q75 0 118-38.5t43-104.5q0-20-5-50l-51-287h-67l46 259q6 32 6 59 0 106-104 106-58 0-107-47.5t-65-136.5l-42-240h-67l64 365q10 50 15 103z"/><glyph glyph-name="o" unicode="o" horiz-adv-x="596" d="M250-12q-95 0-155.5 56.5t-60.5 146.5q0 120 79 204.5t199 84.5q95 0 155.5-56t60.5-146q0-122-78.5-206t-199.5-84zm208 286q0 65-40.5 107.5t-109.5 42.5q-86 0-144.5-67.5t-58.5-161.5q0-66 40.5-108t108.5-42q88 0 146 67t58 162z"/><glyph glyph-name="p" unicode="p" horiz-adv-x="628" d="M177 392q24 37 71 62.5t101 25.5q95 0 153-56t58-146q0-121-79-205.5t-196-84.5q-52 0-96.5 24t-66.5 67h-2l-57-319h-67l126 708h67l-14-76h2zm313-118q0 65-39 107.5t-108 42.5q-87 0-147.5-67t-60.5-161q0-67 41.5-109t109.5-42q91 0 147.5 66t56.5 163z"/><glyph glyph-name="q" unicode="q" horiz-adv-x="620" d="M34 190q0 121 79 205.5t196 84.5q52 0 96.5-24t66.5-67h2l14 79h67l-125-708h-67l56 316h-2q-24-37-71-62.5t-101-25.5q-95 0-153 56t-58 146zm70 5q0-65 39-107.5t108-42.5q87 0 147.5 67t60.5 161q0 67-41.5 109t-109.5 42q-91 0-147.5-66t-56.5-163z"/><glyph glyph-name="r" unicode="r" horiz-adv-x="348" d="M100 365q10 50 15 103h64q-7-63-11-80h2q26 42 67 67t89 25q26 0 44-5l-16-64q-14 6-46 6-58 0-102.5-44t-60.5-133l-42-240h-67z"/><glyph glyph-name="s" unicode="s" horiz-adv-x="444" d="M407 403l-53-38q-30 59-109 59-43 0-77-19t-34-57q0-34 21-49t72-30q72-20 106.5-52t34.5-85q0-71-55.5-107.5t-125.5-36.5q-61 0-112 22.5t-79 66.5l58 38q17-30 52.5-50t77.5-20q48 0 82.5 20t34.5 60q0 35-26.5 54.5t-87.5 39.5q-54 17-86 44.5t-32 79.5q0 67 54.5 102t125.5 35q54 0 96.5-21t61.5-56z"/><glyph glyph-name="t" unicode="t" horiz-adv-x="307" d="M314 468l-11-56h-127l-49-274q-3-18-3-32 0-55 58-55 37 0 57 15l-8-58q-26-14-77-14-41 0-70.5 21t-29.5 72q0 14 3 32l52 293h-97l11 56h95l23 132h67l-23-132h129z"/><glyph glyph-name="u" unicode="u" horiz-adv-x="577" d="M429 0h-65q8 62 11 80h-2q-27-43-70-67.5t-90-24.5q-75 0-118 38.5t-43 104.5q0 20 5 50l51 287h67l-46-259q-6-31-6-59 0-105 104-105 58 0 107 47t65 136l42 240h67l-64-365q-10-50-15-103z"/><glyph glyph-name="v" unicode="v" horiz-adv-x="478" d="M487 468l-282-468h-72l-98 468h69l75-396h2l233 396h73z"/><glyph glyph-name="w" unicode="w" horiz-adv-x="733" d="M52 468h70l32-380h2l198 380h64l55-380h3l187 380h72l-239-468h-72l-53 379h-2l-195-379h-71z"/><glyph glyph-name="x" unicode="x" horiz-adv-x="475" d="M393 0h-78l-100 199-187-199h-83l240 247-117 221h72l91-184 171 184h81l-222-229z"/><glyph glyph-name="y" unicode="y" horiz-adv-x="483" d="M114 468l75-394h2l228 394h75l-354-589q-37-60-72-89.5t-83-29.5q-29 0-57 6l10 62q22-8 44-8 30 0 53.5 20.5t48.5 62.5l58 98-98 467h70z"/><glyph glyph-name="z" unicode="z" horiz-adv-x="442" d="M430 468l-9-48-344-361h290l-10-59h-380l8 48 343 363h-265l11 57h356z"/><glyph glyph-name="braceleft" unicode="{" horiz-adv-x="300" d="M-9 258l11 60q78 0 99 111l31 178q23 125 130 125h63l-9-54h-48q-57 0-72-83l-31-178q-12-63-47.5-93.5t-64.5-34.5v-2q13-2 27-10t28-31 14-55q0-14-3-32l-31-178q-3-15-3-32 0-51 45-51h48l-10-54h-63q-89 0-89 88 0 9 4 37l31 178q3 19 3 36 0 75-63 75z"/><glyph glyph-name="bar" unicode="|" horiz-adv-x="222" d="M81 750h60v-1000h-60v1000z"/><glyph glyph-name="braceright" unicode="}" horiz-adv-x="300" d="M291 258q-39 0-64-29t-34-82l-31-178q-12-66-47.5-95.5t-83.5-29.5h-63l10 54h48q57 0 72 83l31 178q11 63 47 93.5t65 34.5v2q-23 3-46 26t-23 69q0 15 3 33l31 178q3 15 3 32 0 51-45 51h-48l9 54h63q90 0 90-88 0-11-4-37l-31-178q-4-19-4-38 0-73 63-73z"/><glyph glyph-name="asciitilde" unicode="~" horiz-adv-x="666" d="M535 368l42-40q-60-93-136-93-55 0-111 36-63 40-103 40-56 0-96-73l-42 40q19 27 34.5 44t43.5 33 58 16q57 0 110-35 64-41 103-41 53 0 97 73z"/><glyph glyph-name="uni00A0" horiz-adv-x="250"/><glyph glyph-name="exclamdown" unicode="¡" horiz-adv-x="278" d="M6-228l91 516h72l-91-516h-72zm93 659q0 22 16 38.5t38 16.5 37.5-14.5 15.5-37.5q0-24-16.5-40t-38.5-16-37 14.5-15 38.5z"/><glyph glyph-name="cent" unicode="¢" horiz-adv-x="580" d="M242-8q-78 13-123 65.5t-45 131.5q0 115 70 197.5t184 92.5l11 61h48l-11-61q105-9 144-78l-59-39q-11 24-36.5 41t-57.5 20l-67-378q80 1 134 61l43-37q-79-81-187-81l-11-60h-48zm12 58l65 372q-77-10-125.5-75.5t-48.5-151.5q0-56 28.5-95.5t80.5-49.5z"/><glyph glyph-name="sterling" unicode="£" horiz-adv-x="580" d="M417 395l-11-58h-168l-48-278h263l-11-59h-436l11 59h102l48 278h-96l11 58h94l16 93q45 238 229 238 92 0 144-55l-43-51q-37 46-103 46-34 0-61-13.5t-42.5-32-27.5-47-16.5-47-9.5-44.5l-15-87h170z"/><glyph glyph-name="currency" unicode="¤" horiz-adv-x="860" d="M636 468q51-67 51-159 0-96-55-164 15-16 46.5-47t47.5-46q-7-7-21-21.5t-22-22.5q-11 11-30 30.5t-35 35-30 29.5q-67-51-157-51t-158 53l-97-97q-28 30-43 44l96 96q-53 64-53 161 0 91 50 157-31 30-93 92 15 14 44 43l92-92q70 55 162 55 93 0 160-54 14 13 29 28.5t33.5 34l28.5 28.5q15-14 44-43zm-205 28q-81 0-131.5-54t-50.5-133q0-80 50.5-134.5t131.5-54.5 131.5 54.5 50.5 134.5q0 79-50.5 133t-131.5 54z"/><glyph glyph-name="yen" unicode="¥" horiz-adv-x="580" d="M76 223h165l20 107h-165l8 52h153l-159 326h77l134-300 236 300h86l-272-326h143l-8-52h-167l-20-107h167l-8-52h-167l-31-171h-66l31 171h-165z"/><glyph glyph-name="brokenbar" unicode="¦" horiz-adv-x="222" d="M81 675h60v-350h-60v350zm0-500h60v-350h-60v350z"/><glyph glyph-name="section" unicode="§" horiz-adv-x="580" d="M317 378l-60 26q-38-4-72.5-31t-34.5-72q0-37 21-58t70-41l61-25q37 7 65.5 35.5t28.5 68.5q0 63-79 97zm-116 63q-54 33-54 100 0 76 52.5 127.5t149.5 51.5q58 0 101.5-21t62.5-55l-57-41q-34 56-108 56-65 0-97-31t-32-77q0-38 22-60t78-45q80-33 114.5-67.5t34.5-85.5q0-111-113-155 44-41 44-97 0-79-57.5-129t-148.5-50q-59 0-108.5 29t-72.5 73l59 42q17-40 52-61.5t71-21.5q59 0 96 29t37 82q0 36-21.5 58.5t-78.5 44.5q-81 30-115.5 65t-34.5 89q0 53 31 93t93 57z"/><glyph glyph-name="dieresis" unicode="¨" d="M128 649q0-20-14.5-35t-33.5-15q-20 0-34 13t-14 34 15 36 35 15 33-13.5 13-34.5zm198 0q0-20-14.5-35t-34.5-15-33.5 13-13.5 34 14.5 36 34.5 15 33.5-13.5 13.5-34.5z"/><glyph glyph-name="copyright" unicode="©" horiz-adv-x="800" d="M580 224l-52 34q-45-65-118-65-71 0-114 48.5t-43 117.5q0 68 44 116.5t115 48.5q33 0 63-17.5t45-41.5l52 40q-24 36-68.5 57.5t-93.5 21.5q-98 0-162-64t-64-161q0-98 64-162t162-64q56 0 100 25.5t70 65.5zm-560 129q0-156 111.5-265.5t269.5-109.5q157 0 268 109.5t111 265.5q0 157-111 267t-268 110q-158 0-269.5-110t-111.5-267zm60 0q0 133 94 227t227 94q132 0 225.5-94t93.5-227q0-132-93.5-225.5t-225.5-93.5q-133 0-227 93.5t-94 225.5z"/><glyph glyph-name="ordfeminine" unicode="ª" horiz-adv-x="350" d="M292 607q2 14 2 22 0 49-61 49-45 0-85-34l-22 35q20 18 53.5 30t62.5 12q44 0 73.5-20.5t29.5-61.5q0-14-2-30l-21-114q-6-44-6-63h-43q0 16 4 46h-1q-39-53-105-53-36 0-65.5 18.5t-29.5 58.5q0 34 18.5 56t53 32 67 13.5 77.5 3.5zm-6-38h-10q-145 0-145-62 0-40 54-40 38 0 64 23t33 59z"/><glyph glyph-name="guillemotleft" unicode="«" horiz-adv-x="496" d="M117 235l85-171-50-33-106 209 177 209 41-37zm181 0l85-171-50-33-106 209 177 209 41-37z"/><glyph glyph-name="logicalnot" unicode="¬" horiz-adv-x="666" d="M588 408v-278h-60v218h-450v60h510z"/><glyph glyph-name="uni00AD" unicode="­" horiz-adv-x="320" d="M266 271l-10-57h-224l10 57h224z"/><glyph glyph-name="registered" unicode="®" horiz-adv-x="600" d="M112 493q0 94 66.5 160.5t161.5 66.5 161.5-66.5 66.5-160.5-66.5-159.5-161.5-65.5-161.5 65.5-66.5 159.5zm36 0q0-79 56.5-135.5t135.5-56.5 135.5 56.5 56.5 135.5-56 135.5-136 56.5-136-56.5-56-135.5zm103-127v256h90q40 0 67.5-18.5t27.5-56.5q0-56-59-69l69-112h-56l-60 107h-33v-107h-46zm46 144h37q56 0 56 38 0 35-51 35h-42v-73z"/><glyph glyph-name="macron" unicode="¯" d="M316 654l-9-54h-270l9 54h270z"/><glyph glyph-name="degree" unicode="°" horiz-adv-x="400" d="M399 571q0-65-42.5-107t-106.5-42-106.5 42-42.5 107 42.5 107 106.5 42 106.5-42 42.5-107zm-48 0q0 42-29.5 71.5t-71.5 29.5-71.5-29.5-29.5-71.5 29.5-71.5 71.5-29.5 71.5 29.5 29.5 71.5z"/><glyph glyph-name="plusminus" unicode="±" horiz-adv-x="666" d="M78 347v60h225v156h60v-156h225v-60h-225v-151h-60v151h-225zm0-299v60h510v-60h-510z"/><glyph glyph-name="twosuperior" unicode="²" horiz-adv-x="370" d="M125 344h214l-11-54h-281l10 60 187 157q67 56 67 100 0 27-18.5 43t-50.5 16q-58 0-81-70l-55 15q16 49 54 78t86 29q58 0 90-30t32-78q0-43-22-72.5t-75-73.5z"/><glyph glyph-name="threesuperior" unicode="³" horiz-adv-x="370" d="M195 535q103 0 103 76 0 26-17 41t-45 15q-51 0-79-50l-46 29q43 74 132 74 51 0 83-28.5t32-77.5q0-43-25-69.5t-62-35.5q30-7 49-32t19-56q0-64-41.5-100.5t-107.5-36.5q-51 0-86.5 24t-49.5 68l60 18q15-56 77-56 41 0 64.5 21t23.5 56q0 70-95 70h-19l9 50h21z"/><glyph glyph-name="acute" unicode="´" d="M318 708l-158-144h-56l126 144h88z"/><glyph glyph-name="mu" unicode="µ" horiz-adv-x="556" d="M72-228v696h66v-259q0-88 28-124.5t99-36.5q62 0 102 48t40 132v240h66v-365q0-18 5-103h-71v76h-2q-22-36-67-62t-90-26q-69 0-110 29v-245h-66z"/><glyph glyph-name="paragraph" unicode="¶" horiz-adv-x="600" d="M584 708l-147-834h-66l137 780h-124l-137-780h-66l78 442q-81 0-130 43.5t-49 110.5q0 101 75 169.5t192 68.5h237z"/><glyph glyph-name="periodcentered" unicode="·" horiz-adv-x="260" d="M184 315q0-22-16-38.5t-38-16.5-37.5 14.5-15.5 37.5q0 24 16.5 40t38.5 16 37-14.5 15-38.5z"/><glyph glyph-name="cedilla" unicode="¸" d="M102 0l-60-75q13 4 31 4 29 0 51.5-16.5t22.5-50.5q0-46-37-69t-83-23q-57 0-97 20l19 36q29-14 74-14 26 0 46 11t20 34q0 38-50 38-22 0-44-8l-15 15 79 98h43z"/><glyph glyph-name="onesuperior" unicode="¹" horiz-adv-x="370" d="M303 708l-75-422h-61l61 346-74-57-30 41 128 92h51z"/><glyph glyph-name="ordmasculine" unicode="º" horiz-adv-x="350" d="M199 424q-59 0-96 34t-37 88q0 72 49 123t122 51q59 0 96.5-33.5t37.5-87.5q0-73-48.5-124t-123.5-51zm117 170q0 35-22.5 58.5t-59.5 23.5q-48 0-80-37t-32-88q0-36 22-59t59-23q49 0 81 37t32 88z"/><glyph glyph-name="guillemotright" unicode="»" horiz-adv-x="496" d="M358 245l-85 171 50 33 106-209-177-209-41 37zm-181 0l-85 171 50 33 106-209-177-209-41 37z"/><glyph glyph-name="onequarter" unicode="¼" horiz-adv-x="840" d="M743 422l-47-270h66l-10-54h-63l-17-98h-55l17 98h-191l9 52 223 272h68zm-69-82h-3l-155-188h125zm-371 368l-75-422h-61l61 346-74-57-30 41 128 92h51zm433 4l-581-743-45 27 582 743z"/><glyph glyph-name="onehalf" unicode="½" horiz-adv-x="840" d="M736 712l-581-743-45 27 582 743zm-433-4l-75-422h-61l61 346-74-57-30 41 128 92h51zm236-654h214l-11-54h-281l10 60 187 157q67 56 67 100 0 27-18.5 43t-50.5 16q-58 0-81-70l-55 15q16 49 54 78t86 29q58 0 90-30t32-78q0-43-22-72.5t-75-73.5z"/><glyph glyph-name="threequarters" unicode="¾" horiz-adv-x="840" d="M743 422l-47-270h66l-10-54h-63l-17-98h-55l17 98h-191l9 52 223 272h68zm-69-82h-3l-155-188h125zm-479 195q103 0 103 76 0 26-17 41t-45 15q-51 0-79-50l-46 29q43 74 132 74 51 0 83-28.5t32-77.5q0-43-25-69.5t-62-35.5q30-7 49-32t19-56q0-64-41.5-100.5t-107.5-36.5q-51 0-86.5 24t-49.5 68l60 18q15-56 77-56 41 0 64.5 21t23.5 56q0 70-95 70h-19l9 50h21zm541 177l-581-743-45 27 582 743z"/><glyph glyph-name="questiondown" unicode="¿" horiz-adv-x="482" d="M197 248l6 40h68l-10-60q-9-51-35-84.5t-70-67.5l-33-25q-42-32-60.5-59.5t-18.5-70.5q0-45 29-72t75-27q57 0 96 33t51 84l65-12q-19-77-77.5-122t-136.5-45q-77 0-125.5 40.5t-48.5 118.5q0 56 31 98.5t89 83.5q52 37 74.5 66.5t30.5 80.5zm-2 183q0 22 16 38.5t38 16.5 37.5-14.5 15.5-37.5q0-24-16.5-40t-38.5-16-37 14.5-15 38.5z"/><glyph glyph-name="Agrave" unicode="À" horiz-adv-x="695" d="M147 186l-116-186h-82l456 708h70l147-708h-75l-38 186h-362zm277 442l-236-376h310zm-6 136l-132 144h88l100-144h-56z"/><glyph glyph-name="Aacute" unicode="Á" horiz-adv-x="695" d="M147 186l-116-186h-82l456 708h70l147-708h-75l-38 186h-362zm277 442l-236-376h310zm194 280l-158-144h-56l126 144h88z"/><glyph glyph-name="Acircumflex" unicode="Â" horiz-adv-x="695" d="M147 186l-116-186h-82l456 708h70l147-708h-75l-38 186h-362zm277 442l-236-376h310zm88 280l83-144h-63l-64 108-102-108h-69l135 144h80z"/><glyph glyph-name="Atilde" unicode="Ã" horiz-adv-x="695" d="M147 186l-116-186h-82l456 708h70l147-708h-75l-38 186h-362zm277 442l-236-376h310zm-91 148h-43q36 104 110 104 27 0 69-23 46-23 63-23 36 0 58 50h43q-38-104-111-104-23 0-69 23-40 23-63 23-37 0-57-50z"/><glyph glyph-name="Adieresis" unicode="Ä" horiz-adv-x="695" d="M147 186l-116-186h-82l456 708h70l147-708h-75l-38 186h-362zm277 442l-236-376h310zm-14 221q0-20-14.5-35t-33.5-15q-20 0-34 13t-14 34 15 36 35 15 33-13.5 13-34.5zm198 0q0-20-14.5-35t-34.5-15-33.5 13-13.5 34 14.5 36 34.5 15 33.5-13.5 13.5-34.5z"/><glyph glyph-name="Aring" unicode="Å" horiz-adv-x="695" d="M147 186l-116-186h-82l456 708h70l147-708h-75l-38 186h-362zm277 442l-236-376h310zm27 126q-37 0-61 22t-24 57q0 47 31 80t77 33q38 0 61.5-22t23.5-57q0-47-30.5-80t-77.5-33zm74 111q0 22-14.5 37t-38.5 15q-30 0-50.5-24t-20.5-57q0-23 14-37.5t38-14.5q31 0 51.5 23.5t20.5 57.5z"/><glyph glyph-name="AE" unicode="Æ" horiz-adv-x="990" d="M889 0h-424l35 200h-291l-163-200h-89l586 708h445l-11-63h-328l-43-246h312l-11-61h-312l-49-275h354zm-633 261h255l68 384h-8z"/><glyph glyph-name="Ccedilla" unicode="Ç" horiz-adv-x="720" d="M606 150l53-38q-97-122-265-129l-46-58q13 4 31 4 29 0 51.5-16.5t22.5-50.5q0-46-37-69t-83-23q-57 0-97 20l19 36q29-14 74-14 26 0 46 11t20 34q0 38-50 38-22 0-44-8l-15 15 65 81q-132 8-212.5 91t-80.5 212q0 184 123.5 312t299.5 128q78 0 143-30.5t95-82.5l-65-43q-18 39-64 66.5t-111 27.5q-98 0-178.5-53.5t-123.5-138-43-179.5q0-108 65.5-178.5t180.5-70.5q137 0 226 106z"/><glyph glyph-name="Egrave" unicode="È" horiz-adv-x="580" d="M171 338l-49-275h380l-11-63h-451l125 708h425l-11-63h-354l-43-246h338l-11-61h-338zm219 426l-132 144h88l100-144h-56z"/><glyph glyph-name="Eacute" unicode="É" horiz-adv-x="580" d="M171 338l-49-275h380l-11-63h-451l125 708h425l-11-63h-354l-43-246h338l-11-61h-338zm388 570l-158-144h-56l126 144h88z"/><glyph glyph-name="Ecircumflex" unicode="Ê" horiz-adv-x="580" d="M171 338l-49-275h380l-11-63h-451l125 708h425l-11-63h-354l-43-246h338l-11-61h-338zm281 570l83-144h-63l-64 108-102-108h-69l135 144h80z"/><glyph glyph-name="Edieresis" unicode="Ë" horiz-adv-x="580" d="M171 338l-49-275h380l-11-63h-451l125 708h425l-11-63h-354l-43-246h338l-11-61h-338zm177 511q0-20-14.5-35t-33.5-15q-20 0-34 13t-14 34 15 36 35 15 33-13.5 13-34.5zm198 0q0-20-14.5-35t-34.5-15-33.5 13-13.5 34 14.5 36 34.5 15 33.5-13.5 13.5-34.5z"/><glyph glyph-name="Igrave" unicode="Ì" horiz-adv-x="260" d="M236 708l-125-708h-71l125 708h71zm-54 56l-132 144h88l100-144h-56z"/><glyph glyph-name="Iacute" unicode="Í" horiz-adv-x="260" d="M236 708l-125-708h-71l125 708h71zm151 200l-158-144h-56l126 144h88z"/><glyph glyph-name="Icircumflex" unicode="Î" horiz-adv-x="260" d="M236 708l-125-708h-71l125 708h71zm38 200l83-144h-63l-64 108-102-108h-69l135 144h80z"/><glyph glyph-name="Idieresis" unicode="Ï" horiz-adv-x="260" d="M236 708l-125-708h-71l125 708h71zm-67 141q0-20-14.5-35t-33.5-15q-20 0-34 13t-14 34 15 36 35 15 33-13.5 13-34.5zm198 0q0-20-14.5-35t-34.5-15-33.5 13-13.5 34 14.5 36 34.5 15 33.5-13.5 13.5-34.5z"/><glyph glyph-name="Eth" unicode="Ð" horiz-adv-x="757" d="M101 347h-70l10 54h70l54 307h214q62 0 119-17t105-51 77-93 29-135q0-185-122-298.5t-310-113.5h-237zm81 54h251l-10-54h-251l-50-284h160q110 0 192 50t120.5 126 38.5 165q0 106-68 173.5t-202 67.5h-138z"/><glyph glyph-name="Ntilde" unicode="Ñ" horiz-adv-x="750" d="M255 708l291-607h2l107 607h71l-125-708h-89l-290 615h-2l-108-615h-71l125 708h89zm79 68h-43q36 104 110 104 27 0 69-23 46-23 63-23 36 0 58 50h43q-38-104-111-104-23 0-69 23-40 23-63 23-37 0-57-50z"/><glyph glyph-name="Ograve" unicode="Ò" horiz-adv-x="834" d="M373-18q-139 0-227 84t-88 220q0 184 119.5 312t293.5 128q139 0 227-83.5t88-218.5q0-184-118-313t-295-129zm337 435q0 107-64.5 177t-177.5 70q-97 0-175-54t-118.5-138.5-40.5-179.5q0-107 64-177.5t178-70.5q144 0 239 111.5t95 261.5zm-227 347l-132 144h88l100-144h-56z"/><glyph glyph-name="Oacute" unicode="Ó" horiz-adv-x="834" d="M373-18q-139 0-227 84t-88 220q0 184 119.5 312t293.5 128q139 0 227-83.5t88-218.5q0-184-118-313t-295-129zm337 435q0 107-64.5 177t-177.5 70q-97 0-175-54t-118.5-138.5-40.5-179.5q0-107 64-177.5t178-70.5q144 0 239 111.5t95 261.5zm-56 491l-158-144h-56l126 144h88z"/><glyph glyph-name="Ocircumflex" unicode="Ô" horiz-adv-x="834" d="M373-18q-139 0-227 84t-88 220q0 184 119.5 312t293.5 128q139 0 227-83.5t88-218.5q0-184-118-313t-295-129zm337 435q0 107-64.5 177t-177.5 70q-97 0-175-54t-118.5-138.5-40.5-179.5q0-107 64-177.5t178-70.5q144 0 239 111.5t95 261.5zm-149 491l83-144h-63l-64 108-102-108h-69l135 144h80z"/><glyph glyph-name="Otilde" unicode="Õ" horiz-adv-x="834" d="M373-18q-139 0-227 84t-88 220q0 184 119.5 312t293.5 128q139 0 227-83.5t88-218.5q0-184-118-313t-295-129zm337 435q0 107-64.5 177t-177.5 70q-97 0-175-54t-118.5-138.5-40.5-179.5q0-107 64-177.5t178-70.5q144 0 239 111.5t95 261.5zm-335 359h-43q36 104 110 104 27 0 69-23 46-23 63-23 36 0 58 50h43q-38-104-111-104-23 0-69 23-40 23-63 23-37 0-57-50z"/><glyph glyph-name="Odieresis" unicode="Ö" horiz-adv-x="834" d="M373-18q-139 0-227 84t-88 220q0 184 119.5 312t293.5 128q139 0 227-83.5t88-218.5q0-184-118-313t-295-129zm337 435q0 107-64.5 177t-177.5 70q-97 0-175-54t-118.5-138.5-40.5-179.5q0-107 64-177.5t178-70.5q144 0 239 111.5t95 261.5zm-255 432q0-20-14.5-35t-33.5-15q-20 0-34 13t-14 34 15 36 35 15 33-13.5 13-34.5zm198 0q0-20-14.5-35t-34.5-15-33.5 13-13.5 34 14.5 36 34.5 15 33.5-13.5 13.5-34.5z"/><glyph glyph-name="multiply" unicode="×" horiz-adv-x="666" d="M174 505l159-159 158 159 43-42-159-160 159-159-43-43-158 159-159-159-42 43 159 159-159 160z"/><glyph glyph-name="Oslash" unicode="Ø" horiz-adv-x="834" d="M735 608q58-77 58-184 0-184-121.5-313t-298.5-129q-141 0-228 85l-90-85-30 34 91 84q-58 78-58 186 0 183 122.5 311.5t297.5 128.5q138 0 227-84l90 84 30-34zm-55-50l-482-443q65-71 178-71 96 0 175 53t122.5 138.5 43.5 181.5q0 80-37 141zm-28 37q-66 69-177 69-146 0-243.5-112.5t-97.5-259.5q0-81 38-143z"/><glyph glyph-name="Ugrave" unicode="Ù" horiz-adv-x="710" d="M311-18q-119 0-176.5 63t-57.5 152q0 36 6 67l78 444h71l-77-436q-6-32-6-61 0-74 39.5-120.5t126.5-46.5q187 0 227 228l77 436h71l-78-444q-7-39-19-75t-35.5-75-55.5-67-81.5-46.5-109.5-18.5zm113 782l-132 144h88l100-144h-56z"/><glyph glyph-name="Uacute" unicode="Ú" horiz-adv-x="710" d="M311-18q-119 0-176.5 63t-57.5 152q0 36 6 67l78 444h71l-77-436q-6-32-6-61 0-74 39.5-120.5t126.5-46.5q187 0 227 228l77 436h71l-78-444q-7-39-19-75t-35.5-75-55.5-67-81.5-46.5-109.5-18.5zm285 926l-158-144h-56l126 144h88z"/><glyph glyph-name="Ucircumflex" unicode="Û" horiz-adv-x="710" d="M311-18q-119 0-176.5 63t-57.5 152q0 36 6 67l78 444h71l-77-436q-6-32-6-61 0-74 39.5-120.5t126.5-46.5q187 0 227 228l77 436h71l-78-444q-7-39-19-75t-35.5-75-55.5-67-81.5-46.5-109.5-18.5zm189 926l83-144h-63l-64 108-102-108h-69l135 144h80z"/><glyph glyph-name="Udieresis" unicode="Ü" horiz-adv-x="710" d="M311-18q-119 0-176.5 63t-57.5 152q0 36 6 67l78 444h71l-77-436q-6-32-6-61 0-74 39.5-120.5t126.5-46.5q187 0 227 228l77 436h71l-78-444q-7-39-19-75t-35.5-75-55.5-67-81.5-46.5-109.5-18.5zm84 867q0-20-14.5-35t-33.5-15q-20 0-34 13t-14 34 15 36 35 15 33-13.5 13-34.5zm198 0q0-20-14.5-35t-34.5-15-33.5 13-13.5 34 14.5 36 34.5 15 33.5-13.5 13.5-34.5z"/><glyph glyph-name="Yacute" unicode="Ý" horiz-adv-x="557" d="M301 305l-54-305h-71l54 305-180 403h84l141-344 283 344h89zm226 603l-158-144h-56l126 144h88z"/><glyph glyph-name="Thorn" unicode="Þ" horiz-adv-x="580" d="M143 174l-31-174h-71l125 708h71l-27-155h118q103 0 160.5-45t57.5-125q0-101-73.5-155t-195.5-54h-134zm56 318l-46-259h130q90 0 140.5 36.5t50.5 105.5q0 117-152 117h-123z"/><glyph glyph-name="germandbls" unicode="ß" horiz-adv-x="593" d="M192 542l-96-542h-66l96 544q7 43 22.5 79.5t41.5 70.5 69 54 98 20q83 0 132.5-45t49.5-117q0-65-40-111t-107-63v-2q63-13 100.5-62t37.5-117q0-121-77-192t-200-71q-37 0-62 5l10 57q24-4 51-4 39 0 74.5 10.5t66 33 48.5 63 18 95.5q0 67-45 109t-121 42h-9l11 60h8q70 0 118 37.5t48 102.5q0 53-31 81t-83 28q-40 0-71-15.5t-49-42-28-52.5-15-56z"/><glyph glyph-name="agrave" unicode="à" horiz-adv-x="534" d="M383 287q5 29 5 44 0 93-110 93-81 0-146-56l-30 45q34 30 84 48.5t99 18.5q72 0 119-34t47-101q0-24-4-50l-34-190q-11-66-11-105h-60q0 38 6 76h-2q-40-46-81-65.5t-100-19.5q-56 0-99 29.5t-43 91.5q0 43 21.5 75.5t55 51 83 30 96.5 15 104 3.5zm-9-51h-16q-265 0-265-116 0-75 96-75 70 0 118 43.5t60 108.5zm-73 328l-132 144h88l100-144h-56z"/><glyph glyph-name="aacute" unicode="á" horiz-adv-x="534" d="M383 287q5 29 5 44 0 93-110 93-81 0-146-56l-30 45q34 30 84 48.5t99 18.5q72 0 119-34t47-101q0-24-4-50l-34-190q-11-66-11-105h-60q0 38 6 76h-2q-40-46-81-65.5t-100-19.5q-56 0-99 29.5t-43 91.5q0 43 21.5 75.5t55 51 83 30 96.5 15 104 3.5zm-9-51h-16q-265 0-265-116 0-75 96-75 70 0 118 43.5t60 108.5zm98 472l-158-144h-56l126 144h88z"/><glyph glyph-name="acircumflex" unicode="â" horiz-adv-x="534" d="M383 287q5 29 5 44 0 93-110 93-81 0-146-56l-30 45q34 30 84 48.5t99 18.5q72 0 119-34t47-101q0-24-4-50l-34-190q-11-66-11-105h-60q0 38 6 76h-2q-40-46-81-65.5t-100-19.5q-56 0-99 29.5t-43 91.5q0 43 21.5 75.5t55 51 83 30 96.5 15 104 3.5zm-9-51h-16q-265 0-265-116 0-75 96-75 70 0 118 43.5t60 108.5zm5 472l83-144h-63l-64 108-102-108h-69l135 144h80z"/><glyph glyph-name="atilde" unicode="ã" horiz-adv-x="534" d="M383 287q5 29 5 44 0 93-110 93-81 0-146-56l-30 45q34 30 84 48.5t99 18.5q72 0 119-34t47-101q0-24-4-50l-34-190q-11-66-11-105h-60q0 38 6 76h-2q-40-46-81-65.5t-100-19.5q-56 0-99 29.5t-43 91.5q0 43 21.5 75.5t55 51 83 30 96.5 15 104 3.5zm-9-51h-16q-265 0-265-116 0-75 96-75 70 0 118 43.5t60 108.5zm-181 340h-43q36 104 110 104 27 0 69-23 46-23 63-23 36 0 58 50h43q-38-104-111-104-23 0-69 23-40 23-63 23-37 0-57-50z"/><glyph glyph-name="adieresis" unicode="ä" horiz-adv-x="534" d="M383 287q5 29 5 44 0 93-110 93-81 0-146-56l-30 45q34 30 84 48.5t99 18.5q72 0 119-34t47-101q0-24-4-50l-34-190q-11-66-11-105h-60q0 38 6 76h-2q-40-46-81-65.5t-100-19.5q-56 0-99 29.5t-43 91.5q0 43 21.5 75.5t55 51 83 30 96.5 15 104 3.5zm-9-51h-16q-265 0-265-116 0-75 96-75 70 0 118 43.5t60 108.5zm-101 413q0-20-14.5-35t-33.5-15q-20 0-34 13t-14 34 15 36 35 15 33-13.5 13-34.5zm198 0q0-20-14.5-35t-34.5-15-33.5 13-13.5 34 14.5 36 34.5 15 33.5-13.5 13.5-34.5z"/><glyph glyph-name="aring" unicode="å" horiz-adv-x="534" d="M383 287q5 29 5 44 0 93-110 93-81 0-146-56l-30 45q34 30 84 48.5t99 18.5q72 0 119-34t47-101q0-24-4-50l-34-190q-11-66-11-105h-60q0 38 6 76h-2q-40-46-81-65.5t-100-19.5q-56 0-99 29.5t-43 91.5q0 43 21.5 75.5t55 51 83 30 96.5 15 104 3.5zm-9-51h-16q-265 0-265-116 0-75 96-75 70 0 118 43.5t60 108.5zm-60 318q-37 0-61 22t-24 57q0 47 31 80t77 33q38 0 61.5-22t23.5-57q0-47-30.5-80t-77.5-33zm74 111q0 22-14.5 37t-38.5 15q-30 0-50.5-24t-20.5-57q0-23 14-37.5t38-14.5q31 0 51.5 23.5t20.5 57.5z"/><glyph glyph-name="ae" unicode="æ" horiz-adv-x="884" d="M442 389q27 39 78.5 65t102.5 26q93 0 144-50t51-133q0-46-9-81h-377q-2-16-2-22 0-66 39-107.5t102-41.5q101 0 162 82l42-40q-82-99-210-99-61 0-109.5 33.5t-66.5 84.5q-64-115-209-115-65 0-111 29t-46 92q0 34 14 59.5t40.5 42 58 27.5 75 16 81 7 86.5 2q10 46 10 65 0 93-110 93-81 0-146-56l-30 45q34 30 84 48.5t99 18.5q57 0 99-22.5t58-68.5zm-72-173h-16q-261 0-261-96 0-75 96-75 71 0 119 42.5t59 109.5zm71 50h308q2 20 2 35 0 56-34 89.5t-96 33.5q-67 0-115.5-45.5t-64.5-112.5z"/><glyph glyph-name="ccedilla" unicode="ç" horiz-adv-x="500" d="M485 401l-59-39q-12 28-41.5 45t-67.5 17q-89 0-148-67t-59-162q0-66 40.5-108t110.5-42q82 0 138 61l43-37q-75-77-176-81l-50-63q13 4 31 4 29 0 51.5-16.5t22.5-50.5q0-46-37-69t-83-23q-57 0-97 20l19 36q29-14 74-14 26 0 46 11t20 34q0 38-50 38-22 0-44-8l-15 15 70 88q-85 8-135 62t-50 137q0 123 78 207t202 84q54 0 99-20t67-59z"/><glyph glyph-name="egrave" unicode="è" horiz-adv-x="566" d="M491 216h-387q-2-16-2-22 0-65 43.5-107t107.5-42q101 0 162 82l42-40q-82-99-210-99-93 0-153 55t-60 151q0 115 79 200.5t192 85.5q93 0 144-50t51-133q0-46-9-81zm-378 50h318q2 20 2 35 0 56-34 89.5t-96 33.5q-71 0-122.5-45.5t-67.5-112.5zm192 298l-132 144h88l100-144h-56z"/><glyph glyph-name="eacute" unicode="é" horiz-adv-x="566" d="M491 216h-387q-2-16-2-22 0-65 43.5-107t107.5-42q101 0 162 82l42-40q-82-99-210-99-93 0-153 55t-60 151q0 115 79 200.5t192 85.5q93 0 144-50t51-133q0-46-9-81zm-378 50h318q2 20 2 35 0 56-34 89.5t-96 33.5q-71 0-122.5-45.5t-67.5-112.5zm369 442l-158-144h-56l126 144h88z"/><glyph glyph-name="ecircumflex" unicode="ê" horiz-adv-x="566" d="M491 216h-387q-2-16-2-22 0-65 43.5-107t107.5-42q101 0 162 82l42-40q-82-99-210-99-93 0-153 55t-60 151q0 115 79 200.5t192 85.5q93 0 144-50t51-133q0-46-9-81zm-378 50h318q2 20 2 35 0 56-34 89.5t-96 33.5q-71 0-122.5-45.5t-67.5-112.5zm287 442l83-144h-63l-64 108-102-108h-69l135 144h80z"/><glyph glyph-name="edieresis" unicode="ë" horiz-adv-x="566" d="M491 216h-387q-2-16-2-22 0-65 43.5-107t107.5-42q101 0 162 82l42-40q-82-99-210-99-93 0-153 55t-60 151q0 115 79 200.5t192 85.5q93 0 144-50t51-133q0-46-9-81zm-378 50h318q2 20 2 35 0 56-34 89.5t-96 33.5q-71 0-122.5-45.5t-67.5-112.5zm179 383q0-20-14.5-35t-33.5-15q-20 0-34 13t-14 34 15 36 35 15 33-13.5 13-34.5zm198 0q0-20-14.5-35t-34.5-15-33.5 13-13.5 34 14.5 36 34.5 15 33.5-13.5 13.5-34.5z"/><glyph glyph-name="igrave" unicode="ì" horiz-adv-x="250" d="M187 468l-83-468h-67l83 468h67zm-36 96l-132 144h88l100-144h-56z"/><glyph glyph-name="iacute" unicode="í" horiz-adv-x="250" d="M187 468l-83-468h-67l83 468h67zm159 240l-158-144h-56l126 144h88z"/><glyph glyph-name="icircumflex" unicode="î" horiz-adv-x="250" d="M187 468l-83-468h-67l83 468h67zm49 240l83-144h-63l-64 108-102-108h-69l135 144h80z"/><glyph glyph-name="idieresis" unicode="ï" horiz-adv-x="250" d="M187 468l-83-468h-67l83 468h67zm-58 181q0-20-14.5-35t-33.5-15q-20 0-34 13t-14 34 15 36 35 15 33-13.5 13-34.5zm198 0q0-20-14.5-35t-34.5-15-33.5 13-13.5 34 14.5 36 34.5 15 33.5-13.5 13.5-34.5z"/><glyph glyph-name="eth" unicode="ð" horiz-adv-x="596" d="M321 480q86 0 145-58l3 2q-36 120-121 206l-122-57-30 36 120 56q-21 24-86 76l61 37q51-43 86-82l111 53 34-35-113-54q132-145 132-335 0-63-15-120.5t-47-107.5-88.5-79.5-131.5-29.5q-95 0-155.5 56.5t-60.5 146.5q0 120 79 204.5t199 84.5zm146-206q0 65-40.5 107.5t-109.5 42.5q-86 0-144.5-67.5t-58.5-161.5q0-66 40.5-108t108.5-42q88 0 146 67t58 162z"/><glyph glyph-name="ntilde" unicode="ñ" horiz-adv-x="577" d="M115 468h65q-7-63-11-80h2q27 43 70 67.5t90 24.5q75 0 118-38.5t43-104.5q0-20-5-50l-51-287h-67l46 259q6 32 6 59 0 106-104 106-58 0-107-47.5t-65-136.5l-42-240h-67l64 365q10 50 15 103zm96 108h-43q36 104 110 104 27 0 69-23 46-23 63-23 36 0 58 50h43q-38-104-111-104-23 0-69 23-40 23-63 23-37 0-57-50z"/><glyph glyph-name="ograve" unicode="ò" horiz-adv-x="596" d="M250-12q-95 0-155.5 56.5t-60.5 146.5q0 120 79 204.5t199 84.5q95 0 155.5-56t60.5-146q0-122-78.5-206t-199.5-84zm208 286q0 65-40.5 107.5t-109.5 42.5q-86 0-144.5-67.5t-58.5-161.5q0-66 40.5-108t108.5-42q88 0 146 67t58 162zm-141 290l-132 144h88l100-144h-56z"/><glyph glyph-name="oacute" unicode="ó" horiz-adv-x="596" d="M250-12q-95 0-155.5 56.5t-60.5 146.5q0 120 79 204.5t199 84.5q95 0 155.5-56t60.5-146q0-122-78.5-206t-199.5-84zm208 286q0 65-40.5 107.5t-109.5 42.5q-86 0-144.5-67.5t-58.5-161.5q0-66 40.5-108t108.5-42q88 0 146 67t58 162zm38 434l-158-144h-56l126 144h88z"/><glyph glyph-name="ocircumflex" unicode="ô" horiz-adv-x="596" d="M250-12q-95 0-155.5 56.5t-60.5 146.5q0 120 79 204.5t199 84.5q95 0 155.5-56t60.5-146q0-122-78.5-206t-199.5-84zm208 286q0 65-40.5 107.5t-109.5 42.5q-86 0-144.5-67.5t-58.5-161.5q0-66 40.5-108t108.5-42q88 0 146 67t58 162zm-48 434l83-144h-63l-64 108-102-108h-69l135 144h80z"/><glyph glyph-name="otilde" unicode="õ" horiz-adv-x="596" d="M250-12q-95 0-155.5 56.5t-60.5 146.5q0 120 79 204.5t199 84.5q95 0 155.5-56t60.5-146q0-122-78.5-206t-199.5-84zm208 286q0 65-40.5 107.5t-109.5 42.5q-86 0-144.5-67.5t-58.5-161.5q0-66 40.5-108t108.5-42q88 0 146 67t58 162zm-241 302h-43q36 104 110 104 27 0 69-23 46-23 63-23 36 0 58 50h43q-38-104-111-104-23 0-69 23-40 23-63 23-37 0-57-50z"/><glyph glyph-name="odieresis" unicode="ö" horiz-adv-x="596" d="M250-12q-95 0-155.5 56.5t-60.5 146.5q0 120 79 204.5t199 84.5q95 0 155.5-56t60.5-146q0-122-78.5-206t-199.5-84zm208 286q0 65-40.5 107.5t-109.5 42.5q-86 0-144.5-67.5t-58.5-161.5q0-66 40.5-108t108.5-42q88 0 146 67t58 162zm-161 375q0-20-14.5-35t-33.5-15q-20 0-34 13t-14 34 15 36 35 15 33-13.5 13-34.5zm198 0q0-20-14.5-35t-34.5-15-33.5 13-13.5 34 14.5 36 34.5 15 33.5-13.5 13.5-34.5z"/><glyph glyph-name="divide" unicode="÷" horiz-adv-x="666" d="M588 333v-60h-510v60h510zm-201 132q0-22-15.5-38t-38.5-16-38.5 16-15.5 38 15.5 38 38.5 16 38.5-16 15.5-38zm0-324q0-22-15.5-38t-38.5-16-38.5 16-15.5 38 15.5 38 38.5 16 38.5-16 15.5-38z"/><glyph glyph-name="oslash" unicode="ø" horiz-adv-x="596" d="M491 397q37-49 37-119 0-122-78.5-206t-199.5-84q-92 0-151 53l-79-69-25 31 77 67q-38 51-38 121 0 120 79 204.5t199 84.5q94 0 153-53l77 69 26-31zm-51-47l-294-263q40-42 108-42 88 0 146 67t58 162q0 43-18 76zm-24 33q-41 41-108 41-86 0-144.5-67.5t-58.5-161.5q0-44 18-77z"/><glyph glyph-name="ugrave" unicode="ù" horiz-adv-x="577" d="M429 0h-65q8 62 11 80h-2q-27-43-70-67.5t-90-24.5q-75 0-118 38.5t-43 104.5q0 20 5 50l51 287h67l-46-259q-6-31-6-59 0-105 104-105 58 0 107 47t65 136l42 240h67l-64-365q-10-50-15-103zm-137 564l-132 144h88l100-144h-56z"/><glyph glyph-name="uacute" unicode="ú" horiz-adv-x="577" d="M429 0h-65q8 62 11 80h-2q-27-43-70-67.5t-90-24.5q-75 0-118 38.5t-43 104.5q0 20 5 50l51 287h67l-46-259q-6-31-6-59 0-105 104-105 58 0 107 47t65 136l42 240h67l-64-365q-10-50-15-103zm60 708l-158-144h-56l126 144h88z"/><glyph glyph-name="ucircumflex" unicode="û" horiz-adv-x="577" d="M429 0h-65q8 62 11 80h-2q-27-43-70-67.5t-90-24.5q-75 0-118 38.5t-43 104.5q0 20 5 50l51 287h67l-46-259q-6-31-6-59 0-105 104-105 58 0 107 47t65 136l42 240h67l-64-365q-10-50-15-103zm-34 708l83-144h-63l-64 108-102-108h-69l135 144h80z"/><glyph glyph-name="udieresis" unicode="ü" horiz-adv-x="577" d="M429 0h-65q8 62 11 80h-2q-27-43-70-67.5t-90-24.5q-75 0-118 38.5t-43 104.5q0 20 5 50l51 287h67l-46-259q-6-31-6-59 0-105 104-105 58 0 107 47t65 136l42 240h67l-64-365q-10-50-15-103zm-143 649q0-20-14.5-35t-33.5-15q-20 0-34 13t-14 34 15 36 35 15 33-13.5 13-34.5zm198 0q0-20-14.5-35t-34.5-15-33.5 13-13.5 34 14.5 36 34.5 15 33.5-13.5 13.5-34.5z"/><glyph glyph-name="yacute" unicode="ý" horiz-adv-x="483" d="M114 468l75-394h2l228 394h75l-354-589q-37-60-72-89.5t-83-29.5q-29 0-57 6l10 62q22-8 44-8 30 0 53.5 20.5t48.5 62.5l58 98-98 467h70zm339 240l-158-144h-56l126 144h88z"/><glyph glyph-name="thorn" unicode="þ" horiz-adv-x="628" d="M177 392q24 37 71 62.5t101 25.5q95 0 153-56t58-146q0-121-79-205.5t-196-84.5q-52 0-96.5 24t-66.5 67h-2l-57-319h-67l175 996h67l-63-364h2zm313-118q0 65-39 107.5t-108 42.5q-87 0-147.5-67t-60.5-161q0-67 41.5-109t109.5-42q91 0 147.5 66t56.5 163z"/><glyph glyph-name="ydieresis" unicode="ÿ" horiz-adv-x="483" d="M114 468l75-394h2l228 394h75l-354-589q-37-60-72-89.5t-83-29.5q-29 0-57 6l10 62q22-8 44-8 30 0 53.5 20.5t48.5 62.5l58 98-98 467h70zm125 181q0-20-14.5-35t-33.5-15q-20 0-34 13t-14 34 15 36 35 15 33-13.5 13-34.5zm198 0q0-20-14.5-35t-34.5-15-33.5 13-13.5 34 14.5 36 34.5 15 33.5-13.5 13.5-34.5z"/><glyph glyph-name="Amacron" unicode="Ā" horiz-adv-x="695" d="M147 186l-116-186h-82l456 708h70l147-708h-75l-38 186h-362zm277 442l-236-376h310zm169 226l-9-54h-270l9 54h270z"/><glyph glyph-name="amacron" unicode="ā" horiz-adv-x="534" d="M383 287q5 29 5 44 0 93-110 93-81 0-146-56l-30 45q34 30 84 48.5t99 18.5q72 0 119-34t47-101q0-24-4-50l-34-190q-11-66-11-105h-60q0 38 6 76h-2q-40-46-81-65.5t-100-19.5q-56 0-99 29.5t-43 91.5q0 43 21.5 75.5t55 51 83 30 96.5 15 104 3.5zm-9-51h-16q-265 0-265-116 0-75 96-75 70 0 118 43.5t60 108.5zm82 418l-9-54h-270l9 54h270z"/><glyph glyph-name="Abreve" unicode="Ă" horiz-adv-x="695" d="M147 186l-116-186h-82l456 708h70l147-708h-75l-38 186h-362zm277 442l-236-376h310zm139 280h44q-10-58-55.5-95t-106.5-37q-63 0-97.5 33.5t-34.5 98.5h44q0-78 89-78 44 0 76.5 20.5t40.5 57.5z"/><glyph glyph-name="abreve" unicode="ă" horiz-adv-x="534" d="M383 287q5 29 5 44 0 93-110 93-81 0-146-56l-30 45q34 30 84 48.5t99 18.5q72 0 119-34t47-101q0-24-4-50l-34-190q-11-66-11-105h-60q0 38 6 76h-2q-40-46-81-65.5t-100-19.5q-56 0-99 29.5t-43 91.5q0 43 21.5 75.5t55 51 83 30 96.5 15 104 3.5zm-9-51h-16q-265 0-265-116 0-75 96-75 70 0 118 43.5t60 108.5zm53 472h44q-10-58-55.5-95t-106.5-37q-63 0-97.5 33.5t-34.5 98.5h44q0-78 89-78 44 0 76.5 20.5t40.5 57.5z"/><glyph glyph-name="Aogonek" unicode="Ą" horiz-adv-x="695" d="M593-147l12-40q-44-36-92-36-33 0-56 18t-23 51q0 75 113 154l-38 186h-362l-116-186h-82l456 708h70l147-708h-27q-100-84-100-134 0-35 43-35 31 0 55 22zm-169 775l-236-376h310z"/><glyph glyph-name="aogonek" unicode="ą" horiz-adv-x="534" d="M388-147l12-40q-44-36-92-36-33 0-56 18t-23 51q0 75 113 154 0 38 6 76h-2q-40-46-81-65.5t-100-19.5q-56 0-99 29.5t-43 91.5q0 43 21.5 75.5t55 51 83 30 96.5 15 104 3.5q5 29 5 44 0 93-110 93-81 0-146-56l-30 45q34 30 84 48.5t99 18.5q72 0 119-34t47-101q0-24-4-50l-34-190q-11-66-11-105h-12q-100-84-100-134 0-35 43-35 31 0 55 22zm-14 383h-16q-265 0-265-116 0-75 96-75 70 0 118 43.5t60 108.5z"/><glyph glyph-name="Cacute" unicode="Ć" horiz-adv-x="720" d="M606 150l53-38q-103-130-283-130-142 0-230 84t-88 220q0 184 123.5 312t299.5 128q78 0 143-30.5t95-82.5l-65-43q-18 39-64 66.5t-111 27.5q-98 0-178.5-53.5t-123.5-138-43-179.5q0-108 65.5-178.5t180.5-70.5q137 0 226 106zm45 758l-158-144h-56l126 144h88z"/><glyph glyph-name="cacute" unicode="ć" horiz-adv-x="500" d="M485 401l-59-39q-12 28-41.5 45t-67.5 17q-89 0-148-67t-59-162q0-66 40.5-108t110.5-42q82 0 138 61l43-37q-79-81-186-81-99 0-158 55t-59 146q0 123 78 207t202 84q54 0 99-20t67-59zm11 307l-158-144h-56l126 144h88z"/><glyph glyph-name="Ccircumflex" unicode="Ĉ" horiz-adv-x="720" d="M606 150l53-38q-103-130-283-130-142 0-230 84t-88 220q0 184 123.5 312t299.5 128q78 0 143-30.5t95-82.5l-65-43q-18 39-64 66.5t-111 27.5q-98 0-178.5-53.5t-123.5-138-43-179.5q0-108 65.5-178.5t180.5-70.5q137 0 226 106zm-53 758l83-144h-63l-64 108-102-108h-69l135 144h80z"/><glyph glyph-name="ccircumflex" unicode="ĉ" horiz-adv-x="500" d="M485 401l-59-39q-12 28-41.5 45t-67.5 17q-89 0-148-67t-59-162q0-66 40.5-108t110.5-42q82 0 138 61l43-37q-79-81-186-81-99 0-158 55t-59 146q0 123 78 207t202 84q54 0 99-20t67-59zm-77 307l83-144h-63l-64 108-102-108h-69l135 144h80z"/><glyph glyph-name="Cdotaccent" unicode="Ċ" horiz-adv-x="720" d="M606 150l53-38q-103-130-283-130-142 0-230 84t-88 220q0 184 123.5 312t299.5 128q78 0 143-30.5t95-82.5l-65-43q-18 39-64 66.5t-111 27.5q-98 0-178.5-53.5t-123.5-138-43-179.5q0-108 65.5-178.5t180.5-70.5q137 0 226 106zm-56 699q0-20-14-34t-33-14-32.5 12.5-13.5 32.5q0 21 14.5 35t33.5 14 32-12.5 13-33.5z"/><glyph glyph-name="cdotaccent" unicode="ċ" horiz-adv-x="500" d="M485 401l-59-39q-12 28-41.5 45t-67.5 17q-89 0-148-67t-59-162q0-66 40.5-108t110.5-42q82 0 138 61l43-37q-79-81-186-81-99 0-158 55t-59 146q0 123 78 207t202 84q54 0 99-20t67-59zm-87 248q0-20-14-34t-33-14-32.5 12.5-13.5 32.5q0 21 14.5 35t33.5 14 32-12.5 13-33.5z"/><glyph glyph-name="Ccaron" unicode="Č" horiz-adv-x="720" d="M606 150l53-38q-103-130-283-130-142 0-230 84t-88 220q0 184 123.5 312t299.5 128q78 0 143-30.5t95-82.5l-65-43q-18 39-64 66.5t-111 27.5q-98 0-178.5-53.5t-123.5-138-43-179.5q0-108 65.5-178.5t180.5-70.5q137 0 226 106zm60 758l-135-144h-80l-83 144h63l64-108 102 108h69z"/><glyph glyph-name="ccaron" unicode="č" horiz-adv-x="500" d="M485 401l-59-39q-12 28-41.5 45t-67.5 17q-89 0-148-67t-59-162q0-66 40.5-108t110.5-42q82 0 138 61l43-37q-79-81-186-81-99 0-158 55t-59 146q0 123 78 207t202 84q54 0 99-20t67-59zm24 307l-135-144h-80l-83 144h63l64-108 102 108h69z"/><glyph glyph-name="Dcaron" unicode="Ď" horiz-adv-x="757" d="M40 0l125 708h214q62 0 119-17t105-51 77-93 29-135q0-185-122-298.5t-310-113.5h-237zm185 645l-103-582h160q110 0 192 50t120.5 126 38.5 165q0 106-68 173.5t-202 67.5h-138zm351 263l-135-144h-80l-83 144h63l64-108 102 108h69z"/><glyph glyph-name="dcaron" unicode="ď" horiz-adv-x="672" d="M34 190q0 121 79 205.5t196 84.5q52 0 96.5-24t66.5-67h2l65 367h67l-134-756h-67l14 77h-2q-24-38-71-63.5t-101-25.5q-95 0-153 56t-58 146zm70 5q0-65 39-107.5t108-42.5q87 0 147.5 67t60.5 161q0 67-41.5 109t-109.5 42q-91 0-147.5-66t-56.5-163zm687 513l-115-185h-57l101 185h71z"/><glyph glyph-name="Dcroat" unicode="Đ" horiz-adv-x="757" d="M101 347h-70l10 54h70l54 307h214q62 0 119-17t105-51 77-93 29-135q0-185-122-298.5t-310-113.5h-237zm81 54h251l-10-54h-251l-50-284h160q110 0 192 50t120.5 126 38.5 165q0 106-68 173.5t-202 67.5h-138z"/><glyph glyph-name="dcroat" unicode="đ" horiz-adv-x="622" d="M353 620h162l24 136h67l-24-136h51l-8-50h-52l-101-570h-67l14 77h-2q-24-38-71-63.5t-101-25.5q-95 0-153 56t-58 146q0 121 79 205.5t196 84.5q52 0 96.5-24t66.5-67h2l32 181h-161zm-249-425q0-65 39-107.5t108-42.5q87 0 147.5 67t60.5 161q0 67-41.5 109t-109.5 42q-91 0-147.5-66t-56.5-163z"/><glyph glyph-name="Emacron" unicode="Ē" horiz-adv-x="580" d="M171 338l-49-275h380l-11-63h-451l125 708h425l-11-63h-354l-43-246h338l-11-61h-338zm365 516l-9-54h-270l9 54h270z"/><glyph glyph-name="emacron" unicode="ē" horiz-adv-x="566" d="M491 216h-387q-2-16-2-22 0-65 43.5-107t107.5-42q101 0 162 82l42-40q-82-99-210-99-93 0-153 55t-60 151q0 115 79 200.5t192 85.5q93 0 144-50t51-133q0-46-9-81zm-378 50h318q2 20 2 35 0 56-34 89.5t-96 33.5q-71 0-122.5-45.5t-67.5-112.5zm370 388l-9-54h-270l9 54h270z"/><glyph glyph-name="Ebreve" unicode="Ĕ" horiz-adv-x="580" d="M171 338l-49-275h380l-11-63h-451l125 708h425l-11-63h-354l-43-246h338l-11-61h-338zm335 570h44q-10-58-55.5-95t-106.5-37q-63 0-97.5 33.5t-34.5 98.5h44q0-78 89-78 43 0 76 20.5t41 57.5z"/><glyph glyph-name="ebreve" unicode="ĕ" horiz-adv-x="566" d="M491 216h-387q-2-16-2-22 0-65 43.5-107t107.5-42q101 0 162 82l42-40q-82-99-210-99-93 0-153 55t-60 151q0 115 79 200.5t192 85.5q93 0 144-50t51-133q0-46-9-81zm-378 50h318q2 20 2 35 0 56-34 89.5t-96 33.5q-71 0-122.5-45.5t-67.5-112.5zm340 442h44q-10-58-55.5-95t-106.5-37q-63 0-97.5 33.5t-34.5 98.5h44q0-78 89-78 44 0 76.5 20.5t40.5 57.5z"/><glyph glyph-name="Edotaccent" unicode="Ė" horiz-adv-x="580" d="M171 338l-49-275h380l-11-63h-451l125 708h425l-11-63h-354l-43-246h338l-11-61h-338zm276 511q0-20-14-34t-33-14-32.5 12.5-13.5 32.5q0 21 14.5 35t33.5 14 32-12.5 13-33.5z"/><glyph glyph-name="edotaccent" unicode="ė" horiz-adv-x="566" d="M491 216h-387q-2-16-2-22 0-65 43.5-107t107.5-42q101 0 162 82l42-40q-82-99-210-99-93 0-153 55t-60 151q0 115 79 200.5t192 85.5q93 0 144-50t51-133q0-46-9-81zm-378 50h318q2 20 2 35 0 56-34 89.5t-96 33.5q-71 0-122.5-45.5t-67.5-112.5zm277 383q0-20-14-34t-33-14-32.5 12.5-13.5 32.5q0 21 14.5 35t33.5 14 32-12.5 13-33.5z"/><glyph glyph-name="Eogonek" unicode="Ę" horiz-adv-x="580" d="M468-147l12-40q-44-36-92-36-33 0-56 18t-23 51q0 75 113 154h-382l125 708h425l-11-63h-354l-43-246h338l-11-61h-338l-49-275h380l-11-63h-21q-100-84-100-134 0-35 43-35 31 0 55 22z"/><glyph glyph-name="eogonek" unicode="ę" horiz-adv-x="566" d="M305-147l12-40q-44-36-92-36-33 0-56 18t-23 51q0 70 96 142-91 2-149.5 56.5t-58.5 149.5q0 115 79 200.5t192 85.5q93 0 144-50t51-133q0-46-9-81h-387q-2-16-2-22 0-65 43.5-107t107.5-42q101 0 162 82l42-40q-65-77-159-94-91-78-91-127 0-35 43-35 31 0 55 22zm-192 413h318q2 20 2 35 0 56-34 89.5t-96 33.5q-71 0-122.5-45.5t-67.5-112.5z"/><glyph glyph-name="Ecaron" unicode="Ě" horiz-adv-x="580" d="M171 338l-49-275h380l-11-63h-451l125 708h425l-11-63h-354l-43-246h338l-11-61h-338zm388 570l-135-144h-80l-83 144h63l64-108 102 108h69z"/><glyph glyph-name="ecaron" unicode="ě" horiz-adv-x="566" d="M491 216h-387q-2-16-2-22 0-65 43.5-107t107.5-42q101 0 162 82l42-40q-82-99-210-99-93 0-153 55t-60 151q0 115 79 200.5t192 85.5q93 0 144-50t51-133q0-46-9-81zm-378 50h318q2 20 2 35 0 56-34 89.5t-96 33.5q-71 0-122.5-45.5t-67.5-112.5zm392 442l-135-144h-80l-83 144h63l64-108 102 108h69z"/><glyph glyph-name="Gcircumflex" unicode="Ĝ" horiz-adv-x="770" d="M380 44q122 0 201 48l38 217h-167l11 61h237l-56-319q-120-69-268-69-142 0-230 84t-88 220q0 184 123.5 312t299.5 128q78 0 143-30.5t95-82.5l-65-43q-18 39-64 66.5t-111 27.5q-98 0-178.5-53.5t-123.5-138-43-179.5q0-108 65.5-178.5t180.5-70.5zm180 864l83-144h-63l-64 108-102-108h-69l135 144h80z"/><glyph glyph-name="gcircumflex" unicode="ĝ" horiz-adv-x="627" d="M-4-146l45 48q25-37 71.5-60t98.5-23q170 0 205 185l17 89h-2q-66-93-178-93-94 0-151 58t-57 147q0 115 78 195t195 80q53 0 98-24.5t64-68.5h2l15 81h66l-82-464q-6-36-15-65t-28.5-64.5-47-59-74-39.5-105.5-16q-68 0-124.5 25t-90.5 69zm118 350q0-63 40-105.5t110-42.5q89 0 146.5 64t57.5 154q0 64-41.5 107t-109.5 43q-90 0-146.5-60.5t-56.5-159.5zm308 504l83-144h-63l-64 108-102-108h-69l135 144h80z"/><glyph glyph-name="Gbreve" unicode="Ğ" horiz-adv-x="770" d="M380 44q122 0 201 48l38 217h-167l11 61h237l-56-319q-120-69-268-69-142 0-230 84t-88 220q0 184 123.5 312t299.5 128q78 0 143-30.5t95-82.5l-65-43q-18 39-64 66.5t-111 27.5q-98 0-178.5-53.5t-123.5-138-43-179.5q0-108 65.5-178.5t180.5-70.5zm229 864h44q-10-58-55.5-95t-106.5-37q-63 0-97.5 33.5t-34.5 98.5h44q0-78 89-78 44 0 76.5 20.5t40.5 57.5z"/><glyph glyph-name="gbreve" unicode="ğ" horiz-adv-x="627" d="M-4-146l45 48q25-37 71.5-60t98.5-23q170 0 205 185l17 89h-2q-66-93-178-93-94 0-151 58t-57 147q0 115 78 195t195 80q53 0 98-24.5t64-68.5h2l15 81h66l-82-464q-6-36-15-65t-28.5-64.5-47-59-74-39.5-105.5-16q-68 0-124.5 25t-90.5 69zm118 350q0-63 40-105.5t110-42.5q89 0 146.5 64t57.5 154q0 64-41.5 107t-109.5 43q-90 0-146.5-60.5t-56.5-159.5zm360 504h44q-10-58-55.5-95t-106.5-37q-63 0-97.5 33.5t-34.5 98.5h44q0-78 89-78 43 0 76 20.5t41 57.5z"/><glyph glyph-name="Gdotaccent" unicode="Ġ" horiz-adv-x="770" d="M380 44q122 0 201 48l38 217h-167l11 61h237l-56-319q-120-69-268-69-142 0-230 84t-88 220q0 184 123.5 312t299.5 128q78 0 143-30.5t95-82.5l-65-43q-18 39-64 66.5t-111 27.5q-98 0-178.5-53.5t-123.5-138-43-179.5q0-108 65.5-178.5t180.5-70.5zm173 805q0-20-14-34t-33-14-32.5 12.5-13.5 32.5q0 21 14.5 35t33.5 14 32-12.5 13-33.5z"/><glyph glyph-name="gdotaccent" unicode="ġ" horiz-adv-x="627" d="M-4-146l45 48q25-37 71.5-60t98.5-23q170 0 205 185l17 89h-2q-66-93-178-93-94 0-151 58t-57 147q0 115 78 195t195 80q53 0 98-24.5t64-68.5h2l15 81h66l-82-464q-6-36-15-65t-28.5-64.5-47-59-74-39.5-105.5-16q-68 0-124.5 25t-90.5 69zm118 350q0-63 40-105.5t110-42.5q89 0 146.5 64t57.5 154q0 64-41.5 107t-109.5 43q-90 0-146.5-60.5t-56.5-159.5zm298 445q0-20-14-34t-33-14-32.5 12.5-13.5 32.5q0 21 14.5 35t33.5 14 32-12.5 13-33.5z"/><glyph glyph-name="Gcommaaccent" unicode="Ģ" horiz-adv-x="770" d="M380 44q122 0 201 48l38 217h-167l11 61h237l-56-319q-120-69-268-69-142 0-230 84t-88 220q0 184 123.5 312t299.5 128q78 0 143-30.5t95-82.5l-65-43q-18 39-64 66.5t-111 27.5q-98 0-178.5-53.5t-123.5-138-43-179.5q0-108 65.5-178.5t180.5-70.5zm44-89l-115-185h-57l101 185h71z"/><glyph glyph-name="gcommaaccent" unicode="ģ" horiz-adv-x="627" d="M-4-146l45 48q25-37 71.5-60t98.5-23q170 0 205 185l17 89h-2q-66-93-178-93-94 0-151 58t-57 147q0 115 78 195t195 80q53 0 98-24.5t64-68.5h2l15 81h66l-82-464q-6-36-15-65t-28.5-64.5-47-59-74-39.5-105.5-16q-68 0-124.5 25t-90.5 69zm118 350q0-63 40-105.5t110-42.5q89 0 146.5 64t57.5 154q0 64-41.5 107t-109.5 43q-90 0-146.5-60.5t-56.5-159.5zm181 360l115 185h57l-101-185h-71z"/><glyph glyph-name="Hcircumflex" unicode="Ĥ" horiz-adv-x="708" d="M40 0l125 708h71l-55-308h377l55 308h71l-125-708h-71l59 336h-377l-59-336h-71zm460 908l83-144h-63l-64 108-102-108h-69l135 144h80z"/><glyph glyph-name="hcircumflex" unicode="ĥ" horiz-adv-x="577" d="M332 480q75 0 117.5-38.5t42.5-104.5q0-20-5-50l-51-287h-67l46 259q6 32 6 59 0 106-106 106-58 0-106-47.5t-64-136.5l-42-240h-67l133 756h67l-64-365h2q27 41 69 65t89 24zm100 460l83-144h-63l-64 108-102-108h-69l135 144h80z"/><glyph glyph-name="Hbar" unicode="Ħ" horiz-adv-x="708" d="M40 0l125 708h71l-28-158h377l28 158h71l-125-708h-71l59 336h-377l-59-336h-71zm141 400h377l18 100h-377z"/><glyph glyph-name="hbar" unicode="ħ" horiz-adv-x="577" d="M90 620h55l24 136h67l-24-136h158l-8-50h-159l-31-179h2q27 41 69 65t89 24q75 0 117.5-38.5t42.5-104.5q0-20-5-50l-51-287h-67l46 259q6 32 6 59 0 106-106 106-58 0-106-47.5t-64-136.5l-42-240h-67l100 570h-54z"/><glyph glyph-name="Itilde" unicode="Ĩ" horiz-adv-x="260" d="M236 708l-125-708h-71l125 708h71zm-145 68h-43q36 104 110 104 27 0 69-23 46-23 63-23 36 0 58 50h43q-38-104-111-104-23 0-69 23-40 23-63 23-37 0-57-50z"/><glyph glyph-name="itilde" unicode="ĩ" horiz-adv-x="250" d="M187 468l-83-468h-67l83 468h67zm-135 108h-43q36 104 110 104 27 0 69-23 46-23 63-23 36 0 58 50h43q-38-104-111-104-23 0-69 23-40 23-63 23-37 0-57-50z"/><glyph glyph-name="Imacron" unicode="Ī" horiz-adv-x="260" d="M236 708l-125-708h-71l125 708h71zm121 146l-9-54h-270l9 54h270z"/><glyph glyph-name="imacron" unicode="ī" horiz-adv-x="250" d="M187 468l-83-468h-67l83 468h67zm130 186l-9-54h-270l9 54h270z"/><glyph glyph-name="Iogonek" unicode="Į" horiz-adv-x="260" d="M108-147l12-40q-44-36-92-36-33 0-56 18t-23 51q0 75 113 154h-22l125 708h71l-125-708h-1q-100-84-100-134 0-35 43-35 31 0 55 22z"/><glyph glyph-name="iogonek" unicode="į" horiz-adv-x="250" d="M100-147l12-40q-44-36-92-36-33 0-56 18t-23 51q0 75 113 154h-17l83 468h67l-83-468h-2q-100-84-100-134 0-35 43-35 31 0 55 22zm127 796q0-20-14-34t-33-14-32.5 12.5-13.5 32.5q0 21 14.5 35t33.5 14 32-12.5 13-33.5z"/><glyph glyph-name="Idotaccent" unicode="İ" horiz-adv-x="260" d="M236 708l-125-708h-71l125 708h71zm31 141q0-20-14-34t-33-14-32.5 12.5-13.5 32.5q0 21 14.5 35t33.5 14 32-12.5 13-33.5z"/><glyph glyph-name="dotlessi" unicode="ı" horiz-adv-x="250" d="M187 468l-83-468h-67l83 468h67z"/><glyph glyph-name="Jcircumflex" unicode="Ĵ" horiz-adv-x="482" d="M-10 120l63 20q7-42 34.5-69t72.5-27q37 0 63.5 13t42.5 38.5 24.5 51 14.5 62.5l88 499h71l-89-504q-7-43-18-75t-33-69-62.5-57.5-97.5-20.5q-75 0-120.5 39.5t-53.5 98.5zm511 788l83-144h-63l-64 108-102-108h-69l135 144h80z"/><glyph glyph-name="jcircumflex" unicode="ĵ" horiz-adv-x="251" d="M-113-233l14 57q18-6 42-6 39 0 55 24t26 76l97 550h67l-99-561q-12-68-43-107.5t-103-39.5q-34 0-56 7zm344 941l83-144h-63l-64 108-102-108h-69l135 144h80z"/><glyph glyph-name="Kcommaaccent" unicode="Ķ" horiz-adv-x="585" d="M236 708l-56-318h1l360 318h104l-387-328 296-380h-93l-283 377h-1l-66-377h-71l125 708h71zm88-753l-115-185h-57l101 185h71z"/><glyph glyph-name="kcommaaccent" unicode="ķ" horiz-adv-x="487" d="M238 756l-88-499h3l239 211h93l-257-217 214-251h-88l-203 246h-3l-42-246h-68l133 756h67zm35-801l-115-185h-57l101 185h71z"/><glyph glyph-name="Lacute" unicode="Ĺ" horiz-adv-x="510" d="M236 708l-115-645h331l-10-63h-402l125 708h71zm151 200l-158-144h-56l126 144h88z"/><glyph glyph-name="lacute" unicode="ĺ" horiz-adv-x="252" d="M239 756l-133-756h-68l133 756h68zm150 180l-158-144h-56l126 144h88z"/><glyph glyph-name="Lcommaaccent" unicode="Ļ" horiz-adv-x="510" d="M236 708l-115-645h331l-10-63h-402l125 708h71zm53-753l-115-185h-57l101 185h71z"/><glyph glyph-name="lcommaaccent" unicode="ļ" horiz-adv-x="252" d="M239 756l-133-756h-68l133 756h68zm-113-801l-115-185h-57l101 185h71z"/><glyph glyph-name="Lcaron" unicode="Ľ" horiz-adv-x="510" d="M236 708l-115-645h331l-10-63h-402l125 708h71zm234 0l-115-185h-57l101 185h71z"/><glyph glyph-name="lcaron" unicode="ľ" horiz-adv-x="296" d="M239 756l-133-756h-68l133 756h68zm196-48l-115-185h-57l101 185h71z"/><glyph glyph-name="Ldot" unicode="Ŀ" horiz-adv-x="510" d="M236 708l-115-645h331l-10-63h-402l125 708h71zm161-279q0-20-14-34t-33-14-32.5 12.5-13.5 32.5q0 21 14.5 35t33.5 14 32-12.5 13-33.5z"/><glyph glyph-name="ldot" unicode="ŀ" horiz-adv-x="312" d="M239 756l-133-756h-68l133 756h68zm93-297q0-20-14-34t-33-14-32.5 12.5-13.5 32.5q0 21 14.5 35t33.5 14 32-12.5 13-33.5z"/><glyph glyph-name="Lslash" unicode="Ł" horiz-adv-x="510" d="M237 708l-61-346 249 186-13-70-249-186-40-228h330l-11-64h-402l43 242-95-70 13 70 94 70 70 396h72z"/><glyph glyph-name="lslash" unicode="ł" horiz-adv-x="252" d="M237 756l-52-298 96 84-13-73-96-83-68-386h-66l58 331-95-83 13 73 95 82 62 353h66z"/><glyph glyph-name="Nacute" unicode="Ń" horiz-adv-x="750" d="M255 708l291-607h2l107 607h71l-125-708h-89l-290 615h-2l-108-615h-71l125 708h89zm355 200l-158-144h-56l126 144h88z"/><glyph glyph-name="nacute" unicode="ń" horiz-adv-x="577" d="M115 468h65q-7-63-11-80h2q27 43 70 67.5t90 24.5q75 0 118-38.5t43-104.5q0-20-5-50l-51-287h-67l46 259q6 32 6 59 0 106-104 106-58 0-107-47.5t-65-136.5l-42-240h-67l64 365q10 50 15 103zm366 240l-158-144h-56l126 144h88z"/><glyph glyph-name="Ncommaaccent" unicode="Ņ" horiz-adv-x="750" d="M255 708l291-607h2l107 607h71l-125-708h-89l-290 615h-2l-108-615h-71l125 708h89zm114-753l-115-185h-57l101 185h71z"/><glyph glyph-name="ncommaaccent" unicode="ņ" horiz-adv-x="577" d="M115 468h65q-7-63-11-80h2q27 43 70 67.5t90 24.5q75 0 118-38.5t43-104.5q0-20-5-50l-51-287h-67l46 259q6 32 6 59 0 106-104 106-58 0-107-47.5t-65-136.5l-42-240h-67l64 365q10 50 15 103zm169-513l-115-185h-57l101 185h71z"/><glyph glyph-name="Ncaron" unicode="Ň" horiz-adv-x="750" d="M255 708l291-607h2l107 607h71l-125-708h-89l-290 615h-2l-108-615h-71l125 708h89zm367 200l-135-144h-80l-83 144h63l64-108 102 108h69z"/><glyph glyph-name="ncaron" unicode="ň" horiz-adv-x="577" d="M115 468h65q-7-63-11-80h2q27 43 70 67.5t90 24.5q75 0 118-38.5t43-104.5q0-20-5-50l-51-287h-67l46 259q6 32 6 59 0 106-104 106-58 0-107-47.5t-65-136.5l-42-240h-67l64 365q10 50 15 103zm381 240l-135-144h-80l-83 144h63l64-108 102 108h69z"/><glyph glyph-name="Omacron" unicode="Ō" horiz-adv-x="834" d="M373-18q-139 0-227 84t-88 220q0 184 119.5 312t293.5 128q139 0 227-83.5t88-218.5q0-184-118-313t-295-129zm337 435q0 107-64.5 177t-177.5 70q-97 0-175-54t-118.5-138.5-40.5-179.5q0-107 64-177.5t178-70.5q144 0 239 111.5t95 261.5zm-72 437l-9-54h-270l9 54h270z"/><glyph glyph-name="omacron" unicode="ō" horiz-adv-x="596" d="M250-12q-95 0-155.5 56.5t-60.5 146.5q0 120 79 204.5t199 84.5q95 0 155.5-56t60.5-146q0-122-78.5-206t-199.5-84zm208 286q0 65-40.5 107.5t-109.5 42.5q-86 0-144.5-67.5t-58.5-161.5q0-66 40.5-108t108.5-42q88 0 146 67t58 162zm30 380l-9-54h-270l9 54h270z"/><glyph glyph-name="Obreve" unicode="Ŏ" horiz-adv-x="834" d="M373-18q-139 0-227 84t-88 220q0 184 119.5 312t293.5 128q139 0 227-83.5t88-218.5q0-184-118-313t-295-129zm337 435q0 107-64.5 177t-177.5 70q-97 0-175-54t-118.5-138.5-40.5-179.5q0-107 64-177.5t178-70.5q144 0 239 111.5t95 261.5zm-107 491h44q-10-58-55.5-95t-106.5-37q-63 0-97.5 33.5t-34.5 98.5h44q0-78 89-78 44 0 76.5 20.5t40.5 57.5z"/><glyph glyph-name="obreve" unicode="ŏ" horiz-adv-x="596" d="M250-12q-95 0-155.5 56.5t-60.5 146.5q0 120 79 204.5t199 84.5q95 0 155.5-56t60.5-146q0-122-78.5-206t-199.5-84zm208 286q0 65-40.5 107.5t-109.5 42.5q-86 0-144.5-67.5t-58.5-161.5q0-66 40.5-108t108.5-42q88 0 146 67t58 162zm-6 434h44q-10-58-55.5-95t-106.5-37q-63 0-97.5 33.5t-34.5 98.5h44q0-78 89-78 43 0 76 20.5t41 57.5z"/><glyph glyph-name="Ohungarumlaut" unicode="Ő" horiz-adv-x="834" d="M373-18q-139 0-227 84t-88 220q0 184 119.5 312t293.5 128q139 0 227-83.5t88-218.5q0-184-118-313t-295-129zm337 435q0 107-64.5 177t-177.5 70q-97 0-175-54t-118.5-138.5-40.5-179.5q0-107 64-177.5t178-70.5q144 0 239 111.5t95 261.5zm-134 491l-159-144h-59l127 144h91zm170 0l-158-144h-59l126 144h91z"/><glyph glyph-name="ohungarumlaut" unicode="ő" horiz-adv-x="596" d="M250-12q-95 0-155.5 56.5t-60.5 146.5q0 120 79 204.5t199 84.5q95 0 155.5-56t60.5-146q0-122-78.5-206t-199.5-84zm208 286q0 65-40.5 107.5t-109.5 42.5q-86 0-144.5-67.5t-58.5-161.5q0-66 40.5-108t108.5-42q88 0 146 67t58 162zm-33 434l-159-144h-59l127 144h91zm170 0l-158-144h-59l126 144h91z"/><glyph glyph-name="OE" unicode="Œ" horiz-adv-x="970" d="M881 0h-493q-62 0-119 17t-105 51-77 93-29 135q0 185 122 298.5t310 113.5h490l-11-63h-328l-43-246h312l-11-61h-312l-49-275h354zm-414 63l103 582h-85q-110 0-192-50t-120.5-126-38.5-165q0-106 68-173.5t202-67.5h63z"/><glyph glyph-name="oe" unicode="œ" horiz-adv-x="982" d="M473 107q-78-119-223-119-95 0-155.5 56.5t-60.5 146.5q0 120 79 204.5t199 84.5q67 0 119-33t75-87q32 54 90.5 87t124.5 33q93 0 144-50t51-133q0-46-9-81h-387q-2-16-2-22 0-65 43.5-107t107.5-42q101 0 162 82l42-40q-82-99-210-99-139 0-190 119zm-15 167q0 65-40.5 107.5t-109.5 42.5q-86 0-144.5-67.5t-58.5-161.5q0-66 40.5-108t108.5-42q88 0 146 67t58 162zm71-8h318q2 20 2 35 0 56-34 89.5t-96 33.5q-71 0-122.5-45.5t-67.5-112.5z"/><glyph glyph-name="Racute" unicode="Ŕ" horiz-adv-x="599" d="M169 331l-58-331h-71l125 708h191q98 0 158.5-43t60.5-126q0-93-57-142.5t-151-59.5l156-337h-81l-148 331h-125zm56 316l-45-256h126q197 0 197 140 0 57-41.5 86.5t-116.5 29.5h-120zm296 261l-158-144h-56l126 144h88z"/><glyph glyph-name="racute" unicode="ŕ" horiz-adv-x="348" d="M100 365q10 50 15 103h64q-7-63-11-80h2q26 42 67 67t89 25q26 0 44-5l-16-64q-14 6-46 6-58 0-102.5-44t-60.5-133l-42-240h-67zm262 343l-158-144h-56l126 144h88z"/><glyph glyph-name="Rcommaaccent" unicode="Ŗ" horiz-adv-x="599" d="M169 331l-58-331h-71l125 708h191q98 0 158.5-43t60.5-126q0-93-57-142.5t-151-59.5l156-337h-81l-148 331h-125zm56 316l-45-256h126q197 0 197 140 0 57-41.5 86.5t-116.5 29.5h-120zm86-692l-115-185h-57l101 185h71z"/><glyph glyph-name="rcommaaccent" unicode="ŗ" horiz-adv-x="348" d="M100 365q10 50 15 103h64q-7-63-11-80h2q26 42 67 67t89 25q26 0 44-5l-16-64q-14 6-46 6-58 0-102.5-44t-60.5-133l-42-240h-67zm23-411l-115-185h-57l101 185h71z"/><glyph glyph-name="Rcaron" unicode="Ř" horiz-adv-x="599" d="M169 331l-58-331h-71l125 708h191q98 0 158.5-43t60.5-126q0-93-57-142.5t-151-59.5l156-337h-81l-148 331h-125zm56 316l-45-256h126q197 0 197 140 0 57-41.5 86.5t-116.5 29.5h-120zm304 261l-135-144h-80l-83 144h63l64-108 102 108h69z"/><glyph glyph-name="rcaron" unicode="ř" horiz-adv-x="348" d="M100 365q10 50 15 103h64q-7-63-11-80h2q26 42 67 67t89 25q26 0 44-5l-16-64q-14 6-46 6-58 0-102.5-44t-60.5-133l-42-240h-67zm321 343l-135-144h-80l-83 144h63l64-108 102 108h69z"/><glyph glyph-name="Sacute" unicode="Ś" horiz-adv-x="564" d="M552 642l-61-44q-45 66-139 66-69 0-121.5-37t-52.5-105q0-50 32.5-78t96.5-52q38-15 64.5-28t55.5-35 44-53 15-69q0-39-13.5-76t-41.5-72-80-56-121-21q-67 0-127 27.5t-90 77.5l64 41q21-37 62-60.5t94-23.5q75 0 126.5 41.5t51.5 108.5q0 55-37.5 84.5t-110.5 56.5-116 67.5-43 110.5q0 93 67.5 153t184.5 60q69 0 120.5-23t75.5-61zm-35 266l-158-144h-56l126 144h88z"/><glyph glyph-name="sacute" unicode="ś" horiz-adv-x="444" d="M407 403l-53-38q-30 59-109 59-43 0-77-19t-34-57q0-34 21-49t72-30q72-20 106.5-52t34.5-85q0-71-55.5-107.5t-125.5-36.5q-61 0-112 22.5t-79 66.5l58 38q17-30 52.5-50t77.5-20q48 0 82.5 20t34.5 60q0 35-26.5 54.5t-87.5 39.5q-54 17-86 44.5t-32 79.5q0 67 54.5 102t125.5 35q54 0 96.5-21t61.5-56zm23 305l-158-144h-56l126 144h88z"/><glyph glyph-name="Scircumflex" unicode="Ŝ" horiz-adv-x="564" d="M552 642l-61-44q-45 66-139 66-69 0-121.5-37t-52.5-105q0-50 32.5-78t96.5-52q38-15 64.5-28t55.5-35 44-53 15-69q0-39-13.5-76t-41.5-72-80-56-121-21q-67 0-127 27.5t-90 77.5l64 41q21-37 62-60.5t94-23.5q75 0 126.5 41.5t51.5 108.5q0 55-37.5 84.5t-110.5 56.5-116 67.5-43 110.5q0 93 67.5 153t184.5 60q69 0 120.5-23t75.5-61zm-118 266l83-144h-63l-64 108-102-108h-69l135 144h80z"/><glyph glyph-name="scircumflex" unicode="ŝ" horiz-adv-x="444" d="M407 403l-53-38q-30 59-109 59-43 0-77-19t-34-57q0-34 21-49t72-30q72-20 106.5-52t34.5-85q0-71-55.5-107.5t-125.5-36.5q-61 0-112 22.5t-79 66.5l58 38q17-30 52.5-50t77.5-20q48 0 82.5 20t34.5 60q0 35-26.5 54.5t-87.5 39.5q-54 17-86 44.5t-32 79.5q0 67 54.5 102t125.5 35q54 0 96.5-21t61.5-56zm-67 305l83-144h-63l-64 108-102-108h-69l135 144h80z"/><glyph glyph-name="Scedilla" unicode="Ş" horiz-adv-x="564" d="M552 642l-61-44q-45 66-139 66-69 0-121.5-37t-52.5-105q0-50 32.5-78t96.5-52q38-15 64.5-28t55.5-35 44-53 15-69q0-37-12-72.5t-37.5-69-72-56-108.5-26.5l-46-58q13 4 31 4 29 0 51.5-16.5t22.5-50.5q0-46-37-69t-83-23q-57 0-97 20l19 36q29-14 74-14 26 0 46 11t20 34q0 38-50 38-22 0-44-8l-15 15 65 81q-63 3-117.5 30t-82.5 74l64 41q21-37 62-60.5t94-23.5q75 0 126.5 41.5t51.5 108.5q0 55-37.5 84.5t-110.5 56.5-116 67.5-43 110.5q0 93 67.5 153t184.5 60q69 0 120.5-23t75.5-61z"/><glyph glyph-name="scedilla" unicode="ş" horiz-adv-x="444" d="M407 403l-53-38q-30 59-109 59-43 0-77-19t-34-57q0-34 21-49t72-30q72-20 106.5-52t34.5-85q0-63-45.5-99t-109.5-43l-51-65q13 4 31 4 29 0 51.5-16.5t22.5-50.5q0-46-37-69t-83-23q-57 0-97 20l19 36q29-14 74-14 26 0 46 11t20 34q0 38-50 38-22 0-44-8l-15 15 69 87q-121 7-173 88l58 38q17-30 52.5-50t77.5-20q48 0 82.5 20t34.5 60q0 35-26.5 54.5t-87.5 39.5q-54 17-86 44.5t-32 79.5q0 67 54.5 102t125.5 35q54 0 96.5-21t61.5-56z"/><glyph glyph-name="Scaron" unicode="Š" horiz-adv-x="564" d="M552 642l-61-44q-45 66-139 66-69 0-121.5-37t-52.5-105q0-50 32.5-78t96.5-52q38-15 64.5-28t55.5-35 44-53 15-69q0-39-13.5-76t-41.5-72-80-56-121-21q-67 0-127 27.5t-90 77.5l64 41q21-37 62-60.5t94-23.5q75 0 126.5 41.5t51.5 108.5q0 55-37.5 84.5t-110.5 56.5-116 67.5-43 110.5q0 93 67.5 153t184.5 60q69 0 120.5-23t75.5-61zm-21 266l-135-144h-80l-83 144h63l64-108 102 108h69z"/><glyph glyph-name="scaron" unicode="š" horiz-adv-x="444" d="M407 403l-53-38q-30 59-109 59-43 0-77-19t-34-57q0-34 21-49t72-30q72-20 106.5-52t34.5-85q0-71-55.5-107.5t-125.5-36.5q-61 0-112 22.5t-79 66.5l58 38q17-30 52.5-50t77.5-20q48 0 82.5 20t34.5 60q0 35-26.5 54.5t-87.5 39.5q-54 17-86 44.5t-32 79.5q0 67 54.5 102t125.5 35q54 0 96.5-21t61.5-56zm35 305l-135-144h-80l-83 144h63l64-108 102 108h69z"/><glyph glyph-name="Tcommaaccent" unicode="Ţ" horiz-adv-x="547" d="M364 645l-114-645h-71l114 645h-237l11 63h546l-11-63h-238zm-100-690l-115-185h-57l101 185h71z"/><glyph glyph-name="tcommaaccent" unicode="ţ" horiz-adv-x="307" d="M314 468l-11-56h-127l-49-274q-3-18-3-32 0-55 58-55 37 0 57 15l-8-58q-26-14-77-14-41 0-70.5 21t-29.5 72q0 14 3 32l52 293h-97l11 56h95l23 132h67l-23-132h129zm-122-513l-115-185h-57l101 185h71z"/><glyph glyph-name="Tcaron" unicode="Ť" horiz-adv-x="547" d="M364 645l-114-645h-71l114 645h-237l11 63h546l-11-63h-238zm158 263l-135-144h-80l-83 144h63l64-108 102 108h69z"/><glyph glyph-name="tcaron" unicode="ť" horiz-adv-x="317" d="M314 468l-11-56h-127l-49-274q-3-18-3-32 0-55 58-55 37 0 57 15l-8-58q-26-14-77-14-41 0-70.5 21t-29.5 72q0 14 3 32l52 293h-97l11 56h95l23 132h67l-23-132h129zm122 263l-115-185h-57l101 185h71z"/><glyph glyph-name="Tbar" unicode="Ŧ" horiz-adv-x="558" d="M110 543h170l18 102h-237l11 63h546l-11-63h-238l-18-102h173l-8-50h-174l-87-493h-71l87 493h-169z"/><glyph glyph-name="tbar" unicode="ŧ" horiz-adv-x="307" d="M16 314h75l18 98h-97l11 56h95l23 132h67l-23-132h129l-11-56h-127l-18-98h114l-8-50h-115l-22-126q-3-18-3-32 0-55 58-55 37 0 57 15l-8-58q-26-14-77-14-41 0-70.5 21t-29.5 72q0 14 3 32l25 145h-74z"/><glyph glyph-name="Utilde" unicode="Ũ" horiz-adv-x="710" d="M311-18q-119 0-176.5 63t-57.5 152q0 36 6 67l78 444h71l-77-436q-6-32-6-61 0-74 39.5-120.5t126.5-46.5q187 0 227 228l77 436h71l-78-444q-7-39-19-75t-35.5-75-55.5-67-81.5-46.5-109.5-18.5zm7 794h-43q36 104 110 104 27 0 69-23 46-23 63-23 36 0 58 50h43q-38-104-111-104-23 0-69 23-40 23-63 23-37 0-57-50z"/><glyph glyph-name="utilde" unicode="ũ" horiz-adv-x="577" d="M429 0h-65q8 62 11 80h-2q-27-43-70-67.5t-90-24.5q-75 0-118 38.5t-43 104.5q0 20 5 50l51 287h67l-46-259q-6-31-6-59 0-105 104-105 58 0 107 47t65 136l42 240h67l-64-365q-10-50-15-103zm-221 576h-43q36 104 110 104 27 0 69-23 46-23 63-23 36 0 58 50h43q-38-104-111-104-23 0-69 23-40 23-63 23-37 0-57-50z"/><glyph glyph-name="Umacron" unicode="Ū" horiz-adv-x="710" d="M311-18q-119 0-176.5 63t-57.5 152q0 36 6 67l78 444h71l-77-436q-6-32-6-61 0-74 39.5-120.5t126.5-46.5q187 0 227 228l77 436h71l-78-444q-7-39-19-75t-35.5-75-55.5-67-81.5-46.5-109.5-18.5zm274 872l-9-54h-270l9 54h270z"/><glyph glyph-name="umacron" unicode="ū" horiz-adv-x="577" d="M429 0h-65q8 62 11 80h-2q-27-43-70-67.5t-90-24.5q-75 0-118 38.5t-43 104.5q0 20 5 50l51 287h67l-46-259q-6-31-6-59 0-105 104-105 58 0 107 47t65 136l42 240h67l-64-365q-10-50-15-103zm45 654l-9-54h-270l9 54h270z"/><glyph glyph-name="Ubreve" unicode="Ŭ" horiz-adv-x="710" d="M311-18q-119 0-176.5 63t-57.5 152q0 36 6 67l78 444h71l-77-436q-6-32-6-61 0-74 39.5-120.5t126.5-46.5q187 0 227 228l77 436h71l-78-444q-7-39-19-75t-35.5-75-55.5-67-81.5-46.5-109.5-18.5zm241 926h44q-10-58-55.5-95t-106.5-37q-63 0-97.5 33.5t-34.5 98.5h44q0-78 89-78 43 0 76 20.5t41 57.5z"/><glyph glyph-name="ubreve" unicode="ŭ" horiz-adv-x="577" d="M429 0h-65q8 62 11 80h-2q-27-43-70-67.5t-90-24.5q-75 0-118 38.5t-43 104.5q0 20 5 50l51 287h67l-46-259q-6-31-6-59 0-105 104-105 58 0 107 47t65 136l42 240h67l-64-365q-10-50-15-103zm11 708h44q-10-58-55.5-95t-106.5-37q-63 0-97.5 33.5t-34.5 98.5h44q0-78 89-78 43 0 76 20.5t41 57.5z"/><glyph glyph-name="Uring" unicode="Ů" horiz-adv-x="710" d="M311-18q-119 0-176.5 63t-57.5 152q0 36 6 67l78 444h71l-77-436q-6-32-6-61 0-74 39.5-120.5t126.5-46.5q187 0 227 228l77 436h71l-78-444q-7-39-19-75t-35.5-75-55.5-67-81.5-46.5-109.5-18.5zm124 772q-37 0-61 22t-24 57q0 47 31 80t77 33q38 0 61.5-22t23.5-57q0-47-30.5-80t-77.5-33zm74 111q0 22-14.5 37t-38.5 15q-30 0-50.5-24t-20.5-57q0-23 14-37.5t38-14.5q31 0 51.5 23.5t20.5 57.5z"/><glyph glyph-name="uring" unicode="ů" horiz-adv-x="577" d="M429 0h-65q8 62 11 80h-2q-27-43-70-67.5t-90-24.5q-75 0-118 38.5t-43 104.5q0 20 5 50l51 287h67l-46-259q-6-31-6-59 0-105 104-105 58 0 107 47t65 136l42 240h67l-64-365q-10-50-15-103zm-102 554q-37 0-61 22t-24 57q0 47 31 80t77 33q38 0 61.5-22t23.5-57q0-47-30.5-80t-77.5-33zm74 111q0 22-14.5 37t-38.5 15q-30 0-50.5-24t-20.5-57q0-23 14-37.5t38-14.5q31 0 51.5 23.5t20.5 57.5z"/><glyph glyph-name="Uhungarumlaut" unicode="Ű" horiz-adv-x="710" d="M311-18q-119 0-176.5 63t-57.5 152q0 36 6 67l78 444h71l-77-436q-6-32-6-61 0-74 39.5-120.5t126.5-46.5q187 0 227 228l77 436h71l-78-444q-7-39-19-75t-35.5-75-55.5-67-81.5-46.5-109.5-18.5zm216 926l-159-144h-59l127 144h91zm170 0l-158-144h-59l126 144h91z"/><glyph glyph-name="uhungarumlaut" unicode="ű" horiz-adv-x="577" d="M429 0h-65q8 62 11 80h-2q-27-43-70-67.5t-90-24.5q-75 0-118 38.5t-43 104.5q0 20 5 50l51 287h67l-46-259q-6-31-6-59 0-105 104-105 58 0 107 47t65 136l42 240h67l-64-365q-10-50-15-103zm-12 708l-159-144h-59l127 144h91zm170 0l-158-144h-59l126 144h91z"/><glyph glyph-name="Uogonek" unicode="Ų" horiz-adv-x="710" d="M311-18q-119 0-176.5 63t-57.5 152q0 36 6 67l78 444h71l-77-436q-6-32-6-61 0-74 39.5-120.5t126.5-46.5q187 0 227 228l77 436h71l-78-444q-8-44-23-84t-41.5-81.5-71-71-101.5-39.5q-85-77-85-122 0-35 43-35 31 0 55 22l12-40q-44-36-92-36-33 0-56 18t-23 51q0 67 88 136h-6z"/><glyph glyph-name="uogonek" unicode="ų" horiz-adv-x="577" d="M409-147l12-40q-44-36-92-36-33 0-56 18t-23 51q0 75 113 154h1q8 62 11 80h-2q-27-43-70-67.5t-90-24.5q-75 0-118 38.5t-43 104.5q0 20 5 50l51 287h67l-46-259q-6-31-6-59 0-105 104-105 58 0 107 47t65 136l42 240h67l-64-365q-10-50-15-103h-18q-100-84-100-134 0-35 43-35 31 0 55 22z"/><glyph glyph-name="Wcircumflex" unicode="Ŵ" horiz-adv-x="960" d="M161 708l57-609h2l295 609h86l59-609h2l291 609h76l-345-708h-84l-57 610h-2l-299-610h-84l-73 708h76zm472 200l83-144h-63l-64 108-102-108h-69l135 144h80z"/><glyph glyph-name="wcircumflex" unicode="ŵ" horiz-adv-x="733" d="M52 468h70l32-380h2l198 380h64l55-380h3l187 380h72l-239-468h-72l-53 379h-2l-195-379h-71zm414 240l83-144h-63l-64 108-102-108h-69l135 144h80z"/><glyph glyph-name="Ycircumflex" unicode="Ŷ" horiz-adv-x="557" d="M301 305l-54-305h-71l54 305-180 403h84l141-344 283 344h89zm116 603l83-144h-63l-64 108-102-108h-69l135 144h80z"/><glyph glyph-name="ycircumflex" unicode="ŷ" horiz-adv-x="483" d="M114 468l75-394h2l228 394h75l-354-589q-37-60-72-89.5t-83-29.5q-29 0-57 6l10 62q22-8 44-8 30 0 53.5 20.5t48.5 62.5l58 98-98 467h70zm233 240l83-144h-63l-64 108-102-108h-69l135 144h80z"/><glyph glyph-name="Ydieresis" unicode="Ÿ" horiz-adv-x="557" d="M301 305l-54-305h-71l54 305-180 403h84l141-344 283 344h89zm7 544q0-20-14.5-35t-33.5-15q-20 0-34 13t-14 34 15 36 35 15 33-13.5 13-34.5zm198 0q0-20-14.5-35t-34.5-15-33.5 13-13.5 34 14.5 36 34.5 15 33.5-13.5 13.5-34.5z"/><glyph glyph-name="Zacute" unicode="Ź" horiz-adv-x="572" d="M608 708l-11-60-518-585h419l-11-63h-512l11 60 519 585h-398l11 63h490zm-83 200l-158-144h-56l126 144h88z"/><glyph glyph-name="zacute" unicode="ź" horiz-adv-x="442" d="M430 468l-9-48-344-361h290l-10-59h-380l8 48 343 363h-265l11 57h356zm-9 240l-158-144h-56l126 144h88z"/><glyph glyph-name="Zdotaccent" unicode="Ż" horiz-adv-x="572" d="M608 708l-11-60-518-585h419l-11-63h-512l11 60 519 585h-398l11 63h490zm-179 141q0-20-14-34t-33-14-32.5 12.5-13.5 32.5q0 21 14.5 35t33.5 14 32-12.5 13-33.5z"/><glyph glyph-name="zdotaccent" unicode="ż" horiz-adv-x="442" d="M430 468l-9-48-344-361h290l-10-59h-380l8 48 343 363h-265l11 57h356zm-106 181q0-20-14-34t-33-14-32.5 12.5-13.5 32.5q0 21 14.5 35t33.5 14 32-12.5 13-33.5z"/><glyph glyph-name="Zcaron" unicode="Ž" horiz-adv-x="572" d="M608 708l-11-60-518-585h419l-11-63h-512l11 60 519 585h-398l11 63h490zm-72 200l-135-144h-80l-83 144h63l64-108 102 108h69z"/><glyph glyph-name="zcaron" unicode="ž" horiz-adv-x="442" d="M430 468l-9-48-344-361h290l-10-59h-380l8 48 343 363h-265l11 57h356zm5 240l-135-144h-80l-83 144h63l64-108 102 108h69z"/><glyph glyph-name="florin" unicode="ƒ" horiz-adv-x="580" d="M443 419l-10-54h-119l-129-352q-55-152-182-152-49 0-77 24l40 48q21-12 50-12 42 0 65 28.5t40 77.5l122 338h-108l10 54h119l52 144q57 157 180 157 52 0 90-29l-43-48q-25 17-54 17-71 0-110-116l-44-125h108z"/><glyph glyph-name="Scommaaccent" unicode="Ș" horiz-adv-x="564" d="M552 642l-61-44q-45 66-139 66-69 0-121.5-37t-52.5-105q0-50 32.5-78t96.5-52q38-15 64.5-28t55.5-35 44-53 15-69q0-39-13.5-76t-41.5-72-80-56-121-21q-67 0-127 27.5t-90 77.5l64 41q21-37 62-60.5t94-23.5q75 0 126.5 41.5t51.5 108.5q0 55-37.5 84.5t-110.5 56.5-116 67.5-43 110.5q0 93 67.5 153t184.5 60q69 0 120.5-23t75.5-61zm-263-687l-115-185h-57l101 185h71z"/><glyph glyph-name="scommaaccent" unicode="ș" horiz-adv-x="444" d="M407 403l-53-38q-30 59-109 59-43 0-77-19t-34-57q0-34 21-49t72-30q72-20 106.5-52t34.5-85q0-71-55.5-107.5t-125.5-36.5q-61 0-112 22.5t-79 66.5l58 38q17-30 52.5-50t77.5-20q48 0 82.5 20t34.5 60q0 35-26.5 54.5t-87.5 39.5q-54 17-86 44.5t-32 79.5q0 67 54.5 102t125.5 35q54 0 96.5-21t61.5-56zm-182-448l-115-185h-57l101 185h71z"/><glyph glyph-name="uni021A" unicode="Ț" horiz-adv-x="547" d="M364 645l-114-645h-71l114 645h-237l11 63h546l-11-63h-238zm-100-690l-115-185h-57l101 185h71z"/><glyph glyph-name="uni021B" unicode="ț" horiz-adv-x="307" d="M314 468l-11-56h-127l-49-274q-3-18-3-32 0-55 58-55 37 0 57 15l-8-58q-26-14-77-14-41 0-70.5 21t-29.5 72q0 14 3 32l52 293h-97l11 56h95l23 132h67l-23-132h129zm-122-513l-115-185h-57l101 185h71z"/><glyph glyph-name="circumflex" unicode="ˆ" d="M231 708l83-144h-63l-64 108-102-108h-69l135 144h80z"/><glyph glyph-name="caron" unicode="ˇ" d="M340 708l-135-144h-80l-83 144h63l64-108 102 108h69z"/><glyph glyph-name="uni02C9" unicode="ˉ" d="M316 854l-9-54h-270l9 54h270z"/><glyph glyph-name="breve" unicode="˘" d="M294 708h44q-10-58-55.5-95t-106.5-37q-63 0-97.5 33.5t-34.5 98.5h44q0-78 89-78 43 0 76 20.5t41 57.5z"/><glyph glyph-name="dotaccent" unicode="˙" d="M227 649q0-20-14-34t-33-14-32.5 12.5-13.5 32.5q0 21 14.5 35t33.5 14 32-12.5 13-33.5z"/><glyph glyph-name="ring" unicode="˚" d="M170 554q-37 0-61 22t-24 57q0 47 31 80t77 33q38 0 61.5-22t23.5-57q0-47-30.5-80t-77.5-33zm74 111q0 22-14.5 37t-38.5 15q-30 0-50.5-24t-20.5-57q0-23 14-37.5t38-14.5q31 0 51.5 23.5t20.5 57.5z"/><glyph glyph-name="ogonek" unicode="˛" d="M112-147l12-40q-44-36-92-36-33 0-56 18t-23 51q0 75 113 154h48q-100-84-100-134 0-35 43-35 31 0 55 22z"/><glyph glyph-name="tilde" unicode="˜" d="M49 576h-43q36 104 110 104 27 0 69-23 46-23 63-23 36 0 58 50h43q-38-104-111-104-23 0-69 23-40 23-63 23-37 0-57-50z"/><glyph glyph-name="hungarumlaut" unicode="˝" d="M197 708l-159-144h-59l127 144h91zm170 0l-158-144h-59l126 144h91z"/><glyph glyph-name="uni0394" unicode="Δ" horiz-adv-x="670" d="M657 0h-642l281 712h74zm-96 62l-229 583-226-583h455z"/><glyph glyph-name="uni03A9" unicode="Ω" horiz-adv-x="744" d="M685 0h-251v181q89 15 136.5 78.5t47.5 155.5q0 106-72.5 175.5t-179.5 69.5-179.5-69.5-72.5-175.5q0-92 48-156t136-78v-181h-251v58h197v82q-92 26-144.5 102t-52.5 174q0 131 94 218t226 87 225-86.5 93-217.5q0-99-52-175t-145-102v-82h197v-58z"/><glyph glyph-name="uni03BC" unicode="μ" horiz-adv-x="556" d="M72-228v696h66v-259q0-88 28-124.5t99-36.5q62 0 102 48t40 132v240h66v-365q0-18 5-103h-71v76h-2q-22-36-67-62t-90-26q-69 0-110 29v-245h-66z"/><glyph glyph-name="pi" unicode="π" horiz-adv-x="563" d="M530 11q-37-17-64-17-23 0-38.5 7t-23.5 16-12 27-5 31-1 36v298h-220v-409h-64v409h-70v59h494v-59h-76v-305q0-18 1.5-27.5t10.5-18 26-8.5q20 0 42 10v-49z"/><glyph glyph-name="endash" unicode="–" horiz-adv-x="400" d="M370 271l-10-57h-340l10 57h340z"/><glyph glyph-name="emdash" unicode="—" horiz-adv-x="600" d="M570 271l-10-57h-540l10 57h540z"/><glyph glyph-name="quoteleft" unicode="‘" horiz-adv-x="222" d="M71 473l123 235h57l-109-235h-71z"/><glyph glyph-name="quoteright" unicode="’" horiz-adv-x="222" d="M251 708l-123-235h-57l109 235h71z"/><glyph glyph-name="quotesinglbase" unicode="‚" horiz-adv-x="222" d="M143 95l-123-235h-57l109 235h71z"/><glyph glyph-name="quotedblleft" unicode="“" horiz-adv-x="387" d="M71 473l123 235h57l-109-235h-71zm165 0l123 235h57l-109-235h-71z"/><glyph glyph-name="quotedblright" unicode="”" horiz-adv-x="387" d="M416 708l-123-235h-57l109 235h71zm-165 0l-123-235h-57l109 235h71z"/><glyph glyph-name="quotedblbase" unicode="„" horiz-adv-x="387" d="M308 95l-123-235h-57l109 235h71zm-165 0l-123-235h-57l109 235h71z"/><glyph glyph-name="dagger" unicode="†" horiz-adv-x="556" d="M382 708l-36-204h204l-11-60h-204l-100-570h-66l100 570h-204l11 60h204l36 204h66z"/><glyph glyph-name="daggerdbl" unicode="‡" horiz-adv-x="556" d="M382 708l-34-192h195l-11-60h-195l-58-330h195l-10-60h-195l-34-192h-66l34 192h-195l10 60h195l58 330h-195l11 60h195l34 192h66z"/><glyph glyph-name="bullet" unicode="•" horiz-adv-x="500" d="M73 354q0 74 51.5 125.5t125.5 51.5 125.5-51.5 51.5-125.5-51.5-125.5-125.5-51.5-125.5 51.5-51.5 125.5z"/><glyph glyph-name="ellipsis" unicode="…" horiz-adv-x="1000" d="M174 49q0-22-16-38.5t-38-16.5-37.5 14.5-15.5 37.5q0 24 16.5 40t38.5 16 37-14.5 15-38.5zm334 0q0-22-16-38.5t-38-16.5-37.5 14.5-15.5 37.5q0 24 16.5 40t38.5 16 37-14.5 15-38.5zm334 0q0-22-16-38.5t-38-16.5-37.5 14.5-15.5 37.5q0 24 16.5 40t38.5 16 37-14.5 15-38.5z"/><glyph glyph-name="perthousand" unicode="‰" horiz-adv-x="1000" d="M203 412q-60 0-98.5 35.5t-38.5 90.5q0 75 50 128.5t125 53.5q60 0 97.5-34.5t37.5-90.5q0-77-49-130t-124-53zm115 176q0 36-22 58.5t-60 22.5q-47 0-78.5-36t-31.5-88q0-35 22-58t58-23q49 0 80.5 36.5t31.5 87.5zm105-600q-60 0-98.5 35.5t-38.5 90.5q0 75 50 128.5t125 53.5q60 0 97.5-34.5t37.5-90.5q0-77-49-130t-124-53zm115 176q0 36-22 58.5t-60 22.5q-47 0-78.5-36t-31.5-88q0-35 22-58t58-23q49 0 80.5 36.5t31.5 87.5zm238-176q-60 0-98.5 35.5t-38.5 90.5q0 75 50 128.5t125 53.5q60 0 97.5-34.5t37.5-90.5q0-77-49-130t-124-53zm115 176q0 36-22 58.5t-60 22.5q-47 0-78.5-36t-31.5-88q0-35 22-58t58-23q49 0 80.5 36.5t31.5 87.5zm-247 548l-581-743-45 27 582 743z"/><glyph glyph-name="guilsinglleft" unicode="‹" horiz-adv-x="315" d="M117 235l85-171-50-33-106 209 177 209 41-37z"/><glyph glyph-name="guilsinglright" unicode="›" horiz-adv-x="315" d="M177 245l-85 171 50 33 106-209-177-209-41 37z"/><glyph glyph-name="fraction" unicode="⁄" horiz-adv-x="100" d="M366 712l-581-743-45 27 582 743z"/><glyph glyph-name="Euro" unicode="€" horiz-adv-x="580" d="M559 633q-47 30-116 30-85 0-150.5-55.5t-100.5-138.5h300l-28-55h-292q-21-58-23-122h257l-27-55h-231q0-88 53-140t144-52q72 0 136 40l19-56q-74-47-169-47-120 0-187.5 75t-67.5 180h-76l29 55h49q2 54 23 122h-69l30 55h57q44 114 133 185.5t199 71.5q89 0 143-32z"/><glyph glyph-name="afii61289" unicode="ℓ" horiz-adv-x="500" d="M459 621q0-83-68-172.5t-174-173.5q-35-148-35-180 0-30 16-43.5t38-13.5q42 0 99 41h2l19-40q-71-53-137-53-48 0-77 25.5t-29 71.5q0 21 27 145l-69-60h-2l-21 39 105 84 56 262q17 84 58.5 126t97.5 42q41 0 67.5-28t26.5-72zm-58-4q0 24-11.5 40t-30.5 16q-58 0-80-106l-49-228q67 62 119 137.5t52 140.5z"/><glyph glyph-name="trademark" unicode="™" horiz-adv-x="1000" d="M459 708v-54h-133v-358h-60v358h-136v54h329zm527 0v-412h-60v346h-2l-139-346h-39l-139 346h-2v-346h-60v412h93l129-316 129 316h90z"/><glyph glyph-name="Omega" unicode="Ω" horiz-adv-x="744" d="M685 0h-251v181q89 15 136.5 78.5t47.5 155.5q0 106-72.5 175.5t-179.5 69.5-179.5-69.5-72.5-175.5q0-92 48-156t136-78v-181h-251v58h197v82q-92 26-144.5 102t-52.5 174q0 131 94 218t226 87 225-86.5 93-217.5q0-99-52-175t-145-102v-82h197v-58z"/><glyph glyph-name="estimated" unicode="℮" horiz-adv-x="604" d="M561 259h-404v-181q59-59 145-59 122 0 193 120l35-21q-46-72-98-103.5t-130-31.5q-115 0-186.5 79t-71.5 197q0 119 71 197.5t187 78.5q115 0 186.5-77t72.5-199zm-404 36h291v145q-63 60-147 60t-144-60v-145z"/><glyph glyph-name="partialdiff" unicode="∂" horiz-adv-x="496" d="M455 363q0-50-4.5-96t-19.5-99-38.5-91-65.5-63.5-97-25.5q-90 0-144.5 66t-54.5 158q0 90 52.5 151.5t141.5 61.5q97 0 166-84 0 9 .5 26t.5 26q0 46-9 90.5t-28.5 87-56 69-85.5 26.5q-52 0-112-46l-36 43q67 58 145 58 68 0 118.5-33t76.5-88.5 38-114 12-122.5zm-69-85q-68 91-155 91-64 0-100.5-46.5t-36.5-112.5 36.5-117.5 100.5-51.5q41 0 72 23.5t47.5 61.5 25 75.5 10.5 76.5z"/><glyph glyph-name="Delta" unicode="∆" horiz-adv-x="670" d="M657 0h-642l281 712h74zm-96 62l-229 583-226-583h455z"/><glyph glyph-name="product" unicode="∏" horiz-adv-x="711" d="M641-214h-66v938h-438v-938h-66v1000h570v-1000z"/><glyph glyph-name="summation" unicode="∑" horiz-adv-x="604" d="M578-214h-553v55l329 448-315 441v56h527v-62h-442l309-435-328-442h473v-61z"/><glyph glyph-name="minus" unicode="−" horiz-adv-x="666" d="M588 333v-60h-510v60h510z"/><glyph glyph-name="uni2215" unicode="∕" horiz-adv-x="100" d="M366 712l-581-743-45 27 582 743z"/><glyph glyph-name="uni2219" unicode="∙" horiz-adv-x="260" d="M184 315q0-22-16-38.5t-38-16.5-37.5 14.5-15.5 37.5q0 24 16.5 40t38.5 16 37-14.5 15-38.5z"/><glyph glyph-name="radical" unicode="√" horiz-adv-x="493" d="M502 786l-210-1000h-66l-164 340-46-22-24 50 100 48 158-332 189 916h63z"/><glyph glyph-name="infinity" unicode="∞" horiz-adv-x="741" d="M700 252q0-64-38.5-106t-101.5-42q-36 0-73.5 18.5t-59 36.5-56.5 52q-9-7-33-28.5t-36.5-31-34-23-42.5-19-44-5.5q-62 0-101 41.5t-39 103.5q0 63 38 105.5t100 42.5q28 0 53.5-8.5t54.5-30.5 40.5-32 43.5-41q5 5 22.5 21.5t24.5 23 23 20.5 27.5 20 27 14 31 11 31.5 3q63 0 102.5-41.5t39.5-104.5zm-57-3q0 40-22 66t-61 26q-9 0-18.5-1.5t-19-6-17.5-8.5-18.5-11.5-16.5-11.5-17-14-15-13.5-15.5-14-13.5-12.5q33-29 47.5-41t46.5-28.5 60-16.5q37 0 58.5 24.5t21.5 62.5zm-310 0q-3 2-18 15t-21 18-20.5 16.5-24 17-22.5 12-25 9.5-24 3q-37 0-58.5-26.5t-21.5-63.5q0-39 22.5-63.5t61.5-24.5q62 0 151 87z"/><glyph glyph-name="integral" unicode="∫" horiz-adv-x="543" d="M406 736q0-16-10.5-25t-26.5-9q-20 0-32.5 20t-19.5 20q-10 0-17-9.5t-10.5-25.5-5.5-34-2.5-39 0-36.5 1-30 .5-16.5v-504q0-122-16-173-28-87-106-87-24 0-42 12t-18 35q0 13 9.5 22.5t23.5 9.5q15 0 23.5-9.5t14-19 12.5-9.5q32 0 32 159l1 21v495q0 8-1 43.5t0 53.5 3.5 52 10.5 53 20.5 40 34.5 31 51 10q27 0 48.5-12.5t21.5-37.5z"/><glyph glyph-name="approxequal" unicode="≈" horiz-adv-x="666" d="M596 402q-6-58-37-97.5t-86-39.5q-48 0-145 37-98 36-133 36-32 0-53-23.5t-26-56.5h-45q8 60 38 99.5t86 39.5q45 0 143-36 97-37 136-37 62 0 79 78h43zm0-170q-7-59-37.5-98.5t-86.5-39.5q-49 0-144 37-98 36-133 36-32 0-53-23.5t-26-56.5h-45q9 60 38 100t85 40q44 0 144-36 95-37 136-37 61 0 78 78h44z"/><glyph glyph-name="notequal" unicode="≠" horiz-adv-x="666" d="M584 120h-287l-76-144-52 27 62 117h-149v60h181l68 130h-249v60h282l77 147 52-28-63-119h154v-60h-186l-69-130h255v-60z"/><glyph glyph-name="lessequal" unicode="≤" horiz-adv-x="666" d="M584 108l-502 188v65l502 189v-65l-419-157 419-155v-65zm0-102h-502v59h502v-59z"/><glyph glyph-name="greaterequal" unicode="≥" horiz-adv-x="666" d="M584 296l-502-188v65l420 155-420 157v65l502-189v-65zm0-290h-502v59h502v-59z"/><glyph glyph-name="lozenge" unicode="◊" horiz-adv-x="593" d="M498 356l-171-391h-63l-169 391 169 391h63zm-65 0l-137 325-136-325 136-325z"/><glyph glyph-name="uniF8FF" unicode="" horiz-adv-x="512" d="M222 117h56v67h-56v-67zm3 117h46q0 52 6 72 6 19 43 52 37 34 50 60t13 60q0 59-35 95t-89 36q-56 0-92-34t-43-103l50-8q11 95 82 95 31 0 53.5-24.5t22.5-60.5q0-20-9.5-37t-40.5-46q-31-31-46-59-13-25-13-81zm237-184h-412v617h412v-617zm50 668h-512v-718h512v718z"/><glyph glyph-name="ydieresis.sc" horiz-adv-x="432" d="M485 530l-255-301-40-229h-68l40 230-130 300h75l99-245 195 245h84zm-260 149q0-20-14.5-35t-33.5-15q-20 0-34 13t-14 34 15 36 35 15 33-13.5 13-34.5zm198 0q0-20-14.5-35t-34.5-15-33.5 13-13.5 34 14.5 36 34.5 15 33.5-13.5 13.5-34.5z"/><glyph glyph-name="n.sc" horiz-adv-x="605" d="M559 530l-94-530h-83l-198 435h-2l-76-435h-69l94 530h82l200-433h1l77 433h68z"/><glyph glyph-name="umacron.sc" horiz-adv-x="567" d="M530 530l-58-327q-39-215-233-215-86 0-133.5 44.5t-47.5 116.5q0 25 4 49l59 332h69l-58-322q-4-23-4-47 0-51 28.5-81.5t85.5-30.5q134 0 164 165l55 316h69zm-42 154l-9-54h-270l9 54h270z"/><glyph glyph-name="ohungarumlaut.sc" horiz-adv-x="649" d="M596 312q0-134-87.5-229t-221.5-95q-112 0-176.5 63.5t-64.5 166.5q0 135 88.5 229.5t220.5 94.5q111 0 176-63.5t65-166.5zm-72-5q0 77-45.5 126.5t-127.5 49.5q-102 0-167.5-77t-65.5-182q0-77 45.5-126.5t127.5-49.5q104 0 168.5 76.5t64.5 182.5zm-54 431l-159-144h-59l127 144h91zm170 0l-158-144h-59l126 144h91z"/><glyph glyph-name="iogonek.sc" horiz-adv-x="246" d="M104-147l12-40q-44-36-92-36-33 0-56 18t-23 51q0 75 113 154h-21l94 530h69l-94-530q-100-84-100-134 0-35 43-35 31 0 55 22z"/><glyph glyph-name="p.sc" horiz-adv-x="472" d="M442 396q0-77-51-121.5t-150-44.5h-95l-41-230h-68l94 530h146q78 0 121.5-35t43.5-99zm-67-7q0 41-27.5 63t-73.5 22h-86l-33-188h86q65 0 99.5 27.5t34.5 75.5z"/><glyph glyph-name="macron.sc" d="M316 684l-9-54h-270l9 54h270z"/><glyph glyph-name="ugrave.sc" horiz-adv-x="567" d="M530 530l-58-327q-39-215-233-215-86 0-133.5 44.5t-47.5 116.5q0 25 4 49l59 332h69l-58-322q-4-23-4-47 0-51 28.5-81.5t85.5-30.5q134 0 164 165l55 316h69zm-215 64l-132 144h88l100-144h-56z"/><glyph glyph-name="oe.sc" horiz-adv-x="770" d="M748 530l-10-57h-255l-30-171h244l-10-56h-243l-34-188h276l-10-58h-383q-114 0-180.5 58t-66.5 160q0 132 91 222t224 90h387zm-333-61h-59q-104 0-172.5-72t-68.5-174q0-74 48.5-118t133.5-44h46z"/><glyph glyph-name="udieresis.sc" horiz-adv-x="567" d="M530 530l-58-327q-39-215-233-215-86 0-133.5 44.5t-47.5 116.5q0 25 4 49l59 332h69l-58-322q-4-23-4-47 0-51 28.5-81.5t85.5-30.5q134 0 164 165l55 316h69zm-230 149q0-20-14.5-35t-33.5-15q-20 0-34 13t-14 34 15 36 35 15 33-13.5 13-34.5zm198 0q0-20-14.5-35t-34.5-15-33.5 13-13.5 34 14.5 36 34.5 15 33.5-13.5 13.5-34.5z"/><glyph glyph-name="grave.sc" d="M155 594l-132 144h88l100-144h-56z"/><glyph glyph-name="hungarumlaut.cap" d="M197 908l-159-144h-59l127 144h91zm170 0l-158-144h-59l126 144h91z"/><glyph glyph-name="otilde.sc" horiz-adv-x="649" d="M596 312q0-134-87.5-229t-221.5-95q-112 0-176.5 63.5t-64.5 166.5q0 135 88.5 229.5t220.5 94.5q111 0 176-63.5t65-166.5zm-72-5q0 77-45.5 126.5t-127.5 49.5q-102 0-167.5-77t-65.5-182q0-77 45.5-126.5t127.5-49.5q104 0 168.5 76.5t64.5 182.5zm-267 299h-43q36 104 110 104 27 0 69-23 46-23 63-23 36 0 58 50h43q-38-104-111-104-27 0-69 23-44 23-63 23-37 0-57-50z"/><glyph glyph-name="imacron.sc" horiz-adv-x="246" d="M200 530l-94-530h-69l94 530h69zm125 154l-9-54h-270l9 54h270z"/><glyph glyph-name="ocircumflex.sc" horiz-adv-x="649" d="M596 312q0-134-87.5-229t-221.5-95q-112 0-176.5 63.5t-64.5 166.5q0 135 88.5 229.5t220.5 94.5q111 0 176-63.5t65-166.5zm-72-5q0 77-45.5 126.5t-127.5 49.5q-102 0-167.5-77t-65.5-182q0-77 45.5-126.5t127.5-49.5q104 0 168.5 76.5t64.5 182.5zm-73 431l83-144h-63l-64 108-102-108h-69l135 144h80z"/><glyph glyph-name="perthousand.sc" horiz-adv-x="972" d="M168 275q-51 0-84 30.5t-33 79.5q0 65 42.5 111t108.5 46q51 0 83-30.5t32-78.5q0-66-42-112t-107-46zm91 150q0 27-17.5 45.5t-45.5 18.5q-36 0-61.5-29t-25.5-68q0-27 18-45.5t45-18.5q36 0 61.5 29t25.5 68zm207-437q-51 0-84 30.5t-33 79.5q0 65 43 110.5t108 45.5q51 0 83-30t32-79q0-66-42-111.5t-107-45.5zm92 150q0 27-17.5 45.5t-45.5 18.5q-36 0-61.5-29t-25.5-68q0-27 18-45.5t45-18.5q36 0 61.5 29t25.5 68zm207-150q-51 0-84 30.5t-33 79.5q0 65 43 110.5t108 45.5q51 0 83-30t32-79q0-66-42-111.5t-107-45.5zm92 150q0 27-17.5 45.5t-45.5 18.5q-36 0-61.5-29t-25.5-68q0-27 18-45.5t45-18.5q36 0 61.5 29t25.5 68zm-288 393l-439-562-41 29 440 561z"/><glyph glyph-name="napostrophe.sc" horiz-adv-x="648" d="M602 530l-94-530h-83l-198 435h-2l-76-435h-69l94 530h82l200-433h1l77 433h68zm-460 0l-115-185h-57l101 185h71z"/><glyph glyph-name="ij.sc" horiz-adv-x="639" d="M200 530l-94-530h-69l94 530h69zm400 0l-64-373q-28-169-166-169-54 0-91 31.5t-47 82.5l61 18q18-71 77-71 44 0 65.5 28.5t31.5 85.5l65 367h68z"/><glyph glyph-name="percent.sc" horiz-adv-x="684" d="M168 275q-51 0-84 30.5t-33 79.5q0 65 42.5 111t108.5 46q51 0 83-30.5t32-78.5q0-66-42-112t-107-46zm91 150q0 27-17.5 45.5t-45.5 18.5q-36 0-61.5-29t-25.5-68q0-27 18-45.5t45-18.5q36 0 61.5 29t25.5 68zm207-437q-51 0-84 30.5t-33 79.5q0 65 43 110.5t108 45.5q51 0 83-30t32-79q0-66-42-111.5t-107-45.5zm92 150q0 27-17.5 45.5t-45.5 18.5q-36 0-61.5-29t-25.5-68q0-27 18-45.5t45-18.5q36 0 61.5 29t25.5 68zm11 393l-439-562-41 29 440 561z"/><glyph glyph-name="obreve.sc" horiz-adv-x="649" d="M596 312q0-134-87.5-229t-221.5-95q-112 0-176.5 63.5t-64.5 166.5q0 135 88.5 229.5t220.5 94.5q111 0 176-63.5t65-166.5zm-72-5q0 77-45.5 126.5t-127.5 49.5q-102 0-167.5-77t-65.5-182q0-77 45.5-126.5t127.5-49.5q104 0 168.5 76.5t64.5 182.5zm-31 431h44q-10-58-55.5-95t-106.5-37q-63 0-97.5 33.5t-34.5 98.5h44q0-78 89-78 44 0 76.5 20.5t40.5 57.5z"/><glyph glyph-name="two.onum" horiz-adv-x="512" d="M453 386q0-31-8.5-58t-30-53.5-38.5-44-56-43.5-58.5-38-68.5-41l-75-44v-3h296l-12-61h-400l12 63 95 57q154 92 199 129 75 64 75 131 0 53-33 78.5t-78 25.5q-91 0-142-88l-50 35q32 55 83 84.5t112 29.5q77 0 127.5-42t50.5-117z"/><glyph glyph-name="nine.sc" horiz-adv-x="479" d="M428 385q0-75-77-177l-161-208h-80l183 225-2 2q-31-18-72-18-65 0-105.5 40t-40.5 104q0 80 56 134.5t139 54.5q71 0 115.5-42.5t44.5-114.5zm-65 1q0 41-27.5 70t-70.5 29q-56 0-91-36t-35-91q0-42 26.5-70t68.5-28q55 0 92 36.5t37 89.5z"/><glyph glyph-name="oacute.sc" horiz-adv-x="649" d="M596 312q0-134-87.5-229t-221.5-95q-112 0-176.5 63.5t-64.5 166.5q0 135 88.5 229.5t220.5 94.5q111 0 176-63.5t65-166.5zm-72-5q0 77-45.5 126.5t-127.5 49.5q-102 0-167.5-77t-65.5-182q0-77 45.5-126.5t127.5-49.5q104 0 168.5 76.5t64.5 182.5zm0 431l-158-144h-56l126 144h88z"/><glyph glyph-name="idotaccent.sc" horiz-adv-x="246" d="M200 530l-94-530h-69l94 530h69zm28 149q0-20-14-34t-33-14-32.5 12.5-13.5 32.5q0 21 14.5 35t33.5 14 32-12.5 13-33.5z"/><glyph glyph-name="ucircumflex.sc" horiz-adv-x="567" d="M530 530l-58-327q-39-215-233-215-86 0-133.5 44.5t-47.5 116.5q0 25 4 49l59 332h69l-58-322q-4-23-4-47 0-51 28.5-81.5t85.5-30.5q134 0 164 165l55 316h69zm-122 208l83-144h-63l-64 108-102-108h-69l135 144h80z"/><glyph glyph-name="macron.cap" d="M316 854l-9-54h-270l9 54h270z"/><glyph glyph-name="oslash.sc" horiz-adv-x="649" d="M22-28l-25 31 88 79q-39 58-39 136 0 135 88.5 229.5t220.5 94.5q107 0 172-60l78 70 26-31-77-70q42-58 42-139 0-134-87.5-229t-221.5-95q-111 0-177 63zm504 335q0 53-25 97l-339-306q47-50 129-50 104 0 169.5 76.5t65.5 182.5zm-410-83q0-54 22-94l339 306q-49 47-126 47-102 0-168.5-77.5t-66.5-181.5z"/><glyph glyph-name="yacute.sc" horiz-adv-x="432" d="M485 530l-255-301-40-229h-68l40 230-130 300h75l99-245 195 245h84zm-64 208l-158-144h-56l126 144h88z"/><glyph glyph-name="uhungarumlaut.sc" horiz-adv-x="567" d="M530 530l-58-327q-39-215-233-215-86 0-133.5 44.5t-47.5 116.5q0 25 4 49l59 332h69l-58-322q-4-23-4-47 0-51 28.5-81.5t85.5-30.5q134 0 164 165l55 316h69zm-106 208l-159-144h-59l127 144h91zm170 0l-158-144h-59l126 144h91z"/><glyph glyph-name="omacron.sc" horiz-adv-x="649" d="M596 312q0-134-87.5-229t-221.5-95q-112 0-176.5 63.5t-64.5 166.5q0 135 88.5 229.5t220.5 94.5q111 0 176-63.5t65-166.5zm-72-5q0 77-45.5 126.5t-127.5 49.5q-102 0-167.5-77t-65.5-182q0-77 45.5-126.5t127.5-49.5q104 0 168.5 76.5t64.5 182.5zm3 377l-9-54h-270l9 54h270z"/><glyph glyph-name="z.sc" horiz-adv-x="478" d="M470 530l-10-55-375-417h307l-10-58h-392l10 61 373 413h-284l11 56h370z"/><glyph glyph-name="questiondown.sc" horiz-adv-x="424" d="M309 489q0-21-14.5-36t-34.5-15-33 13-13 34q0 20 14.5 35.5t34.5 15.5 33-12.5 13-34.5zm42-374q-15-59-60-93t-104-34q-61 0-100 30.5t-39 92.5q0 42 22 75t71 66q39 26 53.5 45t19.5 49l3 22h65l-5-31q-10-62-72-108l-34-26q-55-41-55-88 0-30 20.5-49t53.5-19q77 0 99 80z"/><glyph glyph-name="idieresis.sc" horiz-adv-x="246" d="M200 530l-94-530h-69l94 530h69zm-65 149q0-20-14.5-35t-33.5-15q-20 0-34 13t-14 34 15 36 35 15 33-13.5 13-34.5zm198 0q0-20-14.5-35t-34.5-15-33.5 13-13.5 34 14.5 36 34.5 15 33.5-13.5 13.5-34.5z"/><glyph glyph-name="one.sc" horiz-adv-x="479" d="M341 530l-94-530h-67l79 443-112-79-34 48 168 118h60z"/><glyph glyph-name="question.sc" horiz-adv-x="424" d="M383 419q0-42-22-75t-71-66q-39-27-53-45.5t-19-48.5l-3-22h-65l5 31q10 62 73 108l35 26q54 39 54 88 0 32-21 50.5t-54 18.5q-76 0-100-81l-61 12q15 59 59.5 93t101.5 34q60 0 100.5-31t40.5-92zm-165-374q0-20-14.5-35.5t-34.5-15.5-33 12.5-13 34.5q0 21 14.5 36t34.5 15 33-13 13-34z"/><glyph glyph-name="iacute.sc" horiz-adv-x="246" d="M200 530l-94-530h-69l94 530h69zm151 208l-158-144h-56l126 144h88z"/><glyph glyph-name="three.sc" horiz-adv-x="479" d="M408 414q0-52-31-90t-85-49v-2q42-9 66-42t24-73q0-76-48.5-123t-136.5-47q-58 0-102.5 30.5t-60.5 81.5l61 23q11-37 39-57t66-20q54 0 84 31t30 80q0 43-29.5 67t-75.5 24h-33l11 55h29q61 0 93.5 28.5t32.5 78.5q0 32-23 54t-59 22q-61 0-99-62l-51 31q56 87 154 87 62 0 103-34.5t41-93.5z"/><glyph glyph-name="ordfeminine.sc" horiz-adv-x="369" d="M337 430h-51l-11 67h-130l-42-67h-56l189 291h45zm-68 104l-22 130-80-130h102z"/><glyph glyph-name="l.sc" horiz-adv-x="408" d="M354 58l-10-58h-307l94 530h69l-84-472h238z"/><glyph glyph-name="scommaaccent.sc" horiz-adv-x="441" d="M410 475l-51-41q-29 50-103 50-48 0-83.5-25.5t-35.5-71.5q0-32 19.5-49t67.5-34q76-27 110-62t34-90q0-77-54-120.5t-143-43.5q-59 0-106 22.5t-70 58.5l55 39q17-29 52-45t73-16q58 0 90 28t32 72q0 36-25.5 58.5t-83.5 43.5q-66 24-93 55t-27 78q0 74 56.5 117t137.5 43q51 0 90-19.5t58-47.5zm-202-520l-115-185h-57l101 185h71z"/><glyph glyph-name="uring.sc" horiz-adv-x="567" d="M530 530l-58-327q-39-215-233-215-86 0-133.5 44.5t-47.5 116.5q0 25 4 49l59 332h69l-58-322q-4-23-4-47 0-51 28.5-81.5t85.5-30.5q134 0 164 165l55 316h69zm-190 54q-37 0-61 22t-24 57q0 47 31 80t77 33q38 0 61.5-22t23.5-57q0-47-30.5-80t-77.5-33zm74 111q0 22-14.5 37t-38.5 15q-30 0-50.5-24t-20.5-57q0-23 14-37.5t38-14.5q31 0 51.5 23.5t20.5 57.5z"/><glyph glyph-name="i.sc" horiz-adv-x="246" d="M200 530l-94-530h-69l94 530h69z"/><glyph glyph-name="hcircumflex.sc" horiz-adv-x="579" d="M533 530l-92-530h-69l42 245h-265l-43-245h-69l93 530h69l-40-229h266l40 229h68zm-125 208l83-144h-63l-64 108-102-108h-69l135 144h80z"/><glyph glyph-name="ograve.sc" horiz-adv-x="649" d="M596 312q0-134-87.5-229t-221.5-95q-112 0-176.5 63.5t-64.5 166.5q0 135 88.5 229.5t220.5 94.5q111 0 176-63.5t65-166.5zm-72-5q0 77-45.5 126.5t-127.5 49.5q-102 0-167.5-77t-65.5-182q0-77 45.5-126.5t127.5-49.5q104 0 168.5 76.5t64.5 182.5zm-163 287l-132 144h88l100-144h-56z"/><glyph glyph-name="ycircumflex.sc" horiz-adv-x="432" d="M485 530l-255-301-40-229h-68l40 230-130 300h75l99-245 195 245h84zm-148 208l83-144h-63l-64 108-102-108h-69l135 144h80z"/><glyph glyph-name="o.sc" horiz-adv-x="649" d="M596 312q0-134-87.5-229t-221.5-95q-112 0-176.5 63.5t-64.5 166.5q0 135 88.5 229.5t220.5 94.5q111 0 176-63.5t65-166.5zm-72-5q0 77-45.5 126.5t-127.5 49.5q-102 0-167.5-77t-65.5-182q0-77 45.5-126.5t127.5-49.5q104 0 168.5 76.5t64.5 182.5z"/><glyph glyph-name="scircumflex.sc" horiz-adv-x="441" d="M410 475l-51-41q-29 50-103 50-48 0-83.5-25.5t-35.5-71.5q0-32 19.5-49t67.5-34q76-27 110-62t34-90q0-77-54-120.5t-143-43.5q-59 0-106 22.5t-70 58.5l55 39q17-29 52-45t73-16q58 0 90 28t32 72q0 36-25.5 58.5t-83.5 43.5q-66 24-93 55t-27 78q0 74 56.5 117t137.5 43q51 0 90-19.5t58-47.5zm-66 263l83-144h-63l-64 108-102-108h-69l135 144h80z"/><glyph glyph-name="j.sc" horiz-adv-x="394" d="M355 530l-64-373q-28-169-166-169-54 0-91 31.5t-47 82.5l61 18q18-71 77-71 44 0 65.5 28.5t31.5 85.5l65 367h68z"/><glyph glyph-name="igrave.sc" horiz-adv-x="246" d="M200 530l-94-530h-69l94 530h69zm-54 64l-132 144h88l100-144h-56z"/><glyph glyph-name="aring.sc" horiz-adv-x="517" d="M458 0h-71l-24 132h-251l-83-132h-77l342 530h62zm-104 187l-45 263-164-263h209zm-21 397q-37 0-61 22t-24 57q0 47 31 80t77 33q38 0 61.5-22t23.5-57q0-47-30.5-80t-77.5-33zm74 111q0 22-14.5 37t-38.5 15q-30 0-50.5-24t-20.5-57q0-23 14-37.5t38-14.5q31 0 51.5 23.5t20.5 57.5z"/><glyph glyph-name="ring.sc" d="M170 584q-37 0-61 22t-24 57q0 47 31 80t77 33q38 0 61.5-22t23.5-57q0-47-30.5-80t-77.5-33zm74 111q0 22-14.5 37t-38.5 15q-30 0-50.5-24t-20.5-57q0-23 14-37.5t38-14.5q31 0 51.5 23.5t20.5 57.5z"/><glyph glyph-name="hungarumlaut.sc" d="M197 738l-159-144h-59l127 144h91zm170 0l-158-144h-59l126 144h91z"/><glyph glyph-name="sterling.sc" horiz-adv-x="479" d="M445 502l-39-46q-29 30-73 30-89 0-112-125l-11-64h121l-10-51h-119l-33-189h189l-10-57h-325l10 57h69l34 189h-67l10 51h65l15 82q13 76 57.5 119.5t118.5 43.5q70 0 110-40z"/><glyph glyph-name="nacute.sc" horiz-adv-x="605" d="M559 530l-94-530h-83l-198 435h-2l-76-435h-69l94 530h82l200-433h1l77 433h68zm-59 208l-158-144h-56l126 144h88z"/><glyph glyph-name="ubreve.sc" horiz-adv-x="567" d="M530 530l-58-327q-39-215-233-215-86 0-133.5 44.5t-47.5 116.5q0 25 4 49l59 332h69l-58-322q-4-23-4-47 0-51 28.5-81.5t85.5-30.5q134 0 164 165l55 316h69zm-80 208h44q-10-58-55.5-95t-106.5-37q-63 0-97.5 33.5t-34.5 98.5h44q0-78 89-78 43 0 76 20.5t41 57.5z"/><glyph glyph-name="seven.sc" horiz-adv-x="479" d="M441 530l-11-61-299-469h-78l308 471h-251l9 59h322z"/><glyph glyph-name="odieresis.sc" horiz-adv-x="649" d="M596 312q0-134-87.5-229t-221.5-95q-112 0-176.5 63.5t-64.5 166.5q0 135 88.5 229.5t220.5 94.5q111 0 176-63.5t65-166.5zm-72-5q0 77-45.5 126.5t-127.5 49.5q-102 0-167.5-77t-65.5-182q0-77 45.5-126.5t127.5-49.5q104 0 168.5 76.5t64.5 182.5zm-184 372q0-20-14.5-35t-33.5-15q-20 0-34 13t-14 34 15 36 35 15 33-13.5 13-34.5zm198 0q0-20-14.5-35t-34.5-15-33.5 13-13.5 34 14.5 36 34.5 15 33.5-13.5 13.5-34.5z"/><glyph glyph-name="zcaron.sc" horiz-adv-x="478" d="M470 530l-10-55-375-417h307l-10-58h-392l10 61 373 413h-284l11 56h370zm-5 208l-135-144h-80l-83 144h63l64-108 102 108h69z"/><glyph glyph-name="nine.onum" horiz-adv-x="585" d="M523 341q0-230-385-526l-56 41q202 139 296 283l-3 2q-45-41-123-41-89 0-143 53t-54 137q0 108 71.5 181.5t186.5 73.5q94 0 152-55t58-149zm-70 3q0 60-40 100.5t-102 40.5q-83 0-133.5-54t-50.5-135q0-61 38-100.5t98-39.5q83 0 136.5 54.5t53.5 133.5z"/><glyph glyph-name="germandbls.sc" horiz-adv-x="886" d="M414 477l-51-41q-29 50-103 50-47 0-83-26.5t-36-72.5q0-32 19.5-49t67.5-34q76-27 110-62t34-90q0-77-54.5-121t-142.5-44q-59 0-106 22.5t-70 58.5l55 39q17-29 52-45t73-16q58 0 90 28.5t32 72.5q0 36-25.5 58.5t-83.5 43.5q-66 24-93 55t-27 78q0 74 56.5 118t137.5 44q51 0 90-19.5t58-47.5zm441 0l-51-41q-29 50-103 50-47 0-83-26.5t-36-72.5q0-32 19.5-49t67.5-34q76-27 110-62t34-90q0-77-54.5-121t-142.5-44q-59 0-106 22.5t-70 58.5l55 39q17-29 52-45t73-16q58 0 90 28.5t32 72.5q0 36-25.5 58.5t-83.5 43.5q-66 24-93 55t-27 78q0 74 56.5 118t137.5 44q51 0 90-19.5t58-47.5z"/><glyph glyph-name="aacute.sc" horiz-adv-x="517" d="M458 0h-71l-24 132h-251l-83-132h-77l342 530h62zm-104 187l-45 263-164-263h209zm167 551l-158-144h-56l126 144h88z"/><glyph glyph-name="q.sc" horiz-adv-x="649" d="M590 310q0-85-40-152.5t-107-97.5v-2h144l-11-58h-286q-113 0-178.5 60.5t-65.5 164.5q0 132 87 224.5t218 92.5q111 0 175-63.5t64-168.5zm-72-3q0 77-44.5 126.5t-126.5 49.5q-99 0-164-76t-65-177q0-79 45.5-125.5t129.5-46.5q95 0 160 74t65 175z"/><glyph glyph-name="exclamdown.sc" horiz-adv-x="281" d="M219 489q0-22-14.5-36.5t-34.5-14.5q-21 0-33.5 12.5t-12.5 33.5 14 36 34 15q21 0 34-12t13-34zm-30-118l-65-371h-66l65 371h66z"/><glyph glyph-name="jcircumflex.sc" horiz-adv-x="394" d="M355 530l-64-373q-28-169-166-169-54 0-91 31.5t-47 82.5l61 18q18-71 77-71 44 0 65.5 28.5t31.5 85.5l65 367h68zm40 208l83-144h-63l-64 108-102-108h-69l135 144h80z"/><glyph glyph-name="lacute.sc" horiz-adv-x="408" d="M354 58l-10-58h-307l94 530h69l-84-472h238zm7 680l-158-144h-56l126 144h88z"/><glyph glyph-name="zacute.sc" horiz-adv-x="478" d="M470 530l-10-55-375-417h307l-10-58h-392l10 61 373 413h-284l11 56h370zm-50 208l-158-144h-56l126 144h88z"/><glyph glyph-name="six.onum" horiz-adv-x="585" d="M516 238q0-108-71.5-181t-187.5-73q-93 0-151.5 55t-58.5 149q0 228 385 525l57-40q-91-63-172.5-140.5t-127.5-148.5l2-2q52 46 127 46 89 0 143.5-53.5t54.5-136.5zm-72-5q0 60-38.5 100t-98.5 40q-82 0-135.5-54.5t-53.5-133.5q0-61 40-101.5t102-40.5q82 0 133 54.5t51 135.5z"/><glyph glyph-name="k.sc" horiz-adv-x="503" d="M514 530l-287-248 212-282h-87l-197 271h-2l-47-271h-69l93 530h69l-41-234h2l260 234h94z"/><glyph glyph-name="tcommaaccent.sc" horiz-adv-x="419" d="M450 530l-10-56h-166l-84-474h-67l83 474h-169l9 56h404zm-240-575l-115-185h-57l101 185h71z"/><glyph glyph-name="r.sc" horiz-adv-x="491" d="M444 400q0-132-146-154l116-246h-75l-107 238h-84l-42-238h-69l94 530h145q78 0 123-33t45-97zm-70-5q0 39-28.5 59t-79.5 20h-77l-32-180h80q137 0 137 101z"/><glyph glyph-name="lslash.sc" horiz-adv-x="408" d="M77 228l-76-56 13 70 76 54 41 234h69l-31-177 159 116-13-70-159-114-40-227h238l-10-58h-307z"/><glyph glyph-name="scaron.sc" horiz-adv-x="441" d="M410 475l-51-41q-29 50-103 50-48 0-83.5-25.5t-35.5-71.5q0-32 19.5-49t67.5-34q76-27 110-62t34-90q0-77-54-120.5t-143-43.5q-59 0-106 22.5t-70 58.5l55 39q17-29 52-45t73-16q58 0 90 28t32 72q0 36-25.5 58.5t-83.5 43.5q-66 24-93 55t-27 78q0 74 56.5 117t137.5 43q51 0 90-19.5t58-47.5zm39 263l-135-144h-80l-83 144h63l64-108 102 108h69z"/><glyph glyph-name="icircumflex.sc" horiz-adv-x="246" d="M200 530l-94-530h-69l94 530h69zm39 208l83-144h-63l-64 108-102-108h-69l135 144h80z"/><glyph glyph-name="itilde.sc" horiz-adv-x="246" d="M200 530l-94-530h-69l94 530h69zm-142 76h-43q36 104 110 104 27 0 69-23 46-23 63-23 36 0 58 50h43q-38-104-111-104-27 0-69 23-44 23-63 23-37 0-57-50z"/><glyph glyph-name="s.sc" horiz-adv-x="441" d="M410 475l-51-41q-29 50-103 50-48 0-83.5-25.5t-35.5-71.5q0-32 19.5-49t67.5-34q76-27 110-62t34-90q0-77-54-120.5t-143-43.5q-59 0-106 22.5t-70 58.5l55 39q17-29 52-45t73-16q58 0 90 28t32 72q0 36-25.5 58.5t-83.5 43.5q-66 24-93 55t-27 78q0 74 56.5 117t137.5 43q51 0 90-19.5t58-47.5z"/><glyph glyph-name="hbar.sc" horiz-adv-x="579" d="M533 530l-92-530h-69l42 245h-265l-43-245h-69l93 530h69l-19-105h266l19 105h68zm-374-229h266l14 84h-266z"/><glyph glyph-name="y.sc" horiz-adv-x="432" d="M485 530l-255-301-40-229h-68l40 230-130 300h75l99-245 195 245h84z"/><glyph glyph-name="kcommaaccent.sc" horiz-adv-x="503" d="M514 530l-287-248 212-282h-87l-197 271h-2l-47-271h-69l93 530h69l-41-234h2l260 234h94zm-250-575l-115-185h-57l101 185h71z"/><glyph glyph-name="zdotaccent.sc" horiz-adv-x="478" d="M470 530l-10-55-375-417h307l-10-58h-392l10 61 373 413h-284l11 56h370zm-123 149q0-20-14-34t-33-14-32.5 12.5-13.5 32.5q0 21 14.5 35t33.5 14 32-12.5 13-33.5z"/><glyph glyph-name="exclam.sc" horiz-adv-x="281" d="M215 530l-66-371h-66l65 371h67zm-67-484q0-21-14-36t-34-15-33.5 12-13.5 34q0 21 14.5 36t35.5 15q20 0 32.5-12.5t12.5-33.5z"/><glyph glyph-name="a.sc" horiz-adv-x="517" d="M458 0h-71l-24 132h-251l-83-132h-77l342 530h62zm-104 187l-45 263-164-263h209z"/><glyph glyph-name="h.sc" horiz-adv-x="579" d="M533 530l-92-530h-69l42 245h-265l-43-245h-69l93 530h69l-40-229h266l40 229h68z"/><glyph glyph-name="m.sc" horiz-adv-x="718" d="M672 530l-93-530h-67l76 431h-2l-257-431h-44l-104 431h-2l-76-431h-66l94 530h93l102-426 251 426h95z"/><glyph glyph-name="tilde.sc" d="M49 606h-43q36 104 110 104 27 0 69-23 46-23 63-23 36 0 58 50h43q-38-104-111-104-27 0-69 23-44 23-63 23-37 0-57-50z"/><glyph glyph-name="grave.cap" d="M155 764l-132 144h88l100-144h-56z"/><glyph glyph-name="seven.onum" horiz-adv-x="516" d="M516 531l-12-66q-239-360-403-648l-73 19q190 318 401 630h-346l12 65h421z"/><glyph glyph-name="tbar.sc" horiz-adv-x="419" d="M66 315l8 45h112l20 114h-169l9 56h404l-10-56h-166l-20-114h116l-8-45h-116l-56-315h-67l55 315h-112z"/><glyph glyph-name="acute.cap" d="M318 908l-158-144h-56l126 144h88z"/><glyph glyph-name="wcircumflex.sc" horiz-adv-x="746" d="M779 530l-264-530h-75l-42 433h-2l-216-433h-75l-49 530h71l35-435h2l215 435h71l42-435h2l212 435h73zm-283 208l83-144h-63l-64 108-102-108h-69l135 144h80z"/><glyph glyph-name="ebreve.sc" horiz-adv-x="475" d="M453 530l-10-57h-254l-30-171h243l-10-56h-243l-33-188h275l-11-58h-343l94 530h322zm-36 208h44q-10-58-55.5-95t-106.5-37q-63 0-97.5 33.5t-34.5 98.5h44q0-78 89-78 44 0 76.5 20.5t40.5 57.5z"/><glyph glyph-name="ncommaaccent.sc" horiz-adv-x="605" d="M559 530l-94-530h-83l-198 435h-2l-76-435h-69l94 530h82l200-433h1l77 433h68zm-258-575l-115-185h-57l101 185h71z"/><glyph glyph-name="three.onum" horiz-adv-x="527" d="M482 531l-11-69q-96-79-271-195-2 0-2-4h1q17 4 39 4 27 0 53-6t51.5-20 44.5-34.5 31-52 12-70.5q0-118-88.5-186t-222.5-68q-64 0-101 9l12 64q39-10 91-10 102 0 169 49t67 137q0 67-43.5 102t-116.5 35q-53 0-101-16l-7 54q156 103 297 212v4h-283l10 61h369z"/><glyph glyph-name="one.onum" horiz-adv-x="370" d="M285 531l-94-531h-71l79 439-111-78-35 51 169 119h63z"/><glyph glyph-name="ntilde.sc" horiz-adv-x="605" d="M559 530l-94-530h-83l-198 435h-2l-76-435h-69l94 530h82l200-433h1l77 433h68zm-319 76h-43q36 104 110 104 27 0 69-23 46-23 63-23 36 0 58 50h43q-38-104-111-104-27 0-69 23-44 23-63 23-37 0-57-50z"/><glyph glyph-name="w.sc" horiz-adv-x="746" d="M779 530l-264-530h-75l-42 433h-2l-216-433h-75l-49 530h71l35-435h2l215 435h71l42-435h2l212 435h73z"/><glyph glyph-name="acute.sc" d="M318 738l-158-144h-56l126 144h88z"/><glyph glyph-name="four.sc" horiz-adv-x="479" d="M418 179l-11-57h-78l-21-122h-63l21 122h-237l12 64 276 344h83l-61-351h79zm-91 279h-2l-216-279h167z"/><glyph glyph-name="Euro.sc" horiz-adv-x="479" d="M456 516l-27-56q-35 23-91 23-57 0-104-35t-70-96h217l-22-48h-211q-14-42-14-78h193l-22-49h-170q3-63 38.5-98.5t97.5-35.5q55 0 103 30l16-52q-52-33-127-33-88 0-139 53t-53 136h-62l23 49h39q0 29 14 78h-55l23 48h45q34 93 98.5 141.5t146.5 48.5q68 0 113-26z"/><glyph glyph-name="dotaccent.cap" d="M227 849q0-20-14-34t-33-14-32.5 12.5-13.5 32.5q0 21 14.5 35t33.5 14 32-12.5 13-33.5z"/><glyph glyph-name="aogonek.sc" horiz-adv-x="517" d="M433-147l12-40q-44-36-92-36-33 0-56 18t-23 51q0 75 113 154l-24 132h-251l-83-132h-77l342 530h62l102-530h-23q-100-84-100-134 0-35 43-35 31 0 55 22zm-79 334l-45 263-164-263h209z"/><glyph glyph-name="five.onum" horiz-adv-x="519" d="M490 531l-13-65h-273l-54-198q36 9 66 9 89 0 146-48.5t57-137.5q0-119-79.5-190.5t-218.5-71.5q-61 0-109 10l13 64q39-12 93-12 99 0 163.5 47t64.5 147q0 68-43 101.5t-112 33.5q-57 0-124-21l87 332h336z"/><glyph glyph-name="florin.sc" horiz-adv-x="479" d="M472 515l-35-48q-20 17-48 17-49 0-73-68l-36-101h97l-9-51h-105l-76-216q-25-69-56.5-101.5t-90.5-32.5q-44 0-76 21l29 49q22-14 46-14 35 0 53 22t36 75l70 197h-93l9 51h100l40 111q41 116 138 116 47 0 80-27z"/><glyph glyph-name="atilde.sc" horiz-adv-x="517" d="M458 0h-71l-24 132h-251l-83-132h-77l342 530h62zm-104 187l-45 263-164-263h209zm-143 419h-43q36 104 110 104 27 0 69-23 46-23 63-23 36 0 58 50h43q-38-104-111-104-27 0-69 23-44 23-63 23-37 0-57-50z"/><glyph glyph-name="dollar.sc" horiz-adv-x="479" d="M418 470l-48-39q-29 42-85 45l-33-180q63-26 94.5-57t31.5-84q0-66-45.5-110.5t-132.5-46.5l-9-54h-35l10 54q-42 2-81 22.5t-59 50.5l51 38q31-51 98-57l35 194q-60 21-90 51t-30 83q0 65 48 106t121 44l9 52h35l-9-53q84-4 124-59zm-168 6q-39-2-68-27.5t-29-64.5q0-31 16-48t51-29zm64-325q0 56-71 84l-33-183q46 2 75 28.5t29 70.5z"/><glyph glyph-name="ccedilla.sc" horiz-adv-x="560" d="M541 461l-54-43q-44 64-129 64-104 0-172-76t-68-180q0-78 44.5-127.5t126.5-49.5q91 0 156 71l44-41q-76-87-197-91l-50-63q13 4 31 4 29 0 51.5-16.5t22.5-50.5q0-46-37-69t-83-23q-57 0-97 20l19 36q29-14 74-14 26 0 46 11t20 34q0 38-50 38-22 0-44-8l-15 15 70 88q-96 9-150 71t-54 158q0 135 89.5 229t223.5 94q58 0 106.5-21.5t75.5-59.5z"/><glyph glyph-name="gbreve.sc" horiz-adv-x="596" d="M541 461l-55-43q-43 64-128 64-104 0-172-76t-68-180q0-77 45-127.5t128-50.5q76 0 129 29l26 154h-121l10 56h188l-43-252q-85-47-196-47-110 0-174 64t-64 167q0 135 89.5 229t223.5 94q125 0 182-81zm-57 277h44q-10-58-55.5-95t-106.5-37q-63 0-97.5 33.5t-34.5 98.5h44q0-78 89-78 43 0 76 20.5t41 57.5z"/><glyph glyph-name="lcaron.sc" horiz-adv-x="408" d="M354 58l-10-58h-307l94 530h69l-84-472h238zm51 472l-115-185h-57l101 185h71z"/><glyph glyph-name="racute.sc" horiz-adv-x="491" d="M444 400q0-132-146-154l116-246h-75l-107 238h-84l-42-238h-69l94 530h145q78 0 123-33t45-97zm-70-5q0 39-28.5 59t-79.5 20h-77l-32-180h80q137 0 137 101zm68 343l-158-144h-56l126 144h88z"/><glyph glyph-name="dcroat.sc" horiz-adv-x="596" d="M91 303l40 227h161q107 0 179-56.5t72-165.5q0-142-92-225t-237-83h-177l44 251h-71l10 52h71zm59-52l-34-193h98q118 0 188 66.5t70 175.5q0 78-50.5 125.5t-142.5 47.5h-90l-30-170h149l-10-52h-148z"/><glyph glyph-name="four.onum" horiz-adv-x="569" d="M507 65l-10-61h-114l-31-174h-69l31 174h-312l12 65 366 476h80l-371-480h233l46 260h69l-46-260h116z"/><glyph glyph-name="tilde.cap" d="M49 776h-43q36 104 110 104 27 0 69-23 46-23 63-23 36 0 58 50h43q-38-104-111-104-23 0-69 23-40 23-63 23-37 0-57-50z"/><glyph glyph-name="utilde.sc" horiz-adv-x="567" d="M530 530l-58-327q-39-215-233-215-86 0-133.5 44.5t-47.5 116.5q0 25 4 49l59 332h69l-58-322q-4-23-4-47 0-51 28.5-81.5t85.5-30.5q134 0 164 165l55 316h69zm-311 76h-43q36 104 110 104 27 0 69-23 46-23 63-23 36 0 58 50h43q-38-104-111-104-27 0-69 23-44 23-63 23-37 0-57-50z"/><glyph glyph-name="acircumflex.sc" horiz-adv-x="517" d="M458 0h-71l-24 132h-251l-83-132h-77l342 530h62zm-104 187l-45 263-164-263h209zm44 551l83-144h-63l-64 108-102-108h-69l135 144h80z"/><glyph glyph-name="fi.sc" horiz-adv-x="700" d="M446 530l-9-57h-249l-31-178h232l-9-56h-232l-43-239h-68l93 530h316zm208 0l-94-530h-68l94 530h68z"/><glyph glyph-name="ldot.sc" horiz-adv-x="408" d="M354 58l-10-58h-307l94 530h69l-84-472h238zm-23 261q0-20-14-34t-33-14-32.5 12.5-13.5 32.5q0 21 14.5 35t33.5 14 32-12.5 13-33.5z"/><glyph glyph-name="zero.sc" horiz-adv-x="479" d="M427 360q0-61-13.5-124t-40-120-72.5-93-104-36q-77 0-112.5 49.5t-35.5 130.5q0 62 13.5 125t40 120.5 73 93.5 104.5 36q76 0 111.5-50.5t35.5-131.5zm-69-6q0 57-20 92.5t-63 35.5q-45 0-82-46t-56-116-19-146q0-126 82-126 67 0 112.5 94.5t45.5 211.5z"/><glyph glyph-name="b.sc" horiz-adv-x="502" d="M447 409q0-49-28-83.5t-79-47.5v-2q40-10 64-39t24-74q0-80-60-121.5t-160-41.5h-171l94 530h160q69 0 112.5-31t43.5-90zm-70-10q0 37-28 55.5t-72 18.5h-88l-30-171h96q50 0 86 24.5t36 72.5zm-18-234q0 39-28.5 60.5t-75.5 21.5h-105l-34-189h94q67 0 108 26.5t41 80.5z"/><glyph glyph-name="caron.cap" d="M340 908l-135-144h-80l-83 144h63l64-108 102 108h69z"/><glyph glyph-name="two.sc" horiz-adv-x="479" d="M420 413q0-53-27.5-94t-90.5-97l-186-164h254l-10-58h-339l11 59 233 208q88 78 88 141 0 35-22 55.5t-59 20.5q-38 0-68-23.5t-46-64.5l-60 18q22 60 68.5 94t106.5 34q67 0 107-35t40-94z"/><glyph glyph-name="dotaccent.sc" d="M227 679q0-20-14-34t-33-14-32.5 12.5-13.5 32.5q0 21 14.5 35t33.5 14 32-12.5 13-33.5z"/><glyph glyph-name="yen.sc" horiz-adv-x="479" d="M487 530l-202-245h106l-8-47h-129l-13-72h130l-8-46h-130l-21-120h-63l22 120h-131l8 46h130l13 72h-130l7 47h115l-117 245h70l100-227 177 227h74z"/><glyph glyph-name="scedilla.sc" horiz-adv-x="441" d="M410 475l-51-41q-29 50-103 50-48 0-83.5-25.5t-35.5-71.5q0-32 19.5-49t67.5-34q76-27 110-62t34-90q0-71-47-114t-126-49l-51-64q13 4 31 4 29 0 51.5-16.5t22.5-50.5q0-46-37-69t-83-23q-57 0-97 20l19 36q29-14 74-14 26 0 46 11t20 34q0 38-50 38-22 0-44-8l-15 15 70 87q-53 4-95 25.5t-62 54.5l55 39q17-29 52-45t73-16q58 0 90 28t32 72q0 36-25.5 58.5t-83.5 43.5q-66 24-93 55t-27 78q0 74 56.5 117t137.5 43q51 0 90-19.5t58-47.5z"/><glyph glyph-name="cent.sc" horiz-adv-x="479" d="M210-8q-78 13-123 65.5t-45 131.5q0 115 70 197.5t184 92.5l11 61h48l-11-61q105-9 144-78l-59-39q-11 24-36.5 41t-57.5 20l-67-378q80 1 134 61l43-37q-79-81-187-81l-11-60h-48zm12 58l65 372q-77-10-125.5-75.5t-48.5-151.5q0-56 28.5-95.5t80.5-49.5z"/><glyph glyph-name="uogonek.sc" horiz-adv-x="567" d="M290-147l12-40q-44-36-92-36-33 0-56 18t-23 51q0 70 96 142-80 4-124.5 47.5t-44.5 113.5q0 25 4 49l59 332h69l-58-322q-4-23-4-47 0-51 28.5-81.5t85.5-30.5q134 0 164 165l55 316h69l-58-327q-34-191-191-212-89-76-89-125 0-35 43-35 31 0 55 22z"/><glyph glyph-name="emacron.sc" horiz-adv-x="475" d="M453 530l-10-57h-254l-30-171h243l-10-56h-243l-33-188h275l-11-58h-343l94 530h322zm-5 154l-9-54h-270l9 54h270z"/><glyph glyph-name="rcaron.sc" horiz-adv-x="491" d="M444 400q0-132-146-154l116-246h-75l-107 238h-84l-42-238h-69l94 530h145q78 0 123-33t45-97zm-70-5q0 39-28.5 59t-79.5 20h-77l-32-180h80q137 0 137 101zm88 343l-135-144h-80l-83 144h63l64-108 102 108h69z"/><glyph glyph-name="eth.sc" horiz-adv-x="596" d="M91 303l40 227h161q107 0 179-56.5t72-165.5q0-142-92-225t-237-83h-177l44 251h-71l10 52h71zm59-52l-34-193h98q118 0 188 66.5t70 175.5q0 78-50.5 125.5t-142.5 47.5h-90l-30-170h149l-10-52h-148z"/><glyph glyph-name="ampersand.sc" horiz-adv-x="571" d="M514 279l-115-162 92-117h-81l-53 68q-69-80-170-80-65 0-109 36t-44 102q0 114 146 171-40 54-40 108 0 61 39.5 99t101.5 38q57 0 90.5-30.5t33.5-80.5q0-49-33-86t-104-67l93-119 80 120h73zm-171 148q0 26-17 44t-46 18q-32 0-55.5-21.5t-23.5-58.5q0-44 37-91 105 42 105 109zm-22-314l-109 141q-54-21-83-49.5t-29-75.5q0-42 27.5-63.5t66.5-21.5q73 0 127 69z"/><glyph glyph-name="eight.onum" horiz-adv-x="576" d="M534 557q0-71-41.5-118t-104.5-65l1-2q49-15 81-56t32-97q0-110-74-172.5t-179-62.5q-84 0-144 46.5t-60 136.5q0 81 51 138.5t128 73.5v3q-43 17-67.5 53.5t-24.5 81.5q0 93 63.5 150t153.5 57q80 0 132.5-43.5t52.5-123.5zm-68-10q0 55-33.5 86t-88.5 31q-62 0-103.5-43t-41.5-103q0-48 31.5-80t82.5-32q66 0 109.5 42.5t43.5 98.5zm-34-329q0 55-38 91.5t-96 36.5q-78 0-130.5-49.5t-52.5-123.5q0-59 39-93.5t98-34.5q82 0 131 49t49 124z"/><glyph glyph-name="ncaron.sc" horiz-adv-x="605" d="M559 530l-94-530h-83l-198 435h-2l-76-435h-69l94 530h82l200-433h1l77 433h68zm-38 208l-135-144h-80l-83 144h63l64-108 102 108h69z"/><glyph glyph-name="x.sc" horiz-adv-x="484" d="M500 530l-222-256 132-274h-76l-104 225-191-225h-85l245 279-120 251h75l93-204 172 204h81z"/><glyph glyph-name="breve.sc" d="M294 738h44q-10-58-55.5-95t-106.5-37q-63 0-97.5 33.5t-34.5 98.5h44q0-78 89-78 43 0 76 20.5t41 57.5z"/><glyph glyph-name="fl.sc" horiz-adv-x="863" d="M446 530l-9-57h-249l-31-178h232l-9-56h-232l-43-239h-68l93 530h316zm363-472l-10-58h-307l94 530h68l-84-472h239z"/><glyph glyph-name="dcaron.sc" horiz-adv-x="596" d="M543 308q0-142-92-225t-237-83h-177l94 530h161q107 0 179-56.5t72-165.5zm-71-8q0 78-50.5 125.5t-142.5 47.5h-90l-73-415h98q118 0 188 66.5t70 175.5zm18 438l-135-144h-80l-83 144h63l64-108 102 108h69z"/><glyph glyph-name="agrave.sc" horiz-adv-x="517" d="M458 0h-71l-24 132h-251l-83-132h-77l342 530h62zm-104 187l-45 263-164-263h209zm-57 407l-132 144h88l100-144h-56z"/><glyph glyph-name="rcommaaccent.sc" horiz-adv-x="491" d="M444 400q0-132-146-154l116-246h-75l-107 238h-84l-42-238h-69l94 530h145q78 0 123-33t45-97zm-70-5q0 39-28.5 59t-79.5 20h-77l-32-180h80q137 0 137 101zm-123-440l-115-185h-57l101 185h71z"/><glyph glyph-name="u.sc" horiz-adv-x="567" d="M530 530l-58-327q-39-215-233-215-86 0-133.5 44.5t-47.5 116.5q0 25 4 49l59 332h69l-58-322q-4-23-4-47 0-51 28.5-81.5t85.5-30.5q134 0 164 165l55 316h69z"/><glyph glyph-name="uacute.sc" horiz-adv-x="567" d="M530 530l-58-327q-39-215-233-215-86 0-133.5 44.5t-47.5 116.5q0 25 4 49l59 332h69l-58-322q-4-23-4-47 0-51 28.5-81.5t85.5-30.5q134 0 164 165l55 316h69zm-29 208l-158-144h-56l126 144h88z"/><glyph glyph-name="zero.onum" horiz-adv-x="660" d="M602 312q0-134-88-230t-222-96q-112 0-177 64.5t-65 168.5q0 134 89 230t222 96q111 0 176-64.5t65-168.5zm-74-4q0 74-46 123.5t-126 49.5q-101 0-166.5-76.5t-65.5-179.5q0-75 45.5-124.5t127.5-49.5q102 0 166.5 76t64.5 181z"/><glyph glyph-name="eacute.sc" horiz-adv-x="475" d="M453 530l-10-57h-254l-30-171h243l-10-56h-243l-33-188h275l-11-58h-343l94 530h322zm19 208l-158-144h-56l126 144h88z"/><glyph glyph-name="dotlessj" horiz-adv-x="251" d="M-113-233l14 57q18-6 42-6 39 0 55 24t26 76l97 550h67l-99-561q-12-68-43-107.5t-103-39.5q-34 0-56 7z"/><glyph glyph-name="eight.sc" horiz-adv-x="479" d="M419 415q0-54-30.5-88.5t-74.5-47.5v-2q35-11 58-42t23-72q0-81-55.5-128t-137.5-47q-62 0-109 35.5t-47 106.5q0 59 37 101t93 54v2q-65 31-65 102 0 72 49 112.5t118 40.5q60 0 100.5-32.5t40.5-94.5zm-62-7q0 37-23.5 58.5t-60.5 21.5q-45 0-73-29t-28-71q0-35 22.5-56t58.5-21q45 0 74.5 27.5t29.5 69.5zm-26-246q0 41-26 66t-68 25q-54 0-90.5-33t-36.5-84q0-44 27.5-67.5t70.5-23.5q57 0 90 32t33 85z"/><glyph glyph-name="dieresis.sc" d="M128 679q0-20-14.5-35t-33.5-15q-20 0-34 13t-14 34 15 36 35 15 33-13.5 13-34.5zm198 0q0-20-14.5-35t-34.5-15-33.5 13-13.5 34 14.5 36 34.5 15 33.5-13.5 13.5-34.5z"/><glyph glyph-name="edieresis.sc" horiz-adv-x="475" d="M453 530l-10-57h-254l-30-171h243l-10-56h-243l-33-188h275l-11-58h-343l94 530h322zm-194 149q0-20-14.5-35t-33.5-15q-20 0-34 13t-14 34 15 36 35 15 33-13.5 13-34.5zm198 0q0-20-14.5-35t-34.5-15-33.5 13-13.5 34 14.5 36 34.5 15 33.5-13.5 13.5-34.5z"/><glyph glyph-name="caron.alt" d="M253 708l-115-185h-57l101 185h71z"/><glyph glyph-name="amacron.sc" horiz-adv-x="517" d="M458 0h-71l-24 132h-251l-83-132h-77l342 530h62zm-104 187l-45 263-164-263h209zm131 497l-9-54h-270l9 54h270z"/><glyph glyph-name="ccircumflex.sc" horiz-adv-x="560" d="M541 461l-54-43q-44 64-129 64-104 0-172-76t-68-180q0-78 44.5-127.5t126.5-49.5q91 0 156 71l44-41q-80-91-206-91-110 0-173.5 63.5t-63.5 167.5q0 135 89.5 229t223.5 94q58 0 106.5-21.5t75.5-59.5zm-108 277l83-144h-63l-64 108-102-108h-69l135 144h80z"/><glyph glyph-name="g.sc" horiz-adv-x="596" d="M541 461l-55-43q-43 64-128 64-104 0-172-76t-68-180q0-77 45-127.5t128-50.5q76 0 129 29l26 154h-121l10 56h188l-43-252q-85-47-196-47-110 0-174 64t-64 167q0 135 89.5 229t223.5 94q125 0 182-81z"/><glyph glyph-name="ecaron.sc" horiz-adv-x="475" d="M453 530l-10-57h-254l-30-171h243l-10-56h-243l-33-188h275l-11-58h-343l94 530h322zm15 208l-135-144h-80l-83 144h63l64-108 102 108h69z"/><glyph glyph-name="eogonek.sc" horiz-adv-x="475" d="M358-147l12-40q-44-36-92-36-33 0-56 18t-23 51q0 75 113 154h-275l94 530h322l-10-57h-254l-30-171h243l-10-56h-243l-33-188h275l-11-58h-20q-100-84-100-134 0-35 43-35 31 0 55 22z"/><glyph glyph-name="lcommaaccent.sc" horiz-adv-x="408" d="M354 58l-10-58h-307l94 530h69l-84-472h238zm-114-103l-115-185h-57l101 185h71z"/><glyph glyph-name="ae.sc" horiz-adv-x="785" d="M763 530l-10-57h-255l-30-171h244l-10-56h-243l-34-188h276l-10-58h-343l25 142h-217l-115-142h-80l429 530h373zm-332-57h-11l-221-276h183z"/><glyph glyph-name="ccaron.sc" horiz-adv-x="560" d="M541 461l-54-43q-44 64-129 64-104 0-172-76t-68-180q0-78 44.5-127.5t126.5-49.5q91 0 156 71l44-41q-80-91-206-91-110 0-173.5 63.5t-63.5 167.5q0 135 89.5 229t223.5 94q58 0 106.5-21.5t75.5-59.5zm-4 277l-135-144h-80l-83 144h63l64-108 102 108h69z"/><glyph glyph-name="v.sc" horiz-adv-x="481" d="M520 530l-319-530h-70l-85 530h71l64-445h2l262 445h75z"/><glyph glyph-name="thorn.sc" horiz-adv-x="471" d="M129 132l-24-132h-68l94 530h67l-21-114h88q85 0 130.5-33.5t45.5-93.5q0-84-53.5-120.5t-154.5-36.5h-104zm38 223l-28-162h101q68 0 99.5 20.5t31.5 69.5q0 72-110 72h-94z"/><glyph glyph-name="ring.cap" d="M170 754q-37 0-61 22t-24 57q0 47 31 80t77 33q38 0 61.5-22t23.5-57q0-47-30.5-80t-77.5-33zm74 111q0 22-14.5 37t-38.5 15q-30 0-50.5-24t-20.5-57q0-23 14-37.5t38-14.5q31 0 51.5 23.5t20.5 57.5z"/><glyph glyph-name="e.sc" horiz-adv-x="475" d="M453 530l-10-57h-254l-30-171h243l-10-56h-243l-33-188h275l-11-58h-343l94 530h322z"/><glyph glyph-name="abreve.sc" horiz-adv-x="517" d="M458 0h-71l-24 132h-251l-83-132h-77l342 530h62zm-104 187l-45 263-164-263h209zm97 551h44q-10-58-55.5-95t-106.5-37q-63 0-97.5 33.5t-34.5 98.5h44q0-78 89-78 44 0 76.5 20.5t40.5 57.5z"/><glyph glyph-name="adieresis.sc" horiz-adv-x="517" d="M458 0h-71l-24 132h-251l-83-132h-77l342 530h62zm-104 187l-45 263-164-263h209zm-60 492q0-20-14.5-35t-33.5-15q-20 0-34 13t-14 34 15 36 35 15 33-13.5 13-34.5zm198 0q0-20-14.5-35t-34.5-15-33.5 13-13.5 34 14.5 36 34.5 15 33.5-13.5 13.5-34.5z"/><glyph glyph-name="five.sc" horiz-adv-x="479" d="M420 530l-12-57h-205l-30-148q29 13 65 13 68 0 111.5-42t43.5-110q0-88-53-143t-141-55q-59 0-102.5 27.5t-62.5 73.5l59 28q12-32 42.5-51.5t63.5-19.5q59 0 92.5 38.5t33.5 97.5q0 45-29 72.5t-79 27.5q-64 0-118-36l56 284h265z"/><glyph glyph-name="ecircumflex.sc" horiz-adv-x="475" d="M453 530l-10-57h-254l-30-171h243l-10-56h-243l-33-188h275l-11-58h-343l94 530h322zm-88 208l83-144h-63l-64 108-102-108h-69l135 144h80z"/><glyph glyph-name="circumflex.cap" d="M231 908l83-144h-63l-64 108-102-108h-69l135 144h80z"/><glyph glyph-name="commaaccent" d="M193-45l-115-185h-57l101 185h71z"/><glyph glyph-name="cacute.sc" horiz-adv-x="560" d="M541 461l-54-43q-44 64-129 64-104 0-172-76t-68-180q0-78 44.5-127.5t126.5-49.5q91 0 156 71l44-41q-80-91-206-91-110 0-173.5 63.5t-63.5 167.5q0 135 89.5 229t223.5 94q58 0 106.5-21.5t75.5-59.5zm-37 277l-158-144h-56l126 144h88z"/><glyph glyph-name="breve.cap" d="M294 908h44q-10-58-55.5-95t-106.5-37q-63 0-97.5 33.5t-34.5 98.5h44q0-78 89-78 43 0 76 20.5t41 57.5z"/><glyph glyph-name="edotaccent.sc" horiz-adv-x="475" d="M453 530l-10-57h-254l-30-171h243l-10-56h-243l-33-188h275l-11-58h-343l94 530h322zm-99 149q0-20-14-34t-33-14-32.5 12.5-13.5 32.5q0 21 14.5 35t33.5 14 32-12.5 13-33.5z"/><glyph glyph-name="six.sc" horiz-adv-x="479" d="M403 181q0-82-56-137.5t-141-55.5q-72 0-117 43t-45 115q0 79 83 186l156 198h79l-179-218 2-2q29 18 70 18 65 0 106.5-41t41.5-106zm-67-5q0 42-27 70.5t-69 28.5q-55 0-92-37.5t-37-91.5q0-42 28-71.5t71-29.5q56 0 91 37.5t35 93.5z"/><glyph glyph-name="egrave.sc" horiz-adv-x="475" d="M453 530l-10-57h-254l-30-171h243l-10-56h-243l-33-188h275l-11-58h-343l94 530h322zm-171 64l-132 144h88l100-144h-56z"/><glyph glyph-name="c.sc" horiz-adv-x="560" d="M541 461l-54-43q-44 64-129 64-104 0-172-76t-68-180q0-78 44.5-127.5t126.5-49.5q91 0 156 71l44-41q-80-91-206-91-110 0-173.5 63.5t-63.5 167.5q0 135 89.5 229t223.5 94q58 0 106.5-21.5t75.5-59.5z"/><glyph glyph-name="circumflex.sc" d="M231 738l83-144h-63l-64 108-102-108h-69l135 144h80z"/><glyph glyph-name="t.sc" horiz-adv-x="419" d="M450 530l-10-56h-166l-84-474h-67l83 474h-169l9 56h404z"/><glyph glyph-name="dieresis.cap" d="M128 849q0-20-14.5-35t-33.5-15q-20 0-34 13t-14 34 15 36 35 15 33-13.5 13-34.5zm198 0q0-20-14.5-35t-34.5-15-33.5 13-13.5 34 14.5 36 34.5 15 33.5-13.5 13.5-34.5z"/><glyph glyph-name="sacute.sc" horiz-adv-x="441" d="M410 475l-51-41q-29 50-103 50-48 0-83.5-25.5t-35.5-71.5q0-32 19.5-49t67.5-34q76-27 110-62t34-90q0-77-54-120.5t-143-43.5q-59 0-106 22.5t-70 58.5l55 39q17-29 52-45t73-16q58 0 90 28t32 72q0 36-25.5 58.5t-83.5 43.5q-66 24-93 55t-27 78q0 74 56.5 117t137.5 43q51 0 90-19.5t58-47.5zm8 263l-158-144h-56l126 144h88z"/><glyph glyph-name="caron.sc" d="M340 738l-135-144h-80l-83 144h63l64-108 102 108h69z"/><glyph glyph-name="d.sc" horiz-adv-x="596" d="M543 308q0-142-92-225t-237-83h-177l94 530h161q107 0 179-56.5t72-165.5zm-71-8q0 78-50.5 125.5t-142.5 47.5h-90l-73-415h98q118 0 188 66.5t70 175.5z"/><glyph glyph-name="cdotaccent.sc" horiz-adv-x="560" d="M541 461l-54-43q-44 64-129 64-104 0-172-76t-68-180q0-78 44.5-127.5t126.5-49.5q91 0 156 71l44-41q-80-91-206-91-110 0-173.5 63.5t-63.5 167.5q0 135 89.5 229t223.5 94q58 0 106.5-21.5t75.5-59.5zm-113 218q0-20-14-34t-33-14-32.5 12.5-13.5 32.5q0 21 14.5 35t33.5 14 32-12.5 13-33.5z"/><glyph glyph-name="f.sc" horiz-adv-x="455" d="M446 530l-9-57h-248l-31-178h231l-9-56h-231l-43-239h-69l93 530h316z"/><glyph glyph-name="commaaccent.alt" d="M93 564l115 185h57l-101-185h-71z"/><glyph glyph-name="tcaron.sc" horiz-adv-x="419" d="M450 530l-10-56h-166l-84-474h-67l83 474h-169l9 56h404zm-14 208l-135-144h-80l-83 144h63l64-108 102 108h69z"/><glyph glyph-name="gdotaccent.sc" horiz-adv-x="596" d="M541 461l-55-43q-43 64-128 64-104 0-172-76t-68-180q0-77 45-127.5t128-50.5q76 0 129 29l26 154h-121l10 56h188l-43-252q-85-47-196-47-110 0-174 64t-64 167q0 135 89.5 229t223.5 94q125 0 182-81zm-115 218q0-20-14-34t-33-14-32.5 12.5-13.5 32.5q0 21 14.5 35t33.5 14 32-12.5 13-33.5z"/><glyph glyph-name="gcommaaccent.sc" horiz-adv-x="596" d="M541 461l-55-43q-43 64-128 64-104 0-172-76t-68-180q0-77 45-127.5t128-50.5q76 0 129 29l26 154h-121l10 56h188l-43-252q-85-47-196-47-110 0-174 64t-64 167q0 135 89.5 229t223.5 94q125 0 182-81zm-215-506l-115-185h-57l101 185h71z"/><glyph glyph-name="gcircumflex.sc" horiz-adv-x="596" d="M541 461l-55-43q-43 64-128 64-104 0-172-76t-68-180q0-77 45-127.5t128-50.5q76 0 129 29l26 154h-121l10 56h188l-43-252q-85-47-196-47-110 0-174 64t-64 167q0 135 89.5 229t223.5 94q125 0 182-81zm-105 277l83-144h-63l-64 108-102-108h-69l135 144h80z"/></font>
</defs>
</svg>
