<svg xmlns="http://www.w3.org/2000/svg"><defs><font horiz-adv-x="1228"><font-face units-per-em="2048" ascent="1536" descent="-512"/><glyph/><glyph/><glyph/><glyph/><glyph unicode="!" d="M465 135q0 70 43 113t106 43 106.5-43 43.5-113q0-72-43.5-116t-106.5-44-106 44-43 116zm67 1237h164l-4-192-20-705h-115l-20 705z"/><glyph unicode=""" d="M266 1407h226l-3-225-53-461h-114l-52 461zm471 0h226l-5-225-51-461h-114l-54 461z"/><glyph unicode="#" d="M178 418v117h176l39 303h-174v118h187l49 375h108l-47-375h270l50 375h108l-47-375h166v-118h-178l-39-303h176v-117h-191l-49-418h-110l51 418h-272l-50-418h-110l49 418h-162zm287 117h270l39 303h-272z"/><glyph unicode="$" d="M174 231l80 117q192-139 381-139 118 0 183 49t65 129q0 45-28 82.5t-73.5 63-104 51.5-119.5 47.5-119.5 52.5-104 65.5-73.5 86.5-28 116q0 128 90.5 211.5t241.5 98.5v270h123v-268q104-8 180-48t146-108l-90-98q-78 61-142 88.5t-159 27.5q-103 0-164.5-46t-61.5-124q0-45 36-81.5t93.5-62.5 127-51 139-56.5 127-70 93.5-99 36-136.5q0-131-99.5-219.5t-261.5-105.5v-299h-123v297q-110 9-213.5 52.5t-177.5 106.5z"/><glyph unicode="%" d="M53 997q0 156 79.5 245t207.5 89q126 0 205.5-89t79.5-245q0-157-79.5-248.5t-205.5-91.5q-127 0-207 91.5t-80 248.5zm6-839l375 385 66-62-342-415zm121 839q0-116 44.5-177.5t115.5-61.5q69 0 113.5 62t44.5 177q0 117-43.5 174.5t-114.5 57.5q-72 0-116-57.5t-44-174.5zm424-680q0 155 79.5 243.5t205.5 88.5q128 0 207.5-88.5t79.5-243.5q0-158-80-250t-207-92q-126 0-205.5 92t-79.5 250zm125 545l344 416 98-92-374-385zm2-545q0-116 44-177.5t114-61.5q71 0 115.5 61t44.5 178q0 116-44 174t-116 58q-70 0-114-58t-44-174z"/><glyph unicode="&" d="M86 348q0 63 20 119.5t58 104.5 78 84 96 77q-90 175-90 318 0 136 82 226.5t213 90.5q122 0 191-72.5t69-193.5q0-36-9.5-71t-22-62.5-39-60-44.5-52.5-56-52-56.5-47-61.5-48q129-206 328-377 111 159 170 393h155q-78-282-217-481 122-94 232-129l-47-140q-136 42-281 154-161-154-367-154-178 0-289.5 104.5t-111.5 268.5zm164 10q0-110 74-178.5t184-68.5q123 0 235 106-202 180-342 401-73-64-112-126t-39-134zm143 695q0-106 62-236 67 48 108 84.5t72 89.5 31 109q0 64-30 105.5t-93 41.5q-69 0-109.5-54.5t-40.5-139.5z"/><glyph unicode="'" d="M502 1407h225l-4-225-51-461h-115l-51 461z"/><glyph unicode="(" d="M426 569q0 289 120.5 524t340.5 406l92-86q-205-173-303-379.5t-98-464.5 98-464 303-379l-92-86q-220 171-340.5 405.5t-120.5 523.5z"/><glyph unicode=")" d="M250-274q205 173 303 379t98 464-98 464.5-303 379.5l92 86q220-171 340.5-406t120.5-524-120.5-523.5-340.5-405.5z"/><glyph unicode="*" d="M213 1124l33 95 297-84 22 323h99l22-321 297 82 33-95-283-127 178-290-86-60-211 268-211-268-86 60 179 290z"/><glyph unicode="+" d="M174 571v127h373v400h135v-400h373v-127h-373v-399h-135v399h-373z"/><glyph unicode="," d="M403-330q128 58 191.5 140t67.5 202q-24-4-39-4-69 0-114.5 40t-45.5 114q0 72 47.5 113.5t116.5 41.5q89 0 136.5-70t47.5-192q0-177-94-302t-266-189z"/><glyph unicode="-" d="M274 526v148h680v-148h-680z"/><glyph unicode="." d="M449 147q0 77 47.5 126t117.5 49 118-49 48-126q0-75-48-123.5t-118-48.5-117.5 48.5-47.5 123.5z"/><glyph unicode="/" d="M203-328l671 1782h152l-672-1782h-151z"/><glyph unicode="0" d="M145 657q0 325 124 499.5t345 174.5 345-174.5 124-499.5q0-324-124.5-503t-344.5-179-344.5 179-124.5 503zm158 0q0-271 84-408.5t227-137.5 227.5 137.5 84.5 408.5q0 272-84.5 405.5t-227.5 133.5-227-133.5-84-405.5zm184 15q0 61 37 98t90 37 90-37 37-98q0-62-37-99.5t-90-37.5-90 37.5-37 99.5z"/><glyph unicode="1" d="M201 0v139h370v963h-278v108q187 27 321 97h125v-1168h342v-139h-880z"/><glyph unicode="2" d="M141 1133q95 97 197.5 147.5t232.5 50.5q195 0 310.5-105.5t115.5-279.5q0-60-18.5-121.5t-59.5-127.5-88-127-123-138.5-143.5-141.5-169.5-157q160 12 244 12h430v-145h-919v100q127 112 206 184t166.5 157 137.5 144.5 94.5 124 63 119.5 18.5 109q0 117-72.5 186.5t-212.5 69.5q-162 0-313-158z"/><glyph unicode="3" d="M117 160l86 110q163-155 375-155 136 0 224.5 66t88.5 173q0 260-475 260v129q220 0 324 67t104 177q0 95-72.5 151t-193.5 56q-175 0-322-133l-90 106q190 164 418 164 190 0 311-89t121-243q0-113-75-191t-204-120v-8q140-30 232-117t92-215q0-112-64.5-198t-171-130.5-237.5-44.5q-286 0-471 185z"/><glyph unicode="4" d="M80 360v113l653 834h180v-811h203v-136h-203v-360h-159v360h-674zm186 136h488v405q3 104 10 232h-10q-23-36-70.5-102t-62.5-89z"/><glyph unicode="5" d="M115 154l84 110q77-70 162.5-109.5t205.5-39.5q141 0 236.5 82.5t95.5 216.5-86.5 210-234.5 76q-76 0-133.5-18.5t-133.5-60.5l-90 57 43 629h740v-146h-590l-35-387q122 53 242 53 96 0 176-24.5t141.5-73.5 96-128.5 34.5-182.5q0-136-69.5-239t-177.5-153.5-236-50.5q-159 0-270 49t-201 130z"/><glyph unicode="6" d="M158 604q0 153 29.5 276.5t80.5 206.5 121.5 138.5 149 80.5 166.5 25q215 0 364-139l-94-105q-111 103-260 103-82 0-150.5-29.5t-125-92.5-89.5-175-35-264q79 79 176.5 124.5t194.5 45.5q187 0 297.5-104t110.5-300q0-121-60.5-218.5t-160-149.5-216.5-52q-223 0-361 162.5t-138 466.5zm164-108q19-188 105.5-287.5t229.5-99.5q119 0 198 79.5t79 206.5q0 134-72 205.5t-207 71.5q-179 0-333-176z"/><glyph unicode="7" d="M143 1161v146h947v-105q-172-196-267.5-377.5t-135-368.5-48.5-456h-176q17 372 113.5 628.5t320.5 532.5h-754z"/><glyph unicode="8" d="M139 334q0 215 281 348v8q-199 124-199 305 0 149 114 242.5t290 93.5q189 0 297-96.5t108-251.5q0-87-55.5-168.5t-143.5-142.5v-8q60-30 101-58t79-68 57-93.5 19-120.5q0-151-125.5-250t-343.5-99-348.5 100.5-130.5 258.5zm154 16q0-110 90.5-180t239.5-70q143 0 223 63t80 167q0 49-20.5 88.5t-44 64.5-81.5 53-92.5 40.5-118.5 40.5q-35 12-53 18-106-59-164.5-126.5t-58.5-158.5zm82 645q0-56 25-100t76.5-77.5 106.5-56 138-48.5q164 121 164 262 0 101-69.5 166t-194.5 65q-109 0-177.5-58t-68.5-153z"/><glyph unicode="9" d="M137 911q0 121 60.5 218.5t159 149.5 214.5 52q108 0 199-40t159-116.5 106-197.5 38-275q0-189-45-333t-123-228-173.5-125-205.5-41q-212 0-364 138l94 106q109-104 260-104 64 0 120 18t106.5 59.5 87 105 59 160 24.5 218.5q-81-80-176.5-124t-193.5-44q-187 0-296.5 103.5t-109.5 299.5zm160 0q0-134 71-205t207-71q80 0 166.5 42.5t167.5 131.5q-20 191-105.5 290t-230.5 99q-119 0-197.5-80t-78.5-207z"/><glyph unicode=":" d="M449 147q0 77 47.5 126t117.5 49 118-49 48-126q0-75-48-123.5t-118-48.5-117.5 48.5-47.5 123.5zm0 736q0 75 47.5 123.5t117.5 48.5 118-48.5 48-123.5q0-77-48-125.5t-118-48.5-117.5 48.5-47.5 125.5z"/><glyph unicode=";" d="M403-330q128 58 191.5 140t67.5 202q-24-4-39-4-69 0-114.5 40t-45.5 114q0 72 47.5 113.5t116.5 41.5q89 0 136.5-70t47.5-192q0-177-94-302t-266-189zm46 1213q0 75 47.5 123.5t117.5 48.5 118-48.5 48-123.5q0-77-48-125.5t-118-48.5-117.5 48.5-47.5 125.5z"/><glyph unicode="<" d="M246 575v127l764 519v-162l-617-416v-8l617-416v-162z"/><glyph unicode="=" d="M174 352v127h881v-127h-881zm0 439v127h881v-127h-881z"/><glyph unicode=">" d="M219 57v162l617 416v8l-617 416v162l764-519v-127z"/><glyph unicode="?" d="M223 1231q159 166 377 166 171 0 276-87.5t105-232.5q0-54-20.5-103t-52.5-87.5-70.5-75-75.5-73-66.5-74.5-44-86.5-6.5-102.5h-149q-10 60 2 113.5t39.5 94.5 63 78.5 73.5 72.5 69.5 68.5 51.5 74 20 82.5q0 88-58 143t-167 55q-148 0-266-118zm213-1096q0 70 43.5 113t106.5 43 106-43 43-113q0-72-43-116t-106-44-106.5 44-43.5 116z"/><glyph unicode="@" d="M100 512q0 191 46.5 342.5t128 248 190.5 147 237 50.5q137 0 232.5-65t139.5-173 44-249v-608h-102l-15 119h-8q-47-61-120.5-102.5t-149.5-41.5q-112 0-188 74t-76 195q0 152 134.5 234.5t405.5 115.5v28q0 103-30.5 182t-101 129-173.5 50q-94 0-177-43.5t-147.5-126.5-102.5-215-38-297q0-161 36.5-292t100.5-217 150-132.5 186-46.5q164 0 289 92l58-92q-162-113-351-113-123 0-230.5 53t-190 152.5-130 254.5-47.5 347zm494-59q0-72 44.5-113t119.5-41q113 0 229 131v258q-210-29-301.5-84.5t-91.5-150.5z"/><glyph unicode="A" d="M66 0l452 1343h193l452-1343h-180l-127 410h-487l-129-410h-174zm346 547h401l-63 205q-78 250-134 452h-8q-63-229-133-452z"/><glyph unicode="B" d="M211 0v1343h369q105 0 187.5-18t144.5-56.5 95-102 33-150.5q0-104-60.5-183.5t-174.5-109.5v-8q150-24 230.5-105t80.5-217q0-192-137-292.5t-369-100.5h-399zm172 135h203q175 0 268.5 66t93.5 200q0 242-362 242h-203v-508zm0 635h168q168 0 244.5 58t76.5 173q0 107-77.5 157t-235.5 50h-176v-438z"/><glyph unicode="C" d="M135 672q0 319 166.5 507.5t433.5 188.5q113 0 207.5-46t159.5-118l-96-108q-116 123-271 123-194 0-309-146.5t-115-396.5q0-253 115-402t309-149q168 0 301 149l99-104q-168-195-410-195-127 0-235 48t-187 136-123.5 220-44.5 293z"/><glyph unicode="D" d="M174 0v1343h328q303 0 462.5-172t159.5-493q0-323-159-500.5t-455-177.5h-336zm170 139h148q226 0 341 140t115 399q0 256-114.5 391t-341.5 135h-148v-1065z"/><glyph unicode="E" d="M236 0v1343h829v-143h-657v-422h555v-145h-555v-488h677v-145h-849z"/><glyph unicode="F" d="M276 0v1343h822v-143h-652v-455h551v-143h-551v-602h-170z"/><glyph unicode="G" d="M109 672q0 321 165.5 508.5t430.5 187.5q214 0 370-164l-96-108q-56 59-120 91t-154 32q-190 0-304-147t-114-396q0-256 108.5-403.5t304.5-147.5q70 0 133 21.5t101 58.5v350h-268v141h426v-565q-69-69-173.5-112.5t-228.5-43.5q-258 0-419.5 187t-161.5 510z"/><glyph unicode="H" d="M162 0v1343h172v-563h561v563h172v-1343h-172v633h-561v-633h-172z"/><glyph unicode="I" d="M195 0v145h333v1055h-333v143h839v-143h-334v-1055h334v-145h-839z"/><glyph unicode="J" d="M166 199l110 102q57-87 131-131.5t154-44.5q145 0 212 76.5t67 242.5v758h-564v144h734v-916q0-78-14-143.5t-47-124-83-99.5-126.5-64.5-174.5-23.5q-120 0-226.5 56t-172.5 168z"/><glyph unicode="K" d="M201 0v1343h172v-673h6l565 673h193l-424-512 473-831h-191l-389 698-233-272v-426h-172z"/><glyph unicode="L" d="M274 0v1343h168v-1198h666v-145h-834z"/><glyph unicode="M" d="M166 0v1343h188l191-571 67-217h9l65 217 188 571h189v-1343h-145v756q0 141 20 413h-6l-88-286-185-518h-92l-184 518-90 286h-6q22-300 22-413v-756h-143z"/><glyph unicode="N" d="M170 0v1343h174l436-847 135-275h5q-1 32-12 188t-11 238v696h162v-1343h-174l-436 848-136 274h-4q2-40 12.5-190t10.5-230v-702h-162z"/><glyph unicode="O" d="M98 678q0 318 142.5 504t373.5 186q230 0 373-186.5t143-503.5q0-321-143-512t-373-191-373 191-143 512zm176 0q0-252 93-402.5t247-150.5 247 150.5 93 402.5q0 249-92.5 395t-247.5 146-247.5-146-92.5-395z"/><glyph unicode="P" d="M209 0v1343h412q115 0 203-20.5t155-66 102-123 35-185.5q0-206-133-311t-362-105h-242v-532h-170zm170 672h219q178 0 263 67t85 209-83.5 200-264.5 58h-219v-534z"/><glyph unicode="Q" d="M100 678q0 319 140.5 505.5t371.5 186.5q230 0 370-187t140-505q0-284-111.5-468.5t-299.5-223.5q33-85 108.5-129.5t181.5-44.5q51 0 101 20l31-137q-78-29-152-29-170 0-284.5 86.5t-168.5 231.5q-195 34-311.5 219.5t-116.5 474.5zm174 0q0-252 91.5-403.5t246.5-151.5q153 0 244.5 152t91.5 403q0 250-91 397.5t-245 147.5q-155 0-246.5-147.5t-91.5-397.5z"/><glyph unicode="R" d="M205 0v1343h418q469 0 469-376 0-152-80-248t-221-133l342-586h-195l-324 567h-239v-567h-170zm170 707h223q158 0 241 65.5t83 194.5q0 128-80.5 183.5t-243.5 55.5h-223v-499z"/><glyph unicode="S" d="M137 174l103 119q77-77 178.5-122.5t208.5-45.5q141 0 220 59.5t79 159.5q0 29-7 53.5t-16.5 43-29.5 37-35.5 30-46.5 26.5-50 23.5-57 24.5l-192 84q-291 114-291 346 0 154 124 255t316 101q122 0 230-45t184-121l-90-110q-143 127-324 127-122 0-194-53t-72-144q0-27 8.5-51t18-41 32.5-35.5 36.5-28 47-25.5 46-21 50.5-21l189-82q68-28 117.5-57.5t92.5-72 65-100 22-129.5q0-164-129.5-273.5t-345.5-109.5q-144 0-269 52.5t-219 146.5z"/><glyph unicode="T" d="M86 1200v143h1057v-143h-443v-1200h-172v1200h-442z"/><glyph unicode="U" d="M162 508v835h172v-839q0-199 75.5-289t206.5-90 208 90.5 77 288.5v839h166v-835q0-275-121-404t-330-129q-102 0-183 29.5t-142.5 92-95 166.5-33.5 245z"/><glyph unicode="V" d="M88 1343h180l217-725q14-46 57.5-199.5t71.5-244.5h9q44 143 129 444l215 725h174l-426-1343h-199z"/><glyph unicode="W" d="M20 1346h170l109-844q3-62 14.5-174t14.5-158h6q76 291 86 332l141 495h121l141-495q20-86 84-332h8q4 56 14.5 166.5t14.5 165.5l103 844h161l-198-1346h-189l-153 563q-34 153-50 242h-6q-30-150-53-242l-147-563h-185z"/><glyph unicode="X" d="M111 0l401 694-375 649h189l188-344q52-91 109-194h8q64 134 96 194l184 344h181l-375-657 401-686h-188l-203 362q-22 39-119 216h-8q-57-120-108-216l-201-362h-180z"/><glyph unicode="Y" d="M78 1343h180l203-399q23-47 73.5-151t79.5-162h9q28 58 81 163t76 152l195 397h176l-451-864v-479h-172v479z"/><glyph unicode="Z" d="M133 0v102l752 1100h-686v144h895v-103l-754-1098h764v-145h-971z"/><glyph unicode="[" d="M463-311v1761h565v-98h-432v-1565h432v-98h-565z"/><glyph unicode="\" d="M203 1454h151l672-1782h-152z"/><glyph unicode="]" d="M203-213h430v1565h-430v98h565v-1761h-565v98z"/><glyph unicode="^" d="M227 582l314 790h147l313-790h-147l-135 360-101 272h-8l-100-272-135-360h-148z"/><glyph unicode="_" d="M123-141h983v-146h-983v146z"/><glyph unicode="`" d="M379 1477h184l185-303h-130z"/><glyph unicode="a" d="M166 258q0 168 168 255t553 118q-3 112-66 181t-198 69q-157 0-349-119l-65 115q89 59 206 101t236 42q199 0 301.5-109.5t102.5-300.5v-610h-137l-15 135h-6q-207-160-393-160-144 0-241 76.5t-97 206.5zm164 12q0-80 62.5-119.5t156.5-39.5q161 0 338 147v262q-208-17-333-52t-174.5-82.5-49.5-115.5z"/><glyph unicode="b" d="M190 0v1458h168v-397l-4-193q72 70 161.5 111t176.5 41q198 0 306-136t108-370q0-124-37-227t-99.5-170.5-143.5-104.5-171-37q-72 0-155.5 36.5t-153.5 99.5h-6l-14-111h-136zm168 233q66-59 138.5-87.5t132.5-28.5q133 0 218 107t85 288q0 172-68.5 269.5t-212.5 97.5q-143 0-293-150v-496z"/><glyph unicode="c" d="M164 496q0 122 44.5 222.5t120.5 165.5 176.5 100.5 213.5 35.5q212 0 362-146l-84-108q-131 115-272 115-172 0-279.5-106.5t-107.5-278.5q0-170 105.5-275.5t277.5-105.5q159 0 309 125l74-109q-174-156-395-156-156 0-279 60.5t-194.5 180-71.5 280.5z"/><glyph unicode="d" d="M123 496q0 118 37.5 218t100 166 144 103 170.5 37q86 0 157-32.5t145-96.5l-7 184v383h168v-1458h-139l-14 131h-6q-67-68-152-112t-172-44q-198 0-315 137.5t-117 383.5zm174 2q0-179 77.5-280t215.5-101q146 0 280 149v496q-125 117-262 117-131 0-221-107t-90-274z"/><glyph unicode="e" d="M141 496q0 118 42.5 218.5t113.5 166.5 162 102.5 188 36.5q212 0 332.5-127t120.5-340q0-55-6-92h-779q9-160 113-255t268-95q155 0 303 92l60-111q-182-117-383-117-111 0-208 36t-170 101.5-115 165-42 218.5zm172 75h631q0 151-78 233.5t-217 82.5q-126 0-222-85t-114-231z"/><glyph unicode="f" d="M211 858v127l285 10v84q0 189 100.5 296.5t300.5 107.5q147 0 287-58l-39-127q-106 48-232 48-251 0-251-261v-90h417v-137h-417v-858h-166v858h-285z"/><glyph unicode="g" d="M147-182q0 60 42.5 118t121.5 103v8q-102 56-102 164 0 48 31.5 98t87.5 88v9q-55 41-89 107t-34 151q0 158 114 257t277 99q80 0 147-25h412v-129h-266q92-96 92-209 0-156-109.5-249t-275.5-93q-87 0-168 37-78-49-78-114 0-115 207-115h223q195 0 287-55t92-179q0-144-153.5-246t-399.5-102q-218 0-338.5 72.5t-120.5 204.5zm146 16q0-80 84.5-128t240.5-48q166 0 270.5 62t104.5 143q0 68-54 94.5t-173 26.5h-195q-94 0-151 16-127-69-127-166zm74 830q0-105 66.5-170.5t162.5-65.5q97 0 163 65.5t66 170.5q0 103-66 168t-163 65q-96 0-162.5-65.5t-66.5-167.5z"/><glyph unicode="h" d="M190 0v1458h168v-397l-8-236q89 93 178.5 144t198.5 51q344 0 344-402v-618h-168v596q0 143-54 210.5t-175 67.5q-85 0-153.5-41.5t-162.5-138.5v-694h-168z"/><glyph unicode="i" d="M184 858v137h631v-995h-168v858h-463zm394 471q0 59 38 95t97 36q58 0 96.5-36t38.5-95q0-58-38.5-93.5t-96.5-35.5q-59 0-97 35.5t-38 93.5z"/><glyph unicode="j" d="M113-377l55 125q113-55 227-55 142 0 197 67t55 203v895h-463v137h631v-1020q0-97-20.5-170t-67-131-129.5-88-201-30q-147 0-284 67zm465 1706q0 59 38 95t97 36q58 0 96.5-36t38.5-95q0-58-38.5-93.5t-96.5-35.5q-59 0-97 35.5t-38 93.5z"/><glyph unicode="k" d="M217 0v1458h168v-987l6 2 539 522h192l-397-395 451-600h-189l-366 492-236-226v-266h-168z"/><glyph unicode="l" d="M166 1321v137h508v-1136q0-106 51-156.5t143-50.5q84 0 189 47l43-127q-61-22-89-31.5t-78.5-19-101.5-9.5q-159 0-242 91.5t-83 267.5v987h-340z"/><glyph unicode="m" d="M123 0v995h131l14-131h6q40 76 92.5 116t131.5 40q151 0 188-172 48 85 103 128.5t133 43.5q103 0 160-79.5t57-227.5v-713h-162v698q0 176-109 176-52 0-91-36.5t-79-116.5v-721h-135v698q0 176-112 176-51 0-88.5-36.5t-77.5-116.5v-721h-162z"/><glyph unicode="n" d="M190 0v995h140l14-170h8q87 93 176.5 144t198.5 51q344 0 344-402v-618h-168v596q0 143-54 210.5t-175 67.5q-85 0-153.5-41.5t-162.5-138.5v-694h-168z"/><glyph unicode="o" d="M123 496q0 122 40 222.5t107.5 165.5 156 100.5 187.5 35.5 187.5-35.5 156.5-100.5 108-165.5 40-222.5q0-120-40-220t-108-165-156.5-100.5-187.5-35.5-187.5 35.5-156 100.5-107.5 165-40 220zm174 0q0-170 87.5-275.5t229.5-105.5 230 105.5 88 275.5q0 172-88 278.5t-230 106.5-229.5-106.5-87.5-278.5z"/><glyph unicode="p" d="M190-420v1415h140l14-127h6q72 68 163.5 110t180.5 42q198 0 305-136t107-372q0-123-37-226t-99.5-170-144.5-104-172-37q-70 0-151.5 34.5t-147.5 94.5l4-188v-336h-168zm168 653q66-59 138-87.5t129-28.5q136 0 221.5 106.5t85.5 288.5q0 172-68.5 269.5t-212.5 97.5q-143 0-293-150v-496z"/><glyph unicode="q" d="M123 496q0 118 37.5 218t100 166 144 103 170.5 37q88 0 161.5-33.5t146.5-101.5h6l14 110h135v-1415h-168v367l9 180q-159-152-324-152-198 0-315 137.5t-117 383.5zm174 2q0-179 77.5-280t215.5-101q146 0 280 149v496q-125 117-262 117-131 0-221-107t-90-274z"/><glyph unicode="r" d="M299 0v995h139l15-235h6q80 123 194.5 191.5t249.5 68.5q114 0 195-41l-35-145q-55 20-92.5 27t-93.5 7q-247 0-410-284v-584h-168z"/><glyph unicode="s" d="M147 131l82 111q90-66 188-101t224-35q128 0 197 44t69 112q0 60-72.5 105t-250.5 88q-109 27-190.5 64t-135 94-53.5 124q0 125 109.5 204t308.5 79q107 0 213.5-36t185.5-91l-82-109q-151 105-317 105-130 0-188-39.5t-58-104.5q0-30 21-55.5t63.5-47 94.5-38.5 124-35q209-53 303-120t94-177q0-127-118-212t-324-85q-263 0-488 156z"/><glyph unicode="t" d="M141 858v127l287 10 23 279h139v-279h487v-137h-487v-473q0-140 56-206t196-66q122 0 239 45l35-123q-160-60-311-60-106 0-181.5 29t-119 85-63 129-19.5 169v471h-281z"/><glyph unicode="u" d="M158 377v618h170v-596q0-144 53.5-211t175.5-67q84 0 154 42.5t155 141.5v690h168v-995h-137l-14 174h-9q-170-199-370-199-346 0-346 402z"/><glyph unicode="v" d="M104 995h170l230-565q32-77 112-293h9q6 15 45 124.5t63 168.5l230 565h161l-411-995h-189z"/><glyph unicode="w" d="M16 995h170l123-575q33-174 49-277h9q37 189 59 277l123 516h139l127-516q56-263 59-277h9q14 73 49 277l121 575h159l-215-995h-204l-119 504q-28 145-56 289h-8q-49-264-55-291l-115-502h-200z"/><glyph unicode="x" d="M131 0l379 516-350 479h186l158-219q64-97 117-168h8q47 70 112 172l150 215h178l-354-493 381-502h-185l-174 229q-114 158-131 181h-8q-82-118-123-181l-164-229h-180z"/><glyph unicode="y" d="M100 995h170l244-551q17-39 37.5-87t46-108.5 39.5-92.5h8q92 247 107 288l217 551h159l-438-1077q-130-346-422-346-73 0-131 20l35 134q51-15 90-15 188 0 273 213l30 74z"/><glyph unicode="z" d="M145 0v90l682 768h-606v137h848v-90l-684-768h705v-137h-945z"/><glyph unicode="{" d="M246 516v107q297 2 297 159 0 63-9.5 193.5t-9.5 202.5q0 153 89 212.5t290 59.5h125v-98h-106q-104 0-159-19.5t-75-57.5-20-108q0-57 6-181t6-189q0-102-41-154t-145-70v-8q104-18 145-69.5t41-153.5q0-71-6-190.5t-6-180.5q0-104 51-144t203-40h106v-98h-125q-201 0-290 59.5t-89 212.5q0 77 9.5 202.5t9.5 192.5q0 158-297 160z"/><glyph unicode="|" d="M555-512v2048h119v-2048h-119z"/><glyph unicode="}" d="M203-213h104q104 0 159.5 19t76 57 20.5 108q0 61-6 180.5t-6 190.5q0 102 40.5 153.5t143.5 69.5v8q-103 18-143.5 69.5t-40.5 154.5q0 65 6 189t6 181q0 104-52 144.5t-204 40.5h-104v98h125q199 0 288-59.5t89-212.5q0-72-9.5-202.5t-9.5-193.5q0-157 297-159v-107q-297-2-297-160 0-67 9.5-192.5t9.5-202.5q0-153-89-212.5t-288-59.5h-125v98z"/><glyph unicode="~" d="M156 528q96 256 278 256 54 0 108.5-27t91-59 81.5-59 84-27q52 0 92.5 38t73.5 138l108-49q-96-254-278-254-54 0-108.5 27t-91 59-81.5 59-84 27q-52 0-92.5-38.5t-73.5-137.5z"/><glyph/><glyph unicode="¡" d="M465 862q0 70 43 114t106 44 106.5-44 43.5-114q0-71-43-114t-107-43-106.5 42.5-42.5 114.5zm67-1239l5 193 20 704h115l20-704 4-193h-164z"/><glyph unicode="¢" d="M231 635q0 205 115.5 333t296.5 152v217h105v-211q150-8 268-118l-82-107q-87 81-186 86v-704q112 8 215 96l73-107q-134-117-288-129v-211h-105v213q-187 21-299.5 149.5t-112.5 340.5zm166 0q0-136 65-227t181-117v686q-115-26-180.5-117t-65.5-225z"/><glyph unicode="£" d="M158 584v106l202 8q-2 6-11.5 31.5t-12 33.5-10 30.5-10.5 33.5-8 30.5-7 33-4 30.5-2 33q0 173 117 275t313 102q221 0 360-153l-98-97q-109 109-254 109-131 0-203.5-66t-72.5-174q0-40 10.5-88t19.5-76 31-88h387v-114h-354q12-55 12-115 0-104-37-177t-116-138v-9h677v-145h-927v102q124 56 189 153t65 216q0 50-17 113h-239z"/><glyph unicode="¤" d="M119 262l172 174q-74 99-74 238 0 138 72 239l-170 177 90 92 178-185q98 76 227 76 126 0 228-76l178 185 90-92-172-177q74-99 74-239 0-134-74-238l172-174-90-92-180 182q-96-78-226-78-126 0-227 78l-178-182zm254 412q0-121 69.5-198t171.5-77 172 77 70 198-70 197.5-172 76.5-171.5-76.5-69.5-197.5z"/><glyph unicode="¥" d="M109 1307h174l188-351q20-39 66.5-131.5t74.5-144.5h9q109 214 143 276l188 351h168l-381-656h332v-96h-375v-133h375v-98h-375v-324h-168v324h-370v98h370v133h-370v96h329z"/><glyph unicode="¦" d="M555 438h119v-950h-119v950zm0 158v940h119v-940h-119z"/><glyph unicode="§" d="M186 702q0 169 187 267-64 71-64 166 0 112 81 189t228 77q178 0 330-117l-82-108q-124 94-239 94-82 0-123-36.5t-41-92.5q0-39 25-72t65.5-55.5 92.5-47 106.5-46.5 106.5-54 92.5-68.5 65.5-92.5 25-123q0-93-47-156t-137-111q60-70 60-165 0-122-92.5-201.5t-237.5-79.5q-111 0-206.5 38.5t-160.5 106.5l103 92q58-53 120-79.5t144-26.5q81 0 128.5 40.5t47.5 100.5q0 47-32 84t-83 63.5-112.5 51.5-123 56-112.5 69.5-83 99-32 137.5zm146 11q0-51 26.5-91.5t75.5-70.5 99-52.5 117-51.5 110-54q70 31 103.5 70.5t33.5 105.5q0 52-26 93.5t-75 72-98.5 53-117 52-109.5 53.5q-139-71-139-180z"/><glyph unicode="¨" d="M307 1317q0 48 31 80.5t80 32.5q47 0 78.5-32.5t31.5-80.5-31.5-80.5-78.5-32.5q-49 0-80 32.5t-31 80.5zm393 0q0 47 32 80t79 33q49 0 80-32.5t31-80.5-31-80.5-80-32.5q-47 0-79 33t-32 80z"/><glyph unicode="©" d="M61 662q0 154 42.5 281.5t116.5 213.5 175.5 133 218.5 47 218.5-47 175.5-133 116.5-213.5 42.5-281.5q0-308-157-496.5t-396-188.5-396 188.5-157 496.5zm95 0q0-269 126.5-434t331.5-165q206 0 332.5 165.5t126.5 433.5-126.5 429.5-332.5 161.5-332-161.5-126-429.5zm143 0q0 173 99.5 280t238.5 107q120 0 213-97l-70-80q-71 64-137 64-93 0-151-76.5t-58-197.5q0-134 55-213.5t146-79.5q83 0 166 69l61-86q-106-96-231-96-142 0-237 110.5t-95 295.5z"/><glyph unicode="ª" d="M342 707q0 106 104 163.5t328 81.5q-4 152-143 152-93 0-211-70l-51 88q147 86 282 86 127 0 190.5-72t63.5-204v-400h-106l-11 76h-4q-119-92-231-92-90 0-150.5 52.5t-60.5 138.5zm129 8q0-48 33.5-72.5t87.5-24.5q84 0 182 82v168q-162-18-232.5-55.5t-70.5-97.5z"/><glyph unicode="«" d="M168 434v164l313 328 80-72-260-338 260-340-80-70zm471 0v164l311 328 82-72-260-338 260-340-82-70z"/><glyph unicode="¬" d="M174 571v127h881v-526h-135v399h-746z"/><glyph unicode="­" d="M274 526v148h680v-148h-680z"/><glyph unicode="®" d="M229 1057q0 177 111 290t274 113q162 0 273.5-113t111.5-290-112-290.5-273-113.5q-163 0-274 113.5t-111 290.5zm80 0q0-145 87-236.5t218-91.5 217.5 91.5 86.5 236.5q0 144-87 236.5t-217 92.5-217.5-93-87.5-236zm156-203v416h156q71 0 116-32t45-101q0-37-21.5-69t-55.5-44l94-170h-94l-72 143h-84v-143h-84zm84 209h53q42 0 66 18.5t24 51.5q0 67-86 67h-57v-137z"/><glyph unicode="¯" d="M362 1231v117h504v-117h-504z"/><glyph unicode="°" d="M358 1139q0 118 75 191t181 73q107 0 182.5-73t75.5-191q0-115-76-187.5t-182-72.5-181 72.5-75 187.5zm103 0q0-72 43-119t110-47q69 0 112.5 47t43.5 119q0 75-43.5 122.5t-112.5 47.5q-68 0-110.5-47.5t-42.5-122.5z"/><glyph unicode="±" d="M174 0v127h881v-127h-881zm0 596v127h373v375h135v-375h373v-127h-373v-363h-135v363h-373z"/><glyph unicode="²" d="M354 1425q106 125 244 125 111 0 173.5-55t62.5-156q0-38-16.5-76t-52.5-79-71-75-92-85q-11-9-16-14h278v-109h-487v74q92 70 143.5 112t99.5 87.5 67.5 80.5 19.5 68q0 56-33 88.5t-92 32.5q-80 0-146-86z"/><glyph unicode="³" d="M352 987l66 80q32-38 82-63t104-25q59 0 93 23.5t34 72.5q0 105-196 105v77q82 0 123.5 28t41.5 77q0 88-112 88-36 0-77.5-19.5t-72.5-50.5l-61 78q39 42 102 67t133 25q97 0 157-46t60-126q0-59-27-95t-87-58q68-15 106.5-55.5t38.5-102.5q0-88-70-139t-178-51q-71 0-140 29t-120 81z"/><glyph unicode="´" d="M481 1174l185 303h184l-240-303h-129z"/><glyph unicode="µ" d="M172-410v1405h168v-608q0-140 52-203t169-63q82 0 147 39.5t146 132.5v702h168v-995h-139l-15 162h-8q-131-178-309-178-77 0-129.5 20.5t-91.5 75.5l10-193v-297h-168z"/><glyph unicode="¶" d="M147 907q0 117 36 203t102.5 136 151.5 73.5 192 23.5h88v-880h-66q-111 0-201.5 26.5t-159 79.5-106 139-37.5 199zm680-1071v1507h166v-1507h-166z"/><glyph unicode="·" d="M449 711q0 76 47.5 125t117.5 49 118-49 48-125q0-75-48-123.5t-118-48.5-117.5 48.5-47.5 123.5z"/><glyph unicode="¸" d="M455-352q180 24 180 98 0 38-31.5 61t-97.5 39l82 160h110l-53-108q121-41 121-146 0-83-83.5-129.5t-211.5-58.5z"/><glyph unicode="¹" d="M426 1372v86q106 16 195 68h102v-625h-129v471h-168z"/><glyph unicode="º" d="M291 862q0 158 94 252t229 94q136 0 230-93.5t94-252.5-94-252.5-230-93.5q-135 0-229 94t-94 252zm135 0q0-108 50.5-173.5t137.5-65.5 138 65.5 51 173.5q0 107-51 173.5t-138 66.5-137.5-66.5-50.5-173.5z"/><glyph unicode="»" d="M197 176l260 340-260 338 82 72 311-328v-164l-311-328zm471 0l260 340-260 338 80 72 313-328v-164l-313-328z"/><glyph unicode="¼" d="M57 158l375 385 68-62-342-415zm95 995v86q65 10 107 25.5t85 42.5h105v-625h-130v471h-167zm475-1003v63l303 412h145v-387h103v-88h-103v-150h-117v150h-331zm102 712l342 416 100-92-374-385zm29-624h200v114l11 168h-8l-93-133z"/><glyph unicode="½" d="M57 158l375 385 68-62-342-415zm95 995v86q65 10 107 25.5t85 42.5h105v-625h-130v471h-167zm479-629q102 125 241 125 111 0 174.5-55.5t63.5-155.5q0-49-35-104.5t-70.5-91-117.5-110.5l-8-8-8-7-9-8h279v-109h-490v74q92 70 143.5 112t99.5 87.5 67.5 80.5 19.5 68q0 56-33 88.5t-92 32.5q-79 0-145-86zm98 338l342 416 100-92-374-385z"/><glyph unicode="¾" d="M78 768l63 80q34-39 84.5-64.5t102.5-25.5q58 0 92.5 24t34.5 72q0 107-195 107v77q82 0 124 28t42 75q0 41-28 64.5t-85 23.5q-37 0-78.5-18.5t-72.5-49.5l-62 78q40 42 103.5 67t134.5 25q95 0 156-47t61-125q0-58-27.5-94.5t-87.5-58.5q68-15 106-55.5t38-102.5q0-88-69.5-139.5t-176.5-51.5q-71 0-140 29.5t-120 81.5zm33-610l374 385 66-62-342-415zm516-8v63l305 412h145v-387h103v-88h-103v-150h-119v150h-331zm133 88h198v114l11 168h-8l-91-133zm20 624l344 416 99-92-375-385z"/><glyph unicode="¿" d="M252-82q0 54 20.5 103t52.5 87.5 70 75 75 73 66 74.5 43.5 86.5 6.5 102.5h149q10-60-2-113.5t-39.5-94.5-63-78.5-73.5-72-69.5-68-51.5-74-20-82.5q0-88 59-142.5t168-54.5q149 0 266 117l99-93q-155-165-377-165-171 0-275 86.5t-104 232.5zm244 944q0 70 43 114t106 44 107.5-44 44.5-114q0-71-44-114t-108-43q-63 0-106 42.5t-43 114.5z"/><glyph unicode="À" d="M66 0l452 1343h193l452-1343h-180l-127 410h-487l-129-410h-174zm280 1675h193l180-229h-141zm66-1128h401l-63 205q-78 250-134 452h-8q-63-229-133-452z"/><glyph unicode="Á" d="M66 0l452 1343h193l452-1343h-180l-127 410h-487l-129-410h-174zm346 547h401l-63 205q-78 250-134 452h-8q-63-229-133-452zm98 899l180 229h193l-232-229h-141z"/><glyph unicode="Â" d="M66 0l452 1343h193l452-1343h-180l-127 410h-487l-129-410h-174zm270 1446l196 229h164l197-229h-137l-138 139h-8l-137-139h-137zm76-899h401l-63 205q-78 250-134 452h-8q-63-229-133-452z"/><glyph unicode="Ã" d="M66 0l452 1343h193l452-1343h-180l-127 410h-487l-129-410h-174zm251 1456q9 98 56 159.5t119 61.5q37 0 73.5-16.5t60.5-36.5 54-36.5 55-16.5q30 0 52.5 28t29.5 78h94q-9-97-56-159t-118-62q-46 0-91 27t-83 53.5-69 26.5q-30 0-52.5-28t-29.5-79h-95zm95-909h401l-63 205q-78 250-134 452h-8q-63-229-133-452z"/><glyph unicode="Ä" d="M66 0l452 1343h193l452-1343h-180l-127 410h-487l-129-410h-174zm272 1565q0 44 28 72t72 28q43 0 72-28t29-72q0-43-29-72t-72-29q-44 0-72 29t-28 72zm74-1018h401l-63 205q-78 250-134 452h-8q-63-229-133-452zm278 1018q0 44 29 72t72 28q44 0 72-28t28-72q0-43-28-72t-72-29q-43 0-72 29t-29 72z"/><glyph unicode="Å" d="M66 0l452 1343h193l452-1343h-180l-127 410h-487l-129-410h-174zm346 547h401l-63 205q-78 250-134 452h-8q-63-229-133-452zm12 1065q0 81 53 130.5t137 49.5q83 0 137-49.5t54-130.5q0-82-54-131t-137-49q-84 0-137 49t-53 131zm92 0q0-50 27.5-78.5t70.5-28.5q40 0 68.5 29t28.5 78q0 46-28.5 75t-68.5 29q-42 0-70-29t-28-75z"/><glyph unicode="Æ" d="M-2 0l532 1343h662v-143h-387v-420h301v-145h-301v-490h405v-145h-561v391h-323l-150-391h-178zm381 528h270v680h-6q-29-78-87-223.5t-83-212.5z"/><glyph unicode="Ç" d="M135 672q0 319 166.5 507.5t433.5 188.5q113 0 207.5-46t159.5-118l-96-108q-116 123-271 123-194 0-309-146.5t-115-396.5q0-253 115-402t309-149q168 0 301 149l99-104q-160-184-379-195l-39-77q123-42 123-146 0-83-84-129.5t-213-58.5l-17 84q183 24 183 98 0 38-32.5 61t-98.5 39l69 134q-230 30-371 213t-141 479z"/><glyph unicode="È" d="M236 0v1343h829v-143h-657v-422h555v-145h-555v-488h677v-145h-849zm174 1675h192l180-229h-141z"/><glyph unicode="É" d="M236 0v1343h829v-143h-657v-422h555v-145h-555v-488h677v-145h-849zm337 1446l181 229h192l-231-229h-142z"/><glyph unicode="Ê" d="M236 0v1343h829v-143h-657v-422h555v-145h-555v-488h677v-145h-849zm163 1446l197 229h162l196-229h-135l-137 139h-8l-137-139h-138z"/><glyph unicode="Ë" d="M236 0v1343h829v-143h-657v-422h555v-145h-555v-488h677v-145h-849zm163 1565q0 44 29 72t72 28q44 0 72-28t28-72q0-43-28-72t-72-29q-43 0-72 29t-29 72zm355 0q0 44 28.5 72t71.5 28 71.5-28 28.5-72q0-43-28.5-72t-71.5-29-71.5 29-28.5 72z"/><glyph unicode="Ì" d="M195 0v145h333v1055h-333v143h839v-143h-334v-1055h334v-145h-839zm151 1675h193l180-229h-141z"/><glyph unicode="Í" d="M195 0v145h333v1055h-333v143h839v-143h-334v-1055h334v-145h-839zm315 1446l180 229h193l-232-229h-141z"/><glyph unicode="Î" d="M195 0v145h333v1055h-333v143h839v-143h-334v-1055h334v-145h-839zm141 1446l196 229h164l197-229h-137l-138 139h-8l-137-139h-137z"/><glyph unicode="Ï" d="M195 0v145h333v1055h-333v143h839v-143h-334v-1055h334v-145h-839zm143 1565q0 44 28 72t72 28q43 0 72-28t29-72q0-43-29-72t-72-29q-44 0-72 29t-28 72zm352 0q0 44 29 72t72 28q44 0 72-28t28-72q0-43-28-72t-72-29q-43 0-72 29t-29 72z"/><glyph unicode="Ð" d="M33 657v86l153 11v589h330q300 0 460.5-172.5t160.5-492.5q0-322-160-500t-455-178h-336v657h-153zm323-518h148q226 0 341.5 140t115.5 399q0 256-115 391t-342 135h-148v-450h293v-97h-293v-518z"/><glyph unicode="Ñ" d="M170 0v1343h174l436-847 135-275h5q-1 32-12 188t-11 238v696h162v-1343h-174l-436 848-136 274h-4q2-40 12.5-190t10.5-230v-702h-162zm160 1456q9 98 55.5 159.5t118.5 61.5q46 0 91-26.5t83.5-53 69.5-26.5q30 0 52 28t29 78h95q-9-97-56-159t-118-62q-37 0-73.5 16.5t-61 37-54.5 37-55 16.5q-30 0-52.5-28t-29.5-79h-94z"/><glyph unicode="Ò" d="M98 678q0 318 142.5 504t373.5 186q230 0 373-186.5t143-503.5q0-321-143-512t-373-191-373 191-143 512zm176 0q0-252 93-402.5t247-150.5 247 150.5 93 402.5q0 249-92.5 395t-247.5 146-247.5-146-92.5-395zm72 997h193l180-229h-141z"/><glyph unicode="Ó" d="M98 678q0 318 142.5 504t373.5 186q230 0 373-186.5t143-503.5q0-321-143-512t-373-191-373 191-143 512zm176 0q0-252 93-402.5t247-150.5 247 150.5 93 402.5q0 249-92.5 395t-247.5 146-247.5-146-92.5-395zm236 768l180 229h193l-232-229h-141z"/><glyph unicode="Ô" d="M98 678q0 318 142.5 504t373.5 186q230 0 373-186.5t143-503.5q0-321-143-512t-373-191-373 191-143 512zm176 0q0-252 93-402.5t247-150.5 247 150.5 93 402.5q0 249-92.5 395t-247.5 146-247.5-146-92.5-395zm62 768l196 229h164l197-229h-137l-138 139h-8l-137-139h-137z"/><glyph unicode="Õ" d="M98 678q0 318 142.5 504t373.5 186q230 0 373-186.5t143-503.5q0-321-143-512t-373-191-373 191-143 512zm176 0q0-252 93-402.5t247-150.5 247 150.5 93 402.5q0 249-92.5 395t-247.5 146-247.5-146-92.5-395zm43 778q9 98 56 159.5t119 61.5q37 0 73.5-16.5t60.5-36.5 54-36.5 55-16.5q30 0 52.5 28t29.5 78h94q-9-97-56-159t-118-62q-46 0-91 27t-83 53.5-69 26.5q-30 0-52.5-28t-29.5-79h-95z"/><glyph unicode="Ö" d="M98 678q0 318 142.5 504t373.5 186q230 0 373-186.5t143-503.5q0-321-143-512t-373-191-373 191-143 512zm176 0q0-252 93-402.5t247-150.5 247 150.5 93 402.5q0 249-92.5 395t-247.5 146-247.5-146-92.5-395zm64 887q0 44 28 72t72 28q43 0 72-28t29-72q0-43-29-72t-72-29q-44 0-72 29t-28 72zm352 0q0 44 29 72t72 28q44 0 72-28t28-72q0-43-28-72t-72-29q-43 0-72 29t-29 72z"/><glyph unicode="×" d="M209 309l315 326-315 323 90 93 315-326 316 326 90-93-315-323 315-326-90-92-316 328-315-328z"/><glyph unicode="Ø" d="M92 4l129 191q-123 191-123 483 0 318 142.5 504t373.5 186q190 0 318-125l110 162 97-66-129-190q120-180 120-471 0-321-143-512t-373-191q-184 0-315 125l-109-161zm182 674q0-193 56-326l510 754q-89 113-226 113-155 0-247.5-146t-92.5-395zm119-440q89-113 221-113 154 0 247 150.5t93 402.5q0 183-51 313z"/><glyph unicode="Ù" d="M162 508v835h172v-839q0-199 75.5-289t206.5-90 208 90.5 77 288.5v839h166v-835q0-275-121-404t-330-129q-102 0-183 29.5t-142.5 92-95 166.5-33.5 245zm184 1167h193l180-229h-141z"/><glyph unicode="Ú" d="M162 508v835h172v-839q0-199 75.5-289t206.5-90 208 90.5 77 288.5v839h166v-835q0-275-121-404t-330-129q-102 0-183 29.5t-142.5 92-95 166.5-33.5 245zm348 938l180 229h193l-232-229h-141z"/><glyph unicode="Û" d="M162 508v835h172v-839q0-199 75.5-289t206.5-90 208 90.5 77 288.5v839h166v-835q0-275-121-404t-330-129q-102 0-183 29.5t-142.5 92-95 166.5-33.5 245zm174 938l196 229h164l197-229h-137l-138 139h-8l-137-139h-137z"/><glyph unicode="Ü" d="M162 508v835h172v-839q0-199 75.5-289t206.5-90 208 90.5 77 288.5v839h166v-835q0-275-121-404t-330-129q-102 0-183 29.5t-142.5 92-95 166.5-33.5 245zm176 1057q0 44 28 72t72 28q43 0 72-28t29-72q0-43-29-72t-72-29q-44 0-72 29t-28 72zm352 0q0 44 29 72t72 28q44 0 72-28t28-72q0-43-28-72t-72-29q-43 0-72 29t-29 72z"/><glyph unicode="Ý" d="M78 1343h180l203-399q23-47 73.5-151t79.5-162h9q28 58 81 163t76 152l195 397h176l-451-864v-479h-172v479zm432 103l180 229h193l-232-229h-141z"/><glyph unicode="Þ" d="M207 0v1343h172v-225h242q115 0 203-21t155-66.5 102-123 35-184.5q0-207-133-311.5t-362-104.5h-242v-307h-172zm172 446h219q178 0 263 66.5t85 210.5q0 140-84 198t-264 58h-219v-533z"/><glyph unicode="ß" d="M180 0v1063q0 191 111 305.5t301 114.5q156 0 246-87.5t90-215.5q0-57-19-107.5t-46-87-54.5-70.5-46.5-72.5-19-76.5q0-40 22.5-72t59-55 80.5-45 88-49 80.5-60.5 59-85.5 22.5-118q0-132-92-219t-242-87q-155 0-295 93l68 118q115-80 223-80 83 0 130.5 46.5t47.5 113.5q0 48-23 86t-59 63.5-80.5 48.5-88.5 48-80 54.5-59 75-23 103.5q0 62 29 120t63 96.5 63 94 29 113.5q0 78-47 127.5t-129 49.5q-114 0-178-79t-64-229v-1038h-168z"/><glyph unicode="à" d="M166 258q0 168 168 255t553 118q-3 112-66 181t-198 69q-157 0-349-119l-65 115q89 59 206 101t236 42q199 0 301.5-109.5t102.5-300.5v-610h-137l-15 135h-6q-207-160-393-160-144 0-241 76.5t-97 206.5zm164 12q0-80 62.5-119.5t156.5-39.5q161 0 338 147v262q-208-17-333-52t-174.5-82.5-49.5-115.5zm78 1207h182l186-303h-129z"/><glyph unicode="á" d="M166 258q0 168 168 255t553 118q-3 112-66 181t-198 69q-157 0-349-119l-65 115q89 59 206 101t236 42q199 0 301.5-109.5t102.5-300.5v-610h-137l-15 135h-6q-207-160-393-160-144 0-241 76.5t-97 206.5zm164 12q0-80 62.5-119.5t156.5-39.5q161 0 338 147v262q-208-17-333-52t-174.5-82.5-49.5-115.5zm178 904l186 303h183l-238-303h-131z"/><glyph unicode="â" d="M166 258q0 168 168 255t553 118q-3 112-66 181t-198 69q-157 0-349-119l-65 115q89 59 206 101t236 42q199 0 301.5-109.5t102.5-300.5v-610h-137l-15 135h-6q-207-160-393-160-144 0-241 76.5t-97 206.5zm164 12q0-80 62.5-119.5t156.5-39.5q161 0 338 147v262q-208-17-333-52t-174.5-82.5-49.5-115.5zm41 904l198 303h146l198-303h-129l-137 202h-8l-137-202h-131z"/><glyph unicode="ã" d="M166 258q0 168 168 255t553 118q-3 112-66 181t-198 69q-157 0-349-119l-65 115q89 59 206 101t236 42q199 0 301.5-109.5t102.5-300.5v-610h-137l-15 135h-6q-207-160-393-160-144 0-241 76.5t-97 206.5zm164 12q0-80 62.5-119.5t156.5-39.5q161 0 338 147v262q-208-17-333-52t-174.5-82.5-49.5-115.5zm22 916q9 102 54.5 162.5t125.5 60.5q33 0 66.5-17.5t56.5-38 50-38 49-17.5q64 0 82 111h96q-10-101-55-162t-123-61q-34 0-67.5 17.5t-56.5 38.5-50.5 38.5-49.5 17.5q-33 0-52.5-27t-28.5-85h-97z"/><glyph unicode="ä" d="M166 258q0 168 168 255t553 118q-3 112-66 181t-198 69q-157 0-349-119l-65 115q89 59 206 101t236 42q199 0 301.5-109.5t102.5-300.5v-610h-137l-15 135h-6q-207-160-393-160-144 0-241 76.5t-97 206.5zm164 12q0-80 62.5-119.5t156.5-39.5q161 0 338 147v262q-208-17-333-52t-174.5-82.5-49.5-115.5zm4 1047q0 48 31.5 80.5t78.5 32.5q49 0 80-32.5t31-80.5-31-80.5-80-32.5q-47 0-78.5 32.5t-31.5 80.5zm395 0q0 48 31 80.5t80 32.5 79.5-32.5 30.5-80.5-30.5-80.5-79.5-32.5-80 32.5-31 80.5z"/><glyph unicode="å" d="M166 258q0 168 168 255t553 118q-3 112-66 181t-198 69q-157 0-349-119l-65 115q89 59 206 101t236 42q199 0 301.5-109.5t102.5-300.5v-610h-137l-15 135h-6q-207-160-393-160-144 0-241 76.5t-97 206.5zm164 12q0-80 62.5-119.5t156.5-39.5q161 0 338 147v262q-208-17-333-52t-174.5-82.5-49.5-115.5zm121 1030q0 84 53.5 136.5t138.5 52.5q84 0 137.5-52.5t53.5-136.5q0-85-53.5-137.5t-137.5-52.5q-85 0-138.5 52t-53.5 138zm92 0q0-51 29-82.5t71-31.5q41 0 69.5 31.5t28.5 82.5q0 50-28.5 81.5t-69.5 31.5q-42 0-71-31.5t-29-81.5z"/><glyph unicode="æ" d="M35 264q0 148 127 238t381 129q-3 252-178 252-51 0-117.5-25t-116.5-59l-63 114q166 107 317 107 93 0 156-55t92-146q104 201 289 201 98 0 167.5-64t101.5-164.5 32-226.5q0-29-9-108h-528q6-160 69.5-253t180.5-93q94 0 197 63l59-111q-127-88-262-88-200 0-305 187-172-187-324-187-122 0-194 78t-72 211zm155 8q0-78 40.5-119.5t111.5-41.5q54 0 117 38t116 107q-29 85-32 213l-2 51q-185-32-268-91.5t-83-156.5zm494 297h397q0 67-9 122t-28 100.5-54 70.5-83 25q-95 0-154.5-84.5t-68.5-233.5z"/><glyph unicode="ç" d="M164 496q0 122 44.5 222.5t120.5 165.5 176.5 100.5 213.5 35.5q212 0 362-146l-84-108q-131 115-272 115-172 0-279.5-106.5t-107.5-278.5q0-170 105.5-275.5t277.5-105.5q159 0 309 125l74-109q-152-139-348-154l-37-79q121-42 121-146 0-83-84-129.5t-213-58.5l-17 84q183 24 183 98 0 38-32.5 61t-98.5 39l67 131q-215 19-348 156.5t-133 362.5z"/><glyph unicode="è" d="M141 496q0 118 42.5 218.5t113.5 166.5 162 102.5 188 36.5q212 0 332.5-127t120.5-340q0-55-6-92h-779q9-160 113-255t268-95q155 0 303 92l60-111q-182-117-383-117-111 0-208 36t-170 101.5-115 165-42 218.5zm172 75h631q0 151-78 233.5t-217 82.5q-126 0-222-85t-114-231zm97 906h182l186-303h-131z"/><glyph unicode="é" d="M141 496q0 118 42.5 218.5t113.5 166.5 162 102.5 188 36.5q212 0 332.5-127t120.5-340q0-55-6-92h-779q9-160 113-255t268-95q155 0 303 92l60-111q-182-117-383-117-111 0-208 36t-170 101.5-115 165-42 218.5zm172 75h631q0 151-78 233.5t-217 82.5q-126 0-222-85t-114-231zm197 603l186 303h183l-238-303h-131z"/><glyph unicode="ê" d="M141 496q0 118 42.5 218.5t113.5 166.5 162 102.5 188 36.5q212 0 332.5-127t120.5-340q0-55-6-92h-779q9-160 113-255t268-95q155 0 303 92l60-111q-182-117-383-117-111 0-208 36t-170 101.5-115 165-42 218.5zm172 75h631q0 151-78 233.5t-217 82.5q-126 0-222-85t-114-231zm60 603l198 303h146l198-303h-131l-135 202h-8l-137-202h-131z"/><glyph unicode="ë" d="M141 496q0 118 42.5 218.5t113.5 166.5 162 102.5 188 36.5q212 0 332.5-127t120.5-340q0-55-6-92h-779q9-160 113-255t268-95q155 0 303 92l60-111q-182-117-383-117-111 0-208 36t-170 101.5-115 165-42 218.5zm172 75h631q0 151-78 233.5t-217 82.5q-126 0-222-85t-114-231zm25 746q0 48 30.5 80.5t77.5 32.5q49 0 80-32.5t31-80.5-31-80.5-80-32.5q-47 0-77.5 32.5t-30.5 80.5zm393 0q0 48 31 80.5t80 32.5 79.5-32.5 30.5-80.5-30.5-80.5-79.5-32.5-80 32.5-31 80.5z"/><glyph unicode="ì" d="M184 858v137h631v-995h-168v858h-463zm293 619h185l184-303h-129z"/><glyph unicode="í" d="M184 858v137h631v-995h-168v858h-463zm396 316l184 303h182l-237-303h-129z"/><glyph unicode="î" d="M184 858v137h631v-995h-168v858h-463zm258 316l197 303h145l199-303h-129l-137 202h-8l-138-202h-129z"/><glyph unicode="ï" d="M184 858v137h631v-995h-168v858h-463zm222 459q0 48 30.5 80.5t77.5 32.5q49 0 80-32.5t31-80.5-31-80.5-80-32.5q-47 0-77.5 32.5t-30.5 80.5zm393 0q0 48 30.5 80.5t79.5 32.5 80-32.5 31-80.5-31-80.5-80-32.5-79.5 32.5-30.5 80.5z"/><glyph unicode="ð" d="M123 455q0 207 131 333.5t336 126.5q95 0 181.5-43.5t143.5-119.5q-52 260-247 430l-308-158-47 84 271 139q-99 70-246 142l78 106q179-84 303-178l276 141 47-84-243-125q299-276 299-723 0-248-132.5-399.5t-355.5-151.5q-130 0-240 57t-178.5 168-68.5 255zm158 0q0-150 96.5-245t236.5-95q158 0 240 110t82 295q0 61-2 90-132 174-320 174-159 0-246-91.5t-87-237.5z"/><glyph unicode="ñ" d="M190 0v995h140l14-170h8q87 93 176.5 144t198.5 51q344 0 344-402v-618h-168v596q0 143-54 210.5t-175 67.5q-85 0-153.5-41.5t-162.5-138.5v-694h-168zm170 1186q11 102 56.5 162.5t124.5 60.5q33 0 67-17.5t57-38 49.5-38 47.5-17.5q63 0 84 111h94q-10-101-55-162t-123-61q-34 0-67.5 17.5t-56 38.5-50 38.5-49.5 17.5q-64 0-82-112h-97z"/><glyph unicode="ò" d="M123 496q0 122 40 222.5t107.5 165.5 156 100.5 187.5 35.5 187.5-35.5 156.5-100.5 108-165.5 40-222.5q0-120-40-220t-108-165-156.5-100.5-187.5-35.5-187.5 35.5-156 100.5-107.5 165-40 220zm174 0q0-170 87.5-275.5t229.5-105.5 230 105.5 88 275.5q0 172-88 278.5t-230 106.5-229.5-106.5-87.5-278.5zm82 981h184l185-303h-130z"/><glyph unicode="ó" d="M123 496q0 122 40 222.5t107.5 165.5 156 100.5 187.5 35.5 187.5-35.5 156.5-100.5 108-165.5 40-222.5q0-120-40-220t-108-165-156.5-100.5-187.5-35.5-187.5 35.5-156 100.5-107.5 165-40 220zm174 0q0-170 87.5-275.5t229.5-105.5 230 105.5 88 275.5q0 172-88 278.5t-230 106.5-229.5-106.5-87.5-278.5zm184 678l185 303h184l-240-303h-129z"/><glyph unicode="ô" d="M123 496q0 122 40 222.5t107.5 165.5 156 100.5 187.5 35.5 187.5-35.5 156.5-100.5 108-165.5 40-222.5q0-120-40-220t-108-165-156.5-100.5-187.5-35.5-187.5 35.5-156 100.5-107.5 165-40 220zm174 0q0-170 87.5-275.5t229.5-105.5 230 105.5 88 275.5q0 172-88 278.5t-230 106.5-229.5-106.5-87.5-278.5zm47 678l199 303h143l199-303h-129l-138 202h-8l-137-202h-129z"/><glyph unicode="õ" d="M123 496q0 122 40 222.5t107.5 165.5 156 100.5 187.5 35.5 187.5-35.5 156.5-100.5 108-165.5 40-222.5q0-120-40-220t-108-165-156.5-100.5-187.5-35.5-187.5 35.5-156 100.5-107.5 165-40 220zm174 0q0-170 87.5-275.5t229.5-105.5 230 105.5 88 275.5q0 172-88 278.5t-230 106.5-229.5-106.5-87.5-278.5zm27 690q11 102 56.5 162.5t123.5 60.5q33 0 67-17.5t57-38 50-38 49-17.5q64 0 82 111h96q-11-101-56.5-162t-123.5-61q-34 0-67.5 17.5t-56 38.5-50 38.5-49.5 17.5q-64 0-82-112h-96z"/><glyph unicode="ö" d="M123 496q0 122 40 222.5t107.5 165.5 156 100.5 187.5 35.5 187.5-35.5 156.5-100.5 108-165.5 40-222.5q0-120-40-220t-108-165-156.5-100.5-187.5-35.5-187.5 35.5-156 100.5-107.5 165-40 220zm174 0q0-170 87.5-275.5t229.5-105.5 230 105.5 88 275.5q0 172-88 278.5t-230 106.5-229.5-106.5-87.5-278.5zm10 821q0 48 31 80.5t80 32.5q47 0 78.5-32.5t31.5-80.5-31.5-80.5-78.5-32.5q-49 0-80 32.5t-31 80.5zm393 0q0 47 32 80t79 33q49 0 80-32.5t31-80.5-31-80.5-80-32.5q-47 0-79 33t-32 80z"/><glyph unicode="÷" d="M174 571v127h881v-127h-881zm330-305q0 47 31.5 78t78.5 31 79-31 32-78q0-49-31.5-79.5t-79.5-30.5-79 30.5-31 79.5zm0 738q0 47 31.5 77.5t78.5 30.5q48 0 79.5-30.5t31.5-77.5q0-49-31.5-80t-79.5-31-79 31-31 80z"/><glyph unicode="ø" d="M123 496q0 122 40 222.5t107.5 165.5 156 100.5 187.5 35.5q168 0 299-98l105 120 76-59-109-127q121-144 121-360 0-120-40-220t-108-165-156.5-100.5-187.5-35.5q-167 0-299 99l-104-121-76 59 109 127q-121 144-121 357zm174 0q0-134 55-230l463 541q-81 78-201 78-142 0-229.5-108.5t-87.5-280.5zm115-308q83-77 202-77 142 0 230 107t88 278q0 134-55 233z"/><glyph unicode="ù" d="M158 377v618h170v-596q0-144 53.5-211t175.5-67q84 0 154 42.5t155 141.5v690h168v-995h-137l-14 174h-9q-170-199-370-199-346 0-346 402zm211 1100h182l186-303h-129z"/><glyph unicode="ú" d="M158 377v618h170v-596q0-144 53.5-211t175.5-67q84 0 154 42.5t155 141.5v690h168v-995h-137l-14 174h-9q-170-199-370-199-346 0-346 402zm311 797l186 303h183l-238-303h-131z"/><glyph unicode="û" d="M158 377v618h170v-596q0-144 53.5-211t175.5-67q84 0 154 42.5t155 141.5v690h168v-995h-137l-14 174h-9q-170-199-370-199-346 0-346 402zm174 797l198 303h146l198-303h-129l-137 202h-8l-137-202h-131z"/><glyph unicode="ü" d="M158 377v618h170v-596q0-144 53.5-211t175.5-67q84 0 154 42.5t155 141.5v690h168v-995h-137l-14 174h-9q-170-199-370-199-346 0-346 402zm139 940q0 48 31 80.5t78 32.5q49 0 79.5-32.5t30.5-80.5-30.5-80.5-79.5-32.5q-47 0-78 32.5t-31 80.5zm393 0q0 48 31 80.5t80 32.5 79.5-32.5 30.5-80.5-30.5-80.5-79.5-32.5-80 32.5-31 80.5z"/><glyph unicode="ý" d="M100 995h170l244-551q17-39 37.5-87t46-108.5 39.5-92.5h8q92 247 107 288l217 551h159l-438-1077q-130-346-422-346-73 0-131 20l35 134q51-15 90-15 188 0 273 213l30 74zm389 179l185 303h184l-240-303h-129z"/><glyph unicode="þ" d="M190-420v1878h168v-411l-4-179q74 71 162 111.5t174 40.5q198 0 307-136.5t109-371.5q0-123-37.5-226t-100.5-170-144.5-104-170.5-37q-72 0-150 34.5t-147 94.5l2-188v-336h-168zm168 653q66-59 137.5-87.5t129.5-28.5q134 0 220.5 107t86.5 288q0 172-69.5 269.5t-213.5 97.5q-141 0-291-150v-496z"/><glyph unicode="ÿ" d="M100 995h170l244-551q17-39 37.5-87t46-108.5 39.5-92.5h8q92 247 107 288l217 551h159l-438-1077q-130-346-422-346-73 0-131 20l35 134q51-15 90-15 188 0 273 213l30 74zm215 322q0 48 31 80.5t80 32.5 80-32.5 31-80.5-31-80.5-80-32.5-80 32.5-31 80.5zm396 0q0 48 30.5 80.5t79.5 32.5q47 0 78-32.5t31-80.5-31-80.5-78-32.5q-49 0-79.5 32.5t-30.5 80.5z"/><glyph unicode="Œ" d="M68 678q0 319 143.5 493.5t400.5 174.5h578v-144h-397v-424h303v-145h-303v-488h417v-145h-604q-253 0-395.5 179t-142.5 499zm176 0q0-260 87.5-399.5t260.5-139.5h43v1065h-43q-174 0-261-134t-87-392z"/><glyph unicode="œ" d="M23 498q0 242 101.5 382t258.5 140q95 0 167-62.5t112-177.5q88 240 272 240 135 0 211-130.5t76-324.5q0-58-7-108h-493q8-160 68.5-253t168.5-93q81 0 175 63l59-111q-118-88-240-88-97 0-171.5 59t-118.5 171q-87-230-279-230-158 0-259 140t-101 383zm157 0q0-175 54.5-280t156.5-105q92 0 147.5 107t55.5 278-55.5 277-147.5 106q-102 0-156.5-104t-54.5-279zm539 71h362q0 66-8 121t-26 100.5-49.5 71-75.5 25.5q-88 0-139.5-83.5t-63.5-234.5z"/><glyph unicode="Ÿ" d="M78 1343h180l203-399q23-47 73.5-151t79.5-162h9q28 58 81 163t76 152l195 397h176l-451-864v-479h-172v479zm260 222q0 44 28 72t72 28q43 0 72-28t29-72q0-43-29-72t-72-29q-44 0-72 29t-28 72zm352 0q0 44 29 72t72 28q44 0 72-28t28-72q0-43-28-72t-72-29q-43 0-72 29t-29 72z"/><glyph unicode="ˆ" d="M344 1174l199 303h143l199-303h-129l-138 202h-8l-137-202h-129z"/><glyph unicode="˜" d="M324 1186q11 102 56.5 162.5t123.5 60.5q33 0 67-17.5t57-38 50-38 49-17.5q64 0 82 111h96q-11-101-56.5-162t-123.5-61q-34 0-67.5 17.5t-56 38.5-50 38.5-49.5 17.5q-64 0-82-112h-96z"/><glyph horiz-adv-x="896"/><glyph horiz-adv-x="1792"/><glyph horiz-adv-x="896"/><glyph horiz-adv-x="1792"/><glyph horiz-adv-x="597"/><glyph horiz-adv-x="448"/><glyph horiz-adv-x="298"/><glyph horiz-adv-x="298"/><glyph horiz-adv-x="224"/><glyph horiz-adv-x="358"/><glyph horiz-adv-x="99"/><glyph unicode="‐" d="M274 526v148h680v-148h-680z"/><glyph unicode="‑" d="M274 526v148h680v-148h-680z"/><glyph unicode="‒" d="M274 526v148h680v-148h-680z"/><glyph unicode="–" d="M164 526v148h901v-148h-901z"/><glyph unicode="—" d="M41 526v148h1147v-148h-1147z"/><glyph unicode="‘" d="M428 963q0 153 78 275.5t217 193.5l55-99q-199-116-211-323 24 12 54 12 63 0 103-41.5t40-106.5q0-70-42.5-113.5t-109.5-43.5q-81 0-132.5 66.5t-51.5 179.5z"/><glyph unicode="’" d="M444 815q201 112 213 324-26-13-53-13-64 0-104.5 40.5t-40.5 105.5q0 70 42.5 115t108.5 45q83 0 134-66.5t51-181.5q0-152-77.5-274t-215.5-193z"/><glyph unicode="‚" d="M444-365q201 112 213 324-24-12-53-12-65 0-105 40.5t-40 106.5q0 69 42.5 113.5t108.5 44.5q83 0 134-66.5t51-181.5q0-152-77.5-274t-215.5-193z"/><glyph unicode="“" d="M195 963q0 153 76.5 275.5t215.5 193.5l56-99q-198-116-213-323 27 12 55 12 63 0 103-41.5t40-106.5q0-70-41.5-113.5t-107.5-43.5q-83 0-133.5 66t-50.5 180zm469 0q0 153 77.5 275.5t216.5 193.5l56-99q-200-115-215-323 27 12 55 12 64 0 104.5-41.5t40.5-106.5q0-70-42.5-113.5t-108.5-43.5q-81 0-132.5 66.5t-51.5 179.5z"/><glyph unicode="”" d="M211 815q199 113 211 324-26-13-53-13-63 0-103.5 41t-40.5 105q0 70 42 115t108 45q83 0 133.5-66.5t50.5-181.5q0-153-77-274.5t-216-192.5zm469 0q199 115 211 322-29-11-51-11-64 0-105 41t-41 105q0 70 43 115t109 45q81 0 132.5-66.5t51.5-181.5q0-152-78-274t-217-193z"/><glyph unicode="„" d="M211-365q199 113 211 324-24-12-53-12-63 0-103.5 40.5t-40.5 106.5q0 69 42 113.5t108 44.5q83 0 133.5-66.5t50.5-181.5q0-153-77-274.5t-216-192.5zm469 0q199 115 211 322-27-10-51-10-65 0-105.5 40.5t-40.5 106.5q0 69 43 113.5t109 44.5q81 0 132.5-66.5t51.5-181.5q0-152-78-274t-217-193z"/><glyph unicode="•" d="M309 621q0 132 90 216.5t215 84.5 215.5-85 90.5-216q0-130-90.5-216t-215.5-86-215 85.5-90 216.5z"/><glyph unicode="…" d="M66 129q0 68 41 111t102 43q60 0 100.5-43t40.5-111q0-67-41-110.5t-100-43.5q-61 0-102 43.5t-41 110.5zm405 0q0 68 41 111t102 43 102.5-43 41.5-111q0-67-41.5-110.5t-102.5-43.5-102 43.5-41 110.5zm408 0q0 68 40.5 111t100.5 43q61 0 102-43t41-111q0-67-41-110.5t-102-43.5q-59 0-100 43.5t-41 110.5z"/><glyph horiz-adv-x="358"/><glyph unicode="‹" d="M403 434v164l314 328 80-72-260-338 260-340-80-70z"/><glyph unicode="›" d="M432 176l260 340-260 338 80 72 313-328v-164l-313-328z"/><glyph horiz-adv-x="448"/><glyph unicode="€" d="M119 481v88l121 9q-2 25-2 73 0 46 2 66h-121v90l131 10q38 241 183 377.5t362 136.5q100 0 190.5-44t155.5-116l-101-96q-118 121-252 121-149 0-242.5-99.5t-121.5-279.5h602v-100h-612q-2-18-2-60 0-52 2-77h530v-99h-518q30-175 120.5-272.5t229.5-97.5q85 0 152 36t131 109l100-90q-164-191-393-191-201 0-339.5 134t-176.5 372h-131z"/><glyph unicode="™" d="M-10 1274v110h516v-110h-197v-524h-123v524h-196zm608-524v634h145l93-233 55-164h8l53 164 90 233h146v-634h-113v280l15 215h-9l-145-383h-86l-148 383h-8l15-215v-280h-111z"/><glyph unicode="" horiz-adv-x="993" d="M0 0v993h993v-993h-993z"/><glyph unicode="ﬁ" d="M106 858v127l136 10v158q0 157 72 243.5t218 86.5q83 0 166-33l-34-129q-61 25-113 25-141 0-141-193v-158h211v-137h-211v-858h-168v858h-136zm687 473q0 58 40 94.5t99 36.5 98-36.5 39-94.5-39-94.5-98-36.5-99 36.5-40 94.5zm55-1331v995h168v-995h-168z"/><glyph unicode="ﬂ" d="M117 858v127l135 10v158q0 157 72.5 243.5t218.5 86.5q83 0 166-33l-37-129q-58 25-113 25-139 0-139-193v-158h211v-137h-211v-858h-168v858h-135zm704-657v1257h168v-1270q0-37 13-55t34-18q19 0 37 4l23-127q-42-17-97-17-93 0-135.5 57t-42.5 169z"/></font>
</defs>
</svg>
