<svg xmlns="http://www.w3.org/2000/svg" viewBox="0 0 77.49 83"><title>favicon</title><path d="M53.26,79a23.31,23.31,0,0,0,4.42-1.61,24.83,24.83,0,0,0,8.58-7,32.93,32.93,0,0,0,5.51-10.93A49.14,49.14,0,0,0,73.72,45.1,34.24,34.24,0,0,0,72.34,35a22.54,22.54,0,0,0-4-7.74,17.81,17.81,0,0,0-6.41-5,20.09,20.09,0,0,0-8.53-1.75,24.15,24.15,0,0,0-19.65,9.55,33.57,33.57,0,0,0-5.51,11,49.19,49.19,0,0,0-1.95,14.29,34.91,34.91,0,0,0,1.36,10.05,22.08,22.08,0,0,0,4,7.71,17.45,17.45,0,0,0,6.35,4.91,17.82,17.82,0,0,0,2.55.91" transform="translate(-11.26 -8.5)" style="fill:none"/><path d="M59.42,42.38A14.08,14.08,0,0,0,55,39.46a13.06,13.06,0,0,0-5.18-1,12.11,12.11,0,0,0-5,1.08,15,15,0,0,0-4.31,3,14.37,14.37,0,0,0-3,4.35,12.57,12.57,0,0,0-1.13,5.25,12.29,12.29,0,0,0,1.13,5.22,14.66,14.66,0,0,0,3,4.27,14.21,14.21,0,0,0,4.24,2.93,12.11,12.11,0,0,0,5,1.08,12.89,12.89,0,0,0,5.14-1.08,15.27,15.27,0,0,0,4.46-2.93,14.8,14.8,0,0,0,3.15-4.27,11.65,11.65,0,0,0,1.2-5.22,12.37,12.37,0,0,0-1.16-5.33A15,15,0,0,0,59.42,42.38Z" transform="translate(-11.26 -8.5)"/><path d="M86.43,30.38a33.59,33.59,0,0,0-6.66-11.49A30.78,30.78,0,0,0,69.2,11.27a34.07,34.07,0,0,0-14-2.77,44,44,0,0,0-12,1.61,41.37,41.37,0,0,0-10.59,4.63A42.21,42.21,0,0,0,23.77,22,44.91,44.91,0,0,0,17,31.49a48.72,48.72,0,0,0-4.29,11.38,54.19,54.19,0,0,0-1.5,12.91,43.11,43.11,0,0,0,2.32,14.35,33.46,33.46,0,0,0,6.69,11.47,31.09,31.09,0,0,0,10.59,7.62A31.59,31.59,0,0,0,39,91.5L40.49,79a17.82,17.82,0,0,1-2.55-.91,17.45,17.45,0,0,1-6.35-4.91,22.08,22.08,0,0,1-4-7.71,34.91,34.91,0,0,1-1.36-10.05,49.19,49.19,0,0,1,1.95-14.29,33.57,33.57,0,0,1,5.51-11,24.15,24.15,0,0,1,19.65-9.55,20.09,20.09,0,0,1,8.53,1.75,17.81,17.81,0,0,1,6.41,5,22.54,22.54,0,0,1,4,7.74A34.24,34.24,0,0,1,73.72,45.1a49.14,49.14,0,0,1-1.95,14.32,32.93,32.93,0,0,1-5.51,10.93,24.83,24.83,0,0,1-8.58,7A23.31,23.31,0,0,1,53.26,79L51.76,91.43h0A41.81,41.81,0,0,0,76.26,78.53,43.67,43.67,0,0,0,83,69a49.52,49.52,0,0,0,4.26-11.38,54.22,54.22,0,0,0,1.5-12.9A43.37,43.37,0,0,0,86.43,30.38Z" transform="translate(-11.26 -8.5)"/></svg>